<svg xmlns="http://www.w3.org/2000/svg" viewBox="0 0 18 18"><path class="b" d="M12.1066,1.5l4.3934,4.3934v6.2132l-4.3934,4.3934H5.8934L1.5,12.1066V5.8934L5.8934,1.5h6.2132m.62132-1.5H5.27208L0,5.27208v7.45584l5.27208,5.27208h7.45584l5.27208-5.27208V5.27208L12.72792,0Z"/><path class="b" d="M7.83984,13.62109c-.07065-.58041,.3426-1.10821,.92301-1.17885,.08263-.01006,.16617-.01034,.24887-.00083,.31519-.0204,.62438,.09307,.85156,.3125,.20884,.23895,.31546,.55037,.29688,.86718,.01722,.32085-.09059,.63589-.30078,.87891-.22284,.22485-.53165,.34296-.84766,.32422-.31851,.0191-.6308-.09395-.86328-.3125-.21887-.24305-.33017-.56427-.3086-.89063Z"/><polygon class="b" points="9.69922 11.12891 8.33984 11.12891 7.4336 3.17578 10.5977 3.17578 9.69922 11.12891"/></svg>