<svg xmlns="http://www.w3.org/2000/svg" x="0px" y="0px" viewBox="0 0 18 18"><style type="text/css"> .st0{fill:#000000;}</style><path class="st0" d="M17.3,13.7l-6.9-7.6l0,0C10.3,5.9,10,5.5,10.1,5c0-0.5,0.1-1.3,2.5-1.2c0.4,0,0.9-0.2,1-0.6 c0.2-0.4,0.1-0.9-0.2-1.2C12.8,1.2,11.8,0.1,9.5,0c-2.2-0.1-3.4,1-4,1.5L2.6,4.2C2.4,4.3,2.3,4.5,2.3,4.6C2.1,4.7,2,4.8,1.8,4.9 L0.4,6.2l0,0c-0.4,0.4-0.5,1-0.1,1.5l2.3,2.9C2.7,10.9,3,11,3.4,11.1c0,0,0,0,0,0c0.3,0,0.5-0.1,0.7-0.3L6,9.1 C6.1,9,6.2,8.9,6.2,8.8C6.5,9,6.7,9.2,7.1,9.4l0.2,0.2l6.2,7.5c0.5,0.6,1.1,0.9,1.9,0.9c0,0,0.1,0,0.1,0c1.4,0,2.5-1.1,2.6-2.4 C18,14.8,17.8,14.2,17.3,13.7z M5.6,7.1l-0.7,0l0,1L3.5,9.4L1.6,7.1l1.1-1l0.9,0l0-0.9l2.8-2.6c0.6-0.5,1.4-1.2,2.9-1.1 c1,0.1,1.7,0.4,2.2,0.8c-2,0.1-3,1-3.1,2.7c0,0.6,0.2,1.2,0.4,1.6L7.5,7.8C6.7,7.3,6.1,7.1,5.6,7.1z M15.4,16.5 c-0.3,0-0.6-0.2-0.8-0.4L9.1,9.4l1.3-1.2l5.9,6.5h0c0.2,0.2,0.3,0.5,0.3,0.8C16.5,16.1,16,16.5,15.4,16.5z"/></svg>