<svg xmlns="http://www.w3.org/2000/svg" x="0px" y="0px" viewBox="0 0 18 18"><path d="M3.4,11C3.4,11,3.4,11,3.4,11c-0.4,0-0.7-0.2-0.8-0.4L0.2,7.7c-0.3-0.4-0.3-1.1,0.1-1.4l0,0l1.5-1.3C2,4.8,2.1,4.7,2.3,4.7 c0.1-0.2,0.2-0.3,0.3-0.4l3-2.7C6.2,1,7.3-0.1,9.5,0c2.2,0.1,3.2,1.2,3.8,1.9c0.3,0.3,0.4,0.8,0.2,1.2c-0.2,0.4-0.6,0.6-1,0.6 C10.1,3.6,10,4.5,10,5c0,0.5,0.3,1,0.5,1.2l0.4,0.5L7.6,9.7L7.1,9.4C6.7,9.1,6.4,8.9,6.2,8.8C6.1,8.9,6.1,9,6,9.1l-1.9,1.7 C3.9,10.9,3.7,11,3.4,11z M3.7,9.8L3.7,9.8C3.7,9.8,3.7,9.8,3.7,9.8z M1.5,7.1l1.9,2.4l1.5-1.3l0-1l0.6,0c0.5,0,1.2,0.4,1.9,0.8 L9,6.5c-0.2-0.4-0.4-1-0.4-1.6c0.1-1.7,1.1-2.5,3.2-2.6c-0.5-0.4-1.2-0.8-2.3-0.9C7.9,1.4,7,2.1,6.5,2.6L3.6,5.2l0,0.9l-0.9,0 L1.5,7.1z M1.3,7.3L1.3,7.3L1.3,7.3z M2.8,6L2.8,6C2.8,6,2.8,6,2.8,6z"/><path d="M15.5,18c0,0-0.1,0-0.1,0c-0.7,0-1.4-0.4-1.8-0.9l-5.4-6.6l3.4-3.1l5.8,6.3c0.5,0.5,0.7,1.2,0.7,1.9c0,0.7-0.3,1.3-0.8,1.8 C16.7,17.8,16.1,18,15.5,18z M10.1,10.6l4.5,5.6c0.2,0.2,0.5,0.4,0.8,0.4c0.3,0,0.6-0.1,0.8-0.3c0.2-0.2,0.4-0.5,0.4-0.8 c0-0.3-0.1-0.6-0.3-0.8l-4.8-5.3L10.1,10.6z"/></svg>