<svg xmlns="http://www.w3.org/2000/svg" viewBox="0 0 112.854 112.854"><polygon points="41.436 0 79.196 31.113 24.395 45.75 41.436 0" fill="#c4c4c4"/><polygon points="82.661 31.608 98.5 15.768 112.359 67.67 82.661 31.608" fill="#c4c4c4"/><polygon points="24.678 47.73 79.903 32.951 65.125 88.176 24.678 47.73" fill="#bbb"/><polygon points="38.467 2.263 22.132 46.033 0.495 40.234 38.467 2.263" fill="#b2b2b2"/><polygon points="81.742 33.658 112.854 71.418 67.104 88.459 81.742 33.658" fill="#ababab"/><polygon points="0 42.144 21.637 47.942 13.93 93.974 0 42.144" fill="#a6a6a6"/><polygon points="66.822 90.722 110.592 74.388 72.62 112.359 66.822 90.722" fill="#a2a2a2"/><polygon points="23.405 49.285 63.569 89.449 15.344 97.51 23.405 49.285" fill="#a2a2a2"/><polygon points="64.912 91.217 70.711 112.854 18.88 98.924 64.912 91.217" fill="#9f9f9f"/><polygon points="97.086 14.354 81.247 30.193 45.184 0.495 97.086 14.354" fill="#fff"/></svg>