<svg xmlns="http://www.w3.org/2000/svg" viewBox="0 0 151.64999 180.95388"><path d="M51.966,0C23.265,0,0,20.744,0,46.33726S23.265,92.67451,51.966,92.67451c25.29,0,46.359-16.12775,50.994-37.47609H88.497c-4.5,13.74681-19.17,23.86034-36.531,23.86034-20.934,0-37.962-14.67881-37.962-32.7215s17.028-32.7215,37.962-32.7215c17.361,0,32.031,10.11352,36.531,23.86033H102.96C98.325,16.12047,77.256,0,51.966,0" fill="#fff"/><path d="M51.966,54.52041c-5.238,0-9.504-3.6697-9.504-8.184s4.266-8.184,9.504-8.184,9.495,3.6697,9.495,8.184-4.257,8.184-9.495,8.184m0-20.71488A12.53089,12.53089,0,1,0,64.8,46.3364,12.68488,12.68488,0,0,0,51.966,33.80553" fill="#fff"/><path d="M20.619,167.99343V110.88007H50.868c16.677,0,30.24,12.80754,30.24,28.55668s-13.563,28.55668-30.24,28.55668H20.619M51.48,97.91961H8.622v83.03427H51.48c23.67,0,42.858-18.58879,42.858-41.51713S75.15,97.91961,51.48,97.91961" fill="#fff"/><polyline points="108.432 82.656 108.432 105.818 134.622 94.241 108.432 82.656" fill="red"/><polyline points="151.65 51.939 141.075 51.939 141.075 71.321 151.65 71.321 151.65 51.939" fill="#fff"/><polyline points="151.65 80.139 141.075 80.139 141.075 134.492 151.65 134.492 151.65 80.139" fill="#fff"/></svg>