<svg xmlns="http://www.w3.org/2000/svg" viewBox="0 0 205 205"><path d="M0-.005h.005L0 0Zm205 0V0l-.005-.005Zm-12.813 170.838L205 158.02v42.71l-4.27 4.27h-42.71l12.813-12.813L12.812 34.167 0 46.979V4.276L4.281-.005h42.704L34.167 12.813Zm0-8.542-72.604-72.604L205 4.27v42.71l-42.708 42.708 29.896 29.895L205 106.771v42.707Zm-76.875-76.875L42.709 12.813 55.527-.005h42.708L85.417 12.813l29.896 29.895L158.026-.005h42.707Zm0-51.249L93.958 12.813 106.776-.005h42.709Zm76.875 76.875-21.354-21.354L205 55.522v42.707ZM12.812 42.709l72.604 72.603L0 200.728V158.02l42.708-42.708-29.896-29.895L0 98.229V55.521Zm76.875 76.874 72.604 72.604L149.478 205H106.77l12.813-12.813-29.896-29.895L46.979 205H4.27ZM12.812 93.958l21.354 21.354L0 149.478V106.77Zm76.875 76.875 21.354 21.354L98.228 205H55.52Z"/></svg>