<svg xmlns="http://www.w3.org/2000/svg" viewBox="0 0 21.27271 18"><path d="M15.38177,0a5.83021,5.83021,0,0,0-3.68591,1.3136l1.17066,1.17059L10.65173,4.69745l2.21479,2.21478L10.65173,9.127l2.21479,2.21479-2.21479,2.21331,2.21473,2.21479L10.63635,18S21.27271,14.79547,21.27271,5.89093A5.89093,5.89093,0,0,0,15.38177,0ZM13.77032,14.90594l-.01995-.01995L12.4198,13.55542l2.21472-2.21332L12.41949,9.127l2.21479-2.21478L12.4198,4.69775,14.63452,2.4845,13.912,1.7619A4.31264,4.31264,0,0,1,15.38177,1.5a4.3959,4.3959,0,0,1,4.39094,4.39093C19.77271,10.40607,16.49036,13.28937,13.77032,14.90594Z" fill="#323232"/><path d="M10.65173,15.7699,8.437,13.55511l2.214-2.21405L8.437,9.127l2.21478-2.21478L8.437,4.69745l2.214-2.214L9.1723,1.00482A5.88375,5.88375,0,0,0,0,5.89093c0,6.72577,6.06573,10.198,9.03528,11.49536ZM1.5,5.89093A4.3959,4.3959,0,0,1,5.89093,1.5,4.32151,4.32151,0,0,1,8.77478,2.59186L6.66919,4.69745,8.884,6.91223,6.66919,9.127l2.214,2.21405-2.214,2.21405,1.99969,1.99964C5.83521,14.13129,1.5,11.1051,1.5,5.89093Z" fill="#323232"/></svg>