<svg xmlns="http://www.w3.org/2000/svg" viewBox="0 0 28.52 32"><path d="M14.13259,0C10.75223,0,7.14015.85577,7.14015,3.25757V13.1824q-.0738-.00058-.14773-.00058C3.61207,13.18182,0,14.0376,0,16.43939V28.74246C.00045,31.14432,3.61232,32,6.99235,32s6.99205-.85568,6.9925-3.25726V27.60547q.07377.0006.14767.00058c.45535,0,.90857-.017,1.35475-.05066,1.64015,1.32272,4.92041,1.44257,6.04024,1.44257,3.38009,0,6.992-.85569,6.99249-3.25724V13.43735c-.00012-2.40183-3.61215-3.25757-6.99242-3.25757q-.20145,0-.40256.00445V3.25757C21.12485.85571,17.51283,0,14.13259,0Z" fill="#a86500"/><path d="M19.625,22.59091v1.75763h0c-.00017.97064-2.45909,1.75752-5.49235,1.75752h-.00006L13.0341,24.34848l1.09849-1.75757Z" fill="#ffce2a"/><path d="M8.64016,22.59091v1.75763h0c.00017.97064,2.45909,1.75752,5.49235,1.75752h.00007V22.59091Z" fill="#fdeb95"/><path d="M19.625,20.83333V22.591h0c-.00017.97065-2.45909,1.75752-5.49235,1.75752h-.00006L13.0341,22.59091l1.09849-1.75758Z" fill="#e68900"/><path d="M8.64016,20.83333V22.591h0c.00017.97065,2.45909,1.75752,5.49235,1.75752h.00007V20.83333Z" fill="#ffad00"/><path d="M19.625,19.07576v1.75762h0c-.00017.97065-2.45909,1.75753-5.49235,1.75753h-.00006L13.0341,20.83333l1.09849-1.75757Z" fill="#ffce2a"/><path d="M8.64016,19.07576v1.75762h0c.00017.97065,2.45909,1.75753,5.49235,1.75753h.00007V19.07576Z" fill="#fdeb95"/><path d="M19.625,17.31818v1.75763h0c-.00017.97065-2.45909,1.75752-5.49235,1.75752h-.00006L13.0341,19.07576l1.09849-1.75758Z" fill="#e68900"/><path d="M8.64016,17.31818v1.75763h0c.00017.97065,2.45909,1.75752,5.49235,1.75752h.00007V17.31818Z" fill="#ffad00"/><path d="M19.625,15.56061v1.75762h0c-.00017.97065-2.45909,1.75753-5.49235,1.75753h-.00006L13.0341,17.31818l1.09849-1.75757Z" fill="#ffce2a"/><path d="M8.64016,15.56061v1.75762h0c.00017.97065,2.45909,1.75753,5.49235,1.75753h.00007V15.56061Z" fill="#fdeb95"/><path d="M19.625,13.803v1.75763h0c-.00017.97065-2.45909,1.75752-5.49235,1.75752h-.00006L13.0341,15.56061,14.13259,13.803Z" fill="#e68900"/><path d="M8.64016,13.803v1.75763h0c.00017.97065,2.45909,1.75752,5.49235,1.75752h.00007V13.803Z" fill="#ffad00"/><path d="M19.625,12.04545v1.75763h0c-.00017.97065-2.45909,1.75753-5.49235,1.75753h-.00006L13.0341,13.803l1.09849-1.75758Z" fill="#ffce2a"/><path d="M8.64016,12.04545v1.75763h0c.00017.97065,2.45909,1.75753,5.49235,1.75753h.00007V12.04545Z" fill="#fdeb95"/><path d="M19.625,10.28788V12.0455h0c-.00017.97065-2.45909,1.75753-5.49235,1.75753h-.00006L13.0341,12.04545l1.09849-1.75757Z" fill="#e68900"/><path d="M8.64016,10.28788V12.0455h0c.00017.97065,2.45909,1.75753,5.49235,1.75753h.00007V10.28788Z" fill="#ffad00"/><path d="M19.625,8.5303v1.75763h0c-.00017.97065-2.45909,1.75752-5.49235,1.75752h-.00006L13.0341,10.28788,14.13259,8.5303Z" fill="#ffce2a"/><path d="M8.64016,8.5303v1.75763h0c.00017.97065,2.45909,1.75752,5.49235,1.75752h.00007V8.5303Z" fill="#fdeb95"/><path d="M19.625,6.77273V8.53035h0c-.00017.97065-2.45909,1.75753-5.49235,1.75753h-.00006L13.0341,8.5303l1.09849-1.75757Z" fill="#e68900"/><path d="M8.64016,6.77273V8.53035h0c.00017.97065,2.45909,1.75753,5.49235,1.75753h.00007V6.77273Z" fill="#ffad00"/><path d="M19.625,5.01515V6.77278h0c-.00017.97065-2.45909,1.75752-5.49235,1.75752h-.00006L13.0341,6.77273l1.09849-1.75758Z" fill="#ffce2a"/><path d="M8.64016,5.01515V6.77278h0c.00017.97065,2.45909,1.75752,5.49235,1.75752h.00007V5.01515Z" fill="#fdeb95"/><path d="M19.625,3.25758V5.0152h0c-.00017.97065-2.45909,1.75753-5.49235,1.75753h-.00006L13.0341,5.01515l1.09849-1.75757Z" fill="#e68900"/><path d="M8.64016,3.25758V5.0152h0c.00017.97065,2.45909,1.75753,5.49235,1.75753h.00007V3.25758Z" fill="#ffad00"/><path d="M14.13259,1.5h0L13.0341,3.25758l1.09849,1.75757h0c3.03334,0,5.49242-.78688,5.49242-1.75757S17.166,1.5,14.13259,1.5Z" fill="#ffad00"/><path d="M8.64016,3.25758c0,.97067,2.459,1.75757,5.49243,1.75757V1.5C11.09918,1.5,8.64016,2.28689,8.64016,3.25758Z" fill="#ffce2a"/><path d="M14.13259,2.214h0L13.03407,3.25758l1.09846,1.04356h0c1.81716,0,3.29545-.46815,3.29545-1.04356S15.94975,2.214,14.13259,2.214Z" fill="#ffce2a"/><path d="M10.83712,3.25758c0,.57539,1.4783,1.04354,3.29546,1.04356V2.214C12.31542,2.214,10.83712,2.68218,10.83712,3.25758Z" fill="#fdeb95"/><path d="M12.48485,26.98485v1.75762h0C12.48467,29.71312,10.02575,30.5,6.99249,30.5H6.99242L5.89394,28.74242l1.09848-1.75757Z" fill="#e68900"/><path d="M1.5,26.98485v1.75762h0C1.50018,29.71312,3.9591,30.5,6.99236,30.5h.00006V26.98485Z" fill="#ffad00"/><path d="M12.48485,25.22727V26.9849h0c-.00017.97065-2.45909,1.75752-5.49235,1.75752H6.99242L5.89394,26.98485l1.09848-1.75758Z" fill="#ffce2a"/><path d="M1.5,25.22727V26.9849h0c.00017.97065,2.45909,1.75752,5.49235,1.75752h.00006V25.22727Z" fill="#fdeb95"/><path d="M12.48485,23.4697v1.75762h0c-.00017.97065-2.45909,1.75753-5.49235,1.75753H6.99242L5.89394,25.22727,6.99242,23.4697Z" fill="#e68900"/><path d="M1.5,23.4697v1.75762h0c.00017.97065,2.45909,1.75753,5.49235,1.75753h.00006V23.4697Z" fill="#ffad00"/><path d="M12.48485,21.71212v1.75763h0c-.00017.97065-2.45909,1.75752-5.49235,1.75752H6.99242L5.89394,23.4697l1.09848-1.75758Z" fill="#ffce2a"/><path d="M1.5,21.71212v1.75763h0c.00017.97065,2.45909,1.75752,5.49235,1.75752h.00006V21.71212Z" fill="#fdeb95"/><path d="M12.48485,19.95455v1.75762h0c-.00017.97065-2.45909,1.75753-5.49235,1.75753H6.99242L5.89394,21.71212l1.09848-1.75757Z" fill="#e68900"/><path d="M1.5,19.95455v1.75762h0c.00017.97065,2.45909,1.75753,5.49235,1.75753h.00006V19.95455Z" fill="#ffad00"/><path d="M12.48485,18.197V19.9546h0c-.00017.97064-2.45909,1.75752-5.49235,1.75752H6.99242L5.89394,19.95455,6.99242,18.197Z" fill="#ffce2a"/><path d="M1.5,18.197V19.9546h0c.00017.97064,2.45909,1.75752,5.49235,1.75752h.00006V18.197Z" fill="#fdeb95"/><path d="M12.48485,16.43939V18.197h0c-.00017.97065-2.45909,1.75753-5.49235,1.75753H6.99242L5.89394,18.197l1.09848-1.75758Z" fill="#e68900"/><path d="M1.5,16.43939V18.197h0c.00017.97065,2.45909,1.75753,5.49235,1.75753h.00006V16.43939Z" fill="#ffad00"/><path d="M6.99242,14.68182h0L5.89394,16.43939,6.99242,18.197h0c3.03335,0,5.49243-.78689,5.49243-1.75758S10.02583,14.68182,6.99242,14.68182Z" fill="#ffad00"/><path d="M1.5,16.43939c0,.97067,2.459,1.75758,5.49242,1.75758V14.68182C3.959,14.68182,1.5,15.4687,1.5,16.43939Z" fill="#ffce2a"/><path d="M6.99242,15.39583h0L5.89391,16.43939,6.99237,17.483h0c1.81716,0,3.29545-.46814,3.29545-1.04356S8.80958,15.39583,6.99242,15.39583Z" fill="#ffce2a"/><path d="M3.697,16.43939c0,.5754,1.4783,1.04355,3.29545,1.04356V15.39583C5.17525,15.39583,3.697,15.864,3.697,16.43939Z" fill="#fdeb95"/><path d="M27.02,23.98281v1.75763h0c-.00018.97065-2.45909,1.75753-5.49235,1.75753h-.00007L20.4291,25.74039l1.09848-1.75758Z" fill="#e68900"/><path d="M16.03516,23.98281v1.75763h0c.00018.97065,2.45909,1.75753,5.49235,1.75753h.00007V23.98281Z" fill="#ffad00"/><path d="M27.02,22.22524v1.75763h0c-.00018.97064-2.45909,1.75752-5.49235,1.75752h-.00007L20.4291,23.98281l1.09848-1.75757Z" fill="#ffce2a"/><path d="M16.03516,22.22524v1.75763h0c.00018.97064,2.45909,1.75752,5.49235,1.75752h.00007V22.22524Z" fill="#fdeb95"/><path d="M27.02,20.46766v1.75763h0c-.00018.97065-2.45909,1.75752-5.49235,1.75752h-.00007L20.4291,22.22524l1.09848-1.75758Z" fill="#e68900"/><path d="M16.03516,20.46766v1.75763h0c.00018.97065,2.45909,1.75752,5.49235,1.75752h.00007V20.46766Z" fill="#ffad00"/><path d="M27.02,18.71009v1.75762h0c-.00018.97065-2.45909,1.75753-5.49235,1.75753h-.00007L20.4291,20.46766l1.09848-1.75757Z" fill="#ffce2a"/><path d="M16.03516,18.71009v1.75762h0c.00018.97065,2.45909,1.75753,5.49235,1.75753h.00007V18.71009Z" fill="#fdeb95"/><path d="M27.02,16.95251v1.75763h0c-.00018.97065-2.45909,1.75752-5.49235,1.75752h-.00007L20.4291,18.71009l1.09848-1.75758Z" fill="#e68900"/><path d="M16.03516,16.95251v1.75763h0c.00018.97065,2.45909,1.75752,5.49235,1.75752h.00007V16.95251Z" fill="#ffad00"/><path d="M27.02,15.19494v1.75762h0c-.00018.97065-2.45909,1.75753-5.49235,1.75753h-.00007L20.4291,16.95251l1.09848-1.75757Z" fill="#ffce2a"/><path d="M16.03516,15.19494v1.75762h0c.00018.97065,2.45909,1.75753,5.49235,1.75753h.00007V15.19494Z" fill="#fdeb95"/><path d="M27.02,13.43736V15.195h0c-.00018.97065-2.45909,1.75752-5.49235,1.75752h-.00007L20.4291,15.19494l1.09848-1.75758Z" fill="#e68900"/><path d="M16.03516,13.43736V15.195h0c.00018.97065,2.45909,1.75752,5.49235,1.75752h.00007V13.43736Z" fill="#ffad00"/><path d="M21.52758,11.67978h0L20.4291,13.43736l1.09848,1.75758h0c3.03335,0,5.49242-.78689,5.49242-1.75758S24.561,11.67978,21.52758,11.67978Z" fill="#ffad00"/><path d="M16.03516,13.43736c0,.97067,2.459,1.75758,5.49242,1.75758V11.67978C18.49418,11.67978,16.03516,12.46667,16.03516,13.43736Z" fill="#ffce2a"/><path d="M21.52758,12.3938h0l-1.09851,1.04356,1.09845,1.04356h0c1.81716,0,3.29546-.46814,3.29546-1.04356S23.34474,12.3938,21.52758,12.3938Z" fill="#ffce2a"/><path d="M18.23212,13.43736c0,.5754,1.47829,1.04354,3.29545,1.04356V12.3938C19.71041,12.3938,18.23212,12.862,18.23212,13.43736Z" fill="#fdeb95"/></svg>