<svg xmlns="http://www.w3.org/2000/svg" xmlns:xlink="http://www.w3.org/1999/xlink" viewBox="0 0 48.36681 58.00032"><defs></defs><path d="M45.31146,27.38639a10.68884,10.68884,0,0,1-5.29155,1.34213c1.28713-3.83388-1.79869-5.74808-1.25413-9.923,1.55116,1.58416,2.59077-.69307,5.8581,1.8812,0,0,.75908-.31354.62706-1.56767a10.00381,10.00381,0,0,1-3.43235-4.32344,5.772,5.772,0,0,1-1.44759-.90342C38.89481,6.8098,32.79733,8.125,30.28963,2.00032c.90611,6.72066,6.0388,5.30432,7.44154,10.76906C32.186,5.84718,30.22388,9.074,27.737,3.65535c2.344,7.24215,4.32738,4.01325,7.73975,9.6819a9.49,9.49,0,0,0-3.77365.68277,3.30148,3.30148,0,0,0,2.72827,1.18812c-2.57426,2.31024-.088,6.634-5.74259,10.42907-1.18812,2.55227-9.21893,6.51267-15.33556,3.32234a2.80513,2.80513,0,0,0,1.84819,3.10231c-5.10452,2.79428.22,10.60509-6.8867,13.17936-.70408,6.8647-3.54237,5.25852-3.54237,8.38285A3.10693,3.10693,0,0,0,2,56.00032c7.19474-.297,2.44225-5.74259,13.99343-14.02644,5.14853-3.43235,6.46866-6.8977,14.35647-5.80859,0,0,4.12542-.495,6.53467-2.8713,1.43564.80859,4.19143-2.50825,7.65678-3.9604-.31353,4.8845-2.65677,4.8845-2.11222,6.73269a3.24332,3.24332,0,0,0-2.78329,1.69416c5.32455.61607,4.84051-3.52035,5.32455-5.54455a17.77731,17.77731,0,0,1,1.39715-3.74039A2.82652,2.82652,0,0,0,45.31146,27.38639Z"/></svg>