<svg xmlns="http://www.w3.org/2000/svg" viewBox="0 0 14 14"><path d="M2.7815,1.5c.70775,0,1.2815,.57375,1.2815,1.2815s-.57375,1.2815-1.2815,1.2815-1.2815-.57375-1.2815-1.2815c.00083-.70741,.57409-1.28067,1.2815-1.2815m0-1.5C1.24532,0,0,1.24532,0,2.7815s1.24532,2.7815,2.7815,2.7815,2.7815-1.24532,2.7815-2.7815h0c-.00154-1.53554-1.24596-2.77996-2.7815-2.7815Z"/><path d="M11.2185,9.937c.70775,0,1.2815,.57375,1.2815,1.2815s-.57375,1.2815-1.2815,1.2815-1.2815-.57375-1.2815-1.2815h0c.00083-.70741,.57409-1.28067,1.2815-1.2815m0-1.5c-1.53618,0-2.7815,1.24532-2.7815,2.7815s1.24532,2.7815,2.7815,2.7815,2.7815-1.24532,2.7815-2.7815c-.00154-1.53554-1.24596-2.77996-2.7815-2.7815Z"/><rect x="-2.14949" y="6.24999" width="18.29898" height="1.50001" transform="translate(-2.89949 7) rotate(-45)"/></svg>