<svg xmlns="http://www.w3.org/2000/svg" viewBox="0 0 20 20"><path d="M.54877,16.803a1.87326,1.87326,0,0,0,2.64962,2.64876L9.34791,13.3,6.69829,10.65251Z" fill="#010002"/><polygon points="15.918 5.404 18.597 4.019 19.999 1.308 18.691 0 15.982 1.404 14.595 4.08 11.337 7.342 12.658 8.666 15.918 5.404" fill="#010002"/><path d="M16.50507,12.51329l-.25224-.025a3.71489,3.71489,0,0,0-1.29482.24352L7.27013,5.04154a3.7164,3.7164,0,0,0,.24349-1.295l-.025-.25228A3.70844,3.70844,0,0,0,2.162.37466L4.65049,2.86357a1.22184,1.22184,0,0,1,.281.44959,1.24766,1.24766,0,0,1-2.04652,1.315L.39643,2.14051A3.70928,3.70928,0,0,0,3.51553,7.468l.25224.025a3.7434,3.7434,0,0,0,1.29482-.24225l7.68661,7.68907a3.773,3.773,0,0,0-.241,1.295l.02621.25228a3.73143,3.73143,0,0,0,3.71969,3.49424,3.66671,3.66671,0,0,0,1.60575-.37466l-2.48852-2.48891a1.27516,1.27516,0,0,1-.28346-.44831,1.24481,1.24481,0,0,1,1.16623-1.68341,1.22771,1.22771,0,0,1,.43452.08492,1.19785,1.19785,0,0,1,.44825.281l2.48852,2.48891A3.69442,3.69442,0,0,0,20,16.23487,3.73728,3.73728,0,0,0,16.50507,12.51329Z" fill="#010002"/></svg>