<svg xmlns="http://www.w3.org/2000/svg" viewBox="0 0 19 18"><path d="M9.5,5.06567a1.79444,1.79444,0,1,0,1.79443,1.79444A1.79441,1.79441,0,0,0,9.5,5.06567Z" opacity="0.65"/><path d="M9.5.5C4.54474.5.52777,4.075.52777,8.485S4.54474,16.46991,9.5,16.46991h.01117a18.49634,18.49634,0,0,0,3.38312-.59552l3.04272-1.834s2.51306-3.42858,2.53522-5.55535C18.47223,4.075,14.4552.5,9.5.5Zm3.82776,6.83319c-.32147,3.016-3.522,6.49738-3.522,6.49738a.6433.6433,0,0,1-.16736.1336l-.00275.00141L9.52759,14l-.10816-.03442-.00268-.00141a.6004.6004,0,0,1-.16736-.1336S6.00275,10.35535,5.67291,7.34009a3.81343,3.81343,0,0,1-.03308-.47992,3.85881,3.85881,0,1,1,7.68793.473Z" opacity="0.65"/><path d="M9.5,2c4.13551,0,7.5,2.89555,7.50011,6.43357a5.97934,5.97934,0,0,1-2.01041,4.406l-1.06658.94455.36925.89338-.002-.00149-.8649-.64563-1.01443.36854a8.4825,8.4825,0,0,1-2.911.51037c-4.13551,0-7.5-2.89555-7.5-6.45466S5.36449,2,9.5,2m0-2C4.25328,0,0,3.78527,0,8.45466s4.25328,8.45466,9.5,8.45466h.01181a10.4905,10.4905,0,0,0,3.58217-.63058,8.68664,8.68664,0,0,0,4.89187,1.72068L18.05157,18a3.68107,3.68107,0,0,0,.61951-.05251,11.6479,11.6479,0,0,1-2.35541-3.61063A7.9695,7.9695,0,0,0,19,8.45466C19,3.78531,14.74668,0,9.5,0Z"/></svg>