<svg xmlns="http://www.w3.org/2000/svg" viewBox="0 0 19 18"><path d="M9.5,5.06567a1.79444,1.79444,0,1,0,1.79443,1.79444A1.79441,1.79441,0,0,0,9.5,5.06567Z" opacity="0.65"/><path d="M9.875,13.75311l-.06921.07746a.6433.6433,0,0,1-.16736.1336l-.00275.00141L9.52759,14l-.10816-.03442-.00268-.00141a.6004.6004,0,0,1-.16736-.1336S6.00275,10.35535,5.67291,7.34009a3.81343,3.81343,0,0,1-.03308-.47992,3.85881,3.85881,0,1,1,7.68793.473,5.87448,5.87448,0,0,1-.18158.90888,4.06185,4.06185,0,0,1,1.91522-.491h.00116a4.09192,4.09192,0,0,1,3.27557,1.65027,3.993,3.993,0,0,0,.1341-.91638C18.47223,4.075,14.4552.5,9.5.5S.52777,4.075.52777,8.485,4.54474,16.46991,9.5,16.46991h.01117c.11011,0,.237-.0097.36383-.01953Z" opacity="0.65"/><path d="M18.43751,12.375h-.51919v-.51919a2.85582,2.85582,0,0,0-5.71164,0V12.375h-.51919a.56269.56269,0,0,0-.56249.56249v4.5A.56271.56271,0,0,0,11.68749,18h6.75A.56271.56271,0,0,0,19,17.43751v-4.5A.56269.56269,0,0,0,18.43751,12.375Zm-3.375,3.9375a1.10726,1.10726,0,1,1,.00063,0Zm1.73082-3.9375H13.33168v-.51919a1.73082,1.73082,0,0,1,3.46164,0Z"/><path d="M9.875,14.89343c-.125.00537-.24963.016-.37494.01587-4.13556,0-7.5-2.89557-7.5-6.45465S5.3645,2,9.5,2c4.06183,0,7.37207,2.795,7.48907,6.24689a4.10945,4.10945,0,0,1,1.80134,1.92877A7.96121,7.96121,0,0,0,19,8.45465C19,3.78534,14.7467,0,9.5,0S0,3.78528,0,8.45465,4.2533,16.9093,9.5,16.9093h.01184c.1214,0,.242-.01166.36316-.01587Z"/></svg>