<svg xmlns="http://www.w3.org/2000/svg" viewBox="0 0 1000 582.49172"><defs><style>.b{fill:#34a853;}.b,.c{stroke-width:0px;}.c{fill:#202124;}</style></defs><path class="b" d="m997.20681,560.42849c-.3268-2.04725-.63872-4.07069-.98039-6.09413-2.06488-12.55514-4.63501-24.9632-7.62117-37.20192-5.24436-21.37985-11.84052-42.2472-19.71449-62.45637-6.65564-17.11457-14.23256-33.76415-22.64116-49.90269-10.81551-20.72172-23.01257-40.61446-36.48744-59.53263-16.52051-23.18343-34.97205-44.90349-55.11744-64.91805-8.45321-8.4117-17.20348-16.52926-26.23629-24.30659-19.56578-16.89323-40.46885-32.27554-62.48616-46.02516.19332-.31793.35654-.65813.54986-.97606,10.08756-17.42956,20.2045-34.83681,30.29207-52.26635,9.86486-17.01639,19.72936-34.03248,29.59386-51.04857,7.10141-12.21345,14.18795-24.45142,21.24474-36.66503,1.67896-2.90101,3.00102-5.89948,3.99665-8.97119,2.76309-8.5567,2.88206-17.55241.66847-25.91419-.56473-2.07203-1.24807-4.09547-2.08012-6.07018-.83168-1.97457-1.79757-3.90055-2.89693-5.75329-3.77359-6.33834-9.16629-11.84783-15.9409-15.87024-5.98718-3.55924-12.68743-5.68015-19.55091-6.28961-2.88242-.24378-5.77935-.21941-8.6614.07313-2.37717.24378-4.73911.68259-7.08654,1.29205-8.34912,2.21843-16.10448,6.80156-22.13591,13.43243-2.16898,2.38906-4.13013,5.02191-5.80909,7.92293-7.08654,12.21361-14.17308,24.45157-21.24438,36.66503l-29.59422,51.04827c-10.08756,17.43043-20.2045,34.83665-30.29207,52.26783-1.09936,1.90013-2.21359,3.80175-3.31295,5.72864-1.53025-.6106-3.04564-1.21971-4.57589-1.80506-55.62232-21.20856-115.96925-32.81261-179.04952-32.81261-1.72321,0-3.43192,0-5.17.02436-56.08296.56069-109.9672,10.31199-160.24143,27.81581-5.80873,2.02344-11.55797,4.16871-17.26296,6.41203-1.02501-1.7798-2.07975-3.55959-3.09025-5.3394-10.08756-17.43058-20.20469-34.8368-30.29207-52.26723-9.86468-17.01609-19.72936-34.03218-29.59404-51.04827-7.10141-12.21346-14.18795-24.45143-21.24474-36.66488-1.69365-2.90116-3.63975-5.53401-5.80873-7.92307-6.03179-6.63086-13.78679-11.21398-22.13609-13.43241-2.34743-.60946-4.70955-1.04827-7.10141-1.29205-2.86719-.29254-5.7643-.31692-8.64635-.07314-6.86366.58508-13.56391,2.70599-19.56596,6.28961-6.77461,4.02242-12.12288,9.53189-15.92603,15.87023-1.09936,1.85274-2.07993,3.77873-2.89711,5.7533-.83186,1.97471-1.54494,3.99816-2.07975,6.07018-2.21377,8.36178-2.09481,17.35749.6536,25.91419,1.01032,3.07171,2.31769,6.07018,3.99647,8.97134,7.10123,12.21346,14.18777,24.45143,21.24456,36.66489,9.87955,17.01609,19.74423,34.03218,29.60891,51.04797,10.08738,17.43103,20.18981,34.8368,30.27738,52.26783.07417.14558.17827.29268.25244.43826-20.35321,12.6532-39.71116,26.67023-57.98444,42.00353-10.94935,9.19168-21.49737,18.8201-31.59962,28.88831-20.13051,20.01456-38.56737,41.73612-55.11744,64.91955-13.48956,18.91815-25.70149,38.78563-36.48726,59.53261-8.40878,16.13853-15.98551,32.78811-22.64116,49.90269-7.87397,20.20922-14.47013,41.07652-19.71449,62.45637-2.98615,12.23872-5.52654,24.62303-7.62135,37.20197-.34167,2.02344-.6536,4.07064-.9657,6.09409-1.1291,7.28856-2.07993,14.62764-2.88206,22.01422h1000c-.8023-7.38659-1.75296-14.72566-2.86719-22.01422l.07399-.04901Z"/><path class="c" d="m760.11354,444.18744c20.01154-13.32027,22.92334-44.13839,6.49206-68.83124-16.41605-24.69434-45.95078-33.91275-65.94746-20.59249-20.01154,13.32174-22.92334,44.13841-6.49243,68.83126,16.41641,24.6943,45.95115,33.91422,65.94782,20.59246Z"/><path class="c" d="m306.71076,423.68112c16.43092-24.6943,13.51912-55.51097-6.49243-68.83124-20.01154-13.32174-49.53123-4.10186-65.96251,20.59099-16.41623,24.69432-13.50443,55.511,6.49225,68.83126,20.01173,13.32172,49.54628,4.10184,65.96269-20.59101Z"/></svg>