<svg xmlns="http://www.w3.org/2000/svg" viewBox="0 0 100 100"><path d="M20.34562,1.951H0v42.252H10.98105V30.15608h9.36457A13.76873,13.76873,0,0,0,34.00223,16.05354v-.00006A13.76873,13.76873,0,0,0,20.34562,1.951ZM18.0602,21.41249H10.98105v-10.718H18.0602a5.23214,5.23214,0,0,1,5.18953,5.359A5.23214,5.23214,0,0,1,18.0602,21.41249Z" fill="#54bb46"/><path d="M86.34339,1.951H65.99777v42.252h10.981V30.15608h9.36457A13.76873,13.76873,0,0,0,100,16.05354v-.00006A13.76873,13.76873,0,0,0,86.34339,1.951ZM84.058,21.41249H76.97882v-10.718H84.058a5.23214,5.23214,0,0,1,5.18953,5.359A5.23214,5.23214,0,0,1,84.058,21.41249Z" fill="#f57930"/><rect x="42.22408" y="17.67001" width="10.98105" height="26.53289" fill="#fdb539"/><circle cx="47.7146" cy="6.29877" r="6.29877" fill="#fdb539"/><path d="M20.68007,55.7971H.33445V98.049H11.3155V84.00223h9.36457A13.76873,13.76873,0,0,0,34.33668,69.89969v-.00005A13.76873,13.76873,0,0,0,20.68007,55.7971ZM18.39465,75.25865H11.3155v-10.718h7.07915a5.36175,5.36175,0,0,1,0,10.718Z" fill="#e02a3f"/><path d="M42.55853,55.7971H53.53958V82.33H42.55853ZM48.04905,100a6.29878,6.29878,0,1,0-6.29877-6.29877A6.29878,6.29878,0,0,0,48.04905,100Z" fill="#8c2e88"/><polygon points="89.353 55.797 89.353 79.077 75.295 55.797 66.332 55.797 66.332 98.049 76.644 98.049 76.644 76.453 89.387 98.049 99.666 98.049 99.666 55.797 89.353 55.797" fill="#0093d7"/></svg>