<svg xmlns="http://www.w3.org/2000/svg" viewBox="0 0 200 120"><path d="M3.22279,119.45025c28.19311-49.676,74.54007-52.27687,56.80234,0H52.17059c11.79027-33.55083-6.39806-30.898-21.72567,0Z"/><ellipse cx="45.08331" cy="111.42666" rx="7.94556" ry="1.96363"/><path d="M0,117.33277c28.19311-49.676,74.54007-52.27688,56.80234,0H48.94781c11.79026-33.55083-6.39807-30.898-21.72568,0Z" fill="#f1001d"/><ellipse cx="41.86052" cy="109.30918" rx="7.94556" ry="1.96363" fill="#f1001d"/><path d="M62.96408,82.64838c9.415-4.16135,14.51268,3.58915,14.51268,3.58915s-4.6353,1.015-9.07693,6.78819A16.96805,16.96805,0,0,0,62.96408,82.64838Z"/><path d="M59.74129,80.53089c9.415-4.16135,14.51269,3.58916,14.51269,3.58916s-4.63531,1.015-9.07693,6.78819A16.968,16.968,0,0,0,59.74129,80.53089Z" fill="#f1001d"/><path d="M109.43651,94.40015C89.02859,79.454,67.77106,91.834,67.77106,104.52609c0,13.48969,18.06717,20.07848,38.19767,9.88319l-1.09236-5.66983C91.66411,113.681,85.78621,110.56,85.78621,104.17931c0-5.40975,9.51908-9.88319,20.58131-6.67549Z"/><path d="M106.21373,92.28266C85.80581,77.33651,64.54828,89.7165,64.54828,102.4086c0,13.48969,18.06716,20.07848,38.19766,9.88319l-1.09235-5.66983c-13.21227,4.9416-19.09016,1.82059-19.09016-4.56014,0-5.40974,9.51907-9.88319,20.58131-6.67549Z" fill="#f1001d"/><path d="M149.40277,110.248l6.3114-22.70086H142.0684l-.52875,1.999c-18.096-6.85875-33.50694,5.33075-33.50694,16.28217.3758,12.76255,16.67656,18.85217,28.56107,9.97274,1.68725,2.53054,5.332,5.66176,12.84368,1.7986l1.66454-6.0686C150.06166,111.98182,148.91729,112.05121,149.40277,110.248Zm-13.0453-1.10937c-8.00032,4.2609-13.72308,2.10139-12.10894-5.24283,1.588-7.2252,10.15887-10.03274,15.4529-7.39969Z"/><path d="M146.18,108.13045l6.31141-22.70086H138.84559l-.52875,1.999c-18.096-6.85875-33.50694,5.33075-33.50694,16.28217.3758,12.76255,16.67656,18.85217,28.56108,9.97274,1.68724,2.53054,5.332,5.66176,12.84368,1.7986l1.66453-6.0686C146.83886,109.86432,145.69449,109.93371,146.18,108.13045Zm-13.04529-1.10937c-8.00033,4.2609-13.72309,2.10139-12.10894-5.24283,1.588-7.2252,10.15887-10.03274,15.4529-7.39969Z" fill="#f1001d"/><path d="M174.16767,89.99943l.67129-2.45235H161.47064l-8.73882,31.92515h13.36832l6.00372-21.933c23.20431-9.31269,14.99389,12.69438,9.18518,21.933h11.39168C207.12274,98.90954,199.8025,82.99728,174.16767,89.99943Z"/><path d="M170.94488,87.882l.67129-2.45236H158.24786L149.509,117.35474h13.36831l6.00372-21.93305c23.20432-9.31268,14.99389,12.69438,9.18518,21.93305h11.39168C203.9,96.79206,196.57971,80.8798,170.94488,87.882Z" fill="#f1001d"/><path d="M22.35712,0a1.68233,1.68233,0,0,0-1.14048.44556C1.53,18.59845,0,32.18961,0,35.92275c0,12.81,11.20321,14.53708,22.1623,14.53708,7.86135,0,7.86135.75314,7.86135,1.70665,0,4.77909-8.44424,11.44511-22.19634,11.44511A1.68233,1.68233,0,0,0,6.43716,66.2414l10.089,14.80244a1.68156,1.68156,0,0,0,1.95222.63816c14.67535-5.2022,22.11636-15.39476,22.11636-30.29459,0-11.96613-14.22553-11.96613-20.3001-11.96613-9.30068-.2248-9.69433-1.4022-9.69433-4.04388,0-5.21657,11.15155-13.33437,18.18066-17.22587a1.6826,1.6826,0,0,0,.76114-2.06132L23.9328,1.093A1.68256,1.68256,0,0,0,22.35712,0Z" fill="#ffe600"/><path d="M22.35707,1.68235C4.10721,18.51039,1.68234,31.18986,1.68234,35.92274c0,10.69282,8.71591,12.85476,20.48,12.85476,8.47245,0,9.54368.87646,9.54368,3.389,0,5.95993-9.42682,13.12743-23.87868,13.12743l10.089,14.80245c17.80189-6.31052,20.9961-19.12632,20.9961-28.709,0-8.80356-8.74513-10.2838-18.61776-10.2838C11.41105,40.88935,8.918,39.8376,8.918,35.37739c0-8.16082,19.04841-18.69783,19.04841-18.69783Z" fill="#f1001d"/><path d="M73.11664,20.33933a1.68139,1.68139,0,0,0-.57872.1027l-7.65225,2.80388a1.68234,1.68234,0,0,0-1.02823,2.07737c.04081.13172,4.10376,13.26116,6.1742,20.96783,1.60165,5.96172-.19268,10.17495-4.92291,11.55941a10.301,10.301,0,0,1-2.85209.38883c-1.9424,0-8.40683-.62652-10.03891-8.688-1.90868-9.42772-5.57739-25.97557-5.61422-26.14161a1.68225,1.68225,0,0,0-2.02837-1.27312l-8.178,1.92767a1.68231,1.68231,0,0,0-1.23254,2.09642c.05918.20869,5.94031,20.94912,7.864,27.87431,1.87806,6.761,7.99979,14.65618,19.07178,14.65618a25.67035,25.67035,0,0,0,4.664-.44548c5.214-.9673,9.0744-3.33459,11.47392-7.0361,3.79521-5.85454,2.7752-13.29586,1.8294-17.21047-2.07762-8.599-5.28115-22.2258-5.31328-22.36244a1.68235,1.68235,0,0,0-1.63776-1.29739Z" fill="#ffe600"/><path d="M36.78312,25.70174s5.9193,20.87332,7.86643,27.883S53.548,68.98661,66.45749,66.59163,80.5353,53.098,78.43239,44.39427,73.1167,22.02165,73.1167,22.02165l-7.65225,2.80388s4.089,13.2016,6.1919,21.02909-1.28511,12.20855-6.07507,13.61049-13.08476-.05841-15.01243-9.57992-5.60776-26.11111-5.60776-26.11111Z" fill="#f1001d"/><path d="M80.94415,17.477a1.68232,1.68232,0,0,0-1.68228,1.68233V62.54154A1.68232,1.68232,0,0,0,80.86418,64.222l6.54239.31159c.02711.00129.05426.00193.08114.00193a1.68228,1.68228,0,0,0,1.66978-1.4867l1.4457-12.34592a28.00741,28.00741,0,0,0,14.47963,4.45684,20.25914,20.25914,0,0,0,18.83-12.3323,1.6823,1.6823,0,0,0,.10387-1.078l-3.58276-15.18768a1.68236,1.68236,0,0,0-.57274-.91634c-5.15023-4.20935-10.1395-6.16988-15.70158-6.16988a31.57879,31.57879,0,0,0-10.11717,1.85726l.02183-.18635a1.68233,1.68233,0,0,0-1.41086-1.8578L81.20425,17.49726a1.6822,1.6822,0,0,0-.2601-.02023ZM92.72142,32.61356A23.57221,23.57221,0,0,1,103.45791,29.803a13.80752,13.80752,0,0,1,8.24348,2.40521,6.97331,6.97331,0,0,1,2.99834,5.64366c0,3.933-3.90616,6.67991-9.49907,6.67991a23.50736,23.50736,0,0,1-13.32459-4.69927l.84535-7.219Z" fill="#ffe600"/><path d="M118.79655,26.948c-7.63468-6.23993-15.20422-7.69948-26.74409-3.08648l.34091-2.91078L80.9442,19.15936V62.54155l6.54238.31158L89.25041,47.7905c14.3806,10.27872,28.07175,5.55562,33.12891-5.65488ZM90.09137,40.60864l1.06115-9.06183c12.81015-7.12481,25.22954-2.21826,25.22954,6.30507C116.38206,46.3468,102.67151,50.15627,90.09137,40.60864Z" fill="#f1001d"/><path d="M141.84925,3.92157a1.68222,1.68222,0,0,0-1.03964.35966c-1.66053.90179-16.11407,7.43375-25.05034,11.4356a1.68233,1.68233,0,0,0-.94944,1.92312l10.44974,44.121a1.68231,1.68231,0,0,0,2.2647,1.17313l29.05134-11.68283a1.6823,1.6823,0,0,0,1.05465-1.56084V39.79906a1.68234,1.68234,0,0,0-2.40012-1.52152l-21.57249,10.177-1.695-7.06557,13.332-5.48615a1.68234,1.68234,0,0,0,.9081-2.21378l-2.648-6.23079a1.681,1.681,0,0,0-2.13052-.92037l-11.96537,4.41364-1.85868-7.74795,17.68356-4.27829a1.68232,1.68232,0,0,0,1.232-2.06066c-1.1404-4.36221-2.85735-10.94385-3.01606-11.5896a1.68612,1.68612,0,0,0-1.65047-1.35342Z" fill="#ffe600"/><path d="M132.50436,50.85872l-2.51352-10.47757L144.6545,34.347l-2.648-6.23081-13.74181,5.06891-2.69207-11.2219,19.31556-4.67313s-3.11534-11.91648-3.03753-11.68282-25.40376,11.64494-25.40376,11.64494l10.44974,44.121,29.05133-11.68283V39.79906Z" fill="#f1001d"/><path d="M155.7902,15.023a1.68238,1.68238,0,0,0-1.68223,1.6706l-.30964,44.35651a1.68236,1.68236,0,0,0,1.425,1.67427l6.54238,1.01244a1.68231,1.68231,0,0,0,1.926-1.44874L165.528,47.9548a25.98829,25.98829,0,0,0,14.568,4.73183,19.1182,19.1182,0,0,0,3.40877-.28873c2.78292,3.14866,3.29579,7.13276,1.736,13.10666a1.68235,1.68235,0,0,0,1.14692,2.03717l9.71625,2.898a1.68233,1.68233,0,0,0,2.14889-1.39347c.07064-.53865,1.554-12.55715-4.95326-20.871A16.56506,16.56506,0,0,0,200,34.65862c0-9.77483-9.296-17.72723-20.7224-17.72723a29.28346,29.28346,0,0,0-10.01107,1.84155l.0004-.00312a1.68229,1.68229,0,0,0-1.40819-1.87579l-11.808-1.85077a1.68225,1.68225,0,0,0-.26057-.02031Zm12.00693,15.21952a21.101,21.101,0,0,1,10.66507-3.01391,14.32951,14.32951,0,0,1,8.34592,2.39418,7.00707,7.00707,0,0,1,3.14853,5.71733c0,4.75277-4.89042,6.44619-9.4671,6.44619a22.41008,22.41008,0,0,1-13.5637-4.74322l.87128-6.80057Z" fill="#ffe600"/><path d="M198.31768,34.65862c0-11.03252-13.91488-21.12424-31.08738-13.23046l.36794-2.87211-11.808-1.85077-.30964,44.35652,6.54238,1.01244,2.19989-17.171c10.54044,8.48522,19.84175,5.644,19.84175,5.644,3.77741,3.69948,4.63411,8.37261,2.80388,15.38231l9.71625,2.898s1.73291-13.21779-5.822-21.00638A15.03683,15.03683,0,0,0,198.31768,34.65862ZM165.1396,37.747l1.0915-8.51967c11.66183-7.37775,25.40786-2.80479,25.40786,6.11272C191.639,45.163,174.91119,46.22655,165.1396,37.747Z" fill="#f1001d"/></svg>