<svg xmlns="http://www.w3.org/2000/svg" viewBox="0 0 13.34677 18"><path d="M0,0H5.60215Q9.43093,0,11.161,1.09034a3.79482,3.79482,0,0,1,1.73,3.46717,4.37192,4.37192,0,0,1-.75709,2.64863,3.0231,3.0231,0,0,1-2.01287,1.244V8.5734a3.96834,3.96834,0,0,1,2.46862,1.42752,4.64556,4.64556,0,0,1,.75709,2.78138,4.5815,4.5815,0,0,1-1.77928,3.83942A7.696,7.696,0,0,1,6.735,18H0ZM3.81618,7.13445H6.03309a4.04768,4.04768,0,0,0,2.24724-.481,1.79478,1.79478,0,0,0,.696-1.591,1.5929,1.5929,0,0,0-.75749-1.48621,4.86167,4.86167,0,0,0-2.39535-.45024H3.81618Zm0,3.02521v4.68908H6.3041a3.69132,3.69132,0,0,0,2.3276-.60307,2.22474,2.22474,0,0,0,.75157-1.84625q0-2.23936-3.20247-2.23976Z" fill="#323232"/></svg>