<svg xmlns="http://www.w3.org/2000/svg" viewBox="0 0 25.82318 18"><path d="M13.295,17.75477H11.2592V9.515H2.03581v8.23978H0V.24523H2.03581v7.455H11.2592V.24523H13.295Z" fill="#323232"/><path d="M25.28405,4.36742a3.98741,3.98741,0,0,1-.94031,2.74046,4.70791,4.70791,0,0,1-2.66536,1.42388v.09579A5.01314,5.01314,0,0,1,24.8047,9.96981a3.95228,3.95228,0,0,1,1.01848,2.8286,4.58975,4.58975,0,0,1-1.73693,3.8532A7.89628,7.89628,0,0,1,19.151,18a14.29341,14.29341,0,0,1-2.54581-.21,8.687,8.687,0,0,1-2.24579-.738V15.15838a11.48107,11.48107,0,0,0,4.864,1.14952q4.54,0,4.54023-3.55777,0-3.18591-5.00809-3.1861h-1.725V7.84741h1.74919A5.26814,5.26814,0,0,0,22.0263,6.9435a2.96711,2.96711,0,0,0,1.19819-2.509A2.47261,2.47261,0,0,0,22.344,2.42281a3.629,3.629,0,0,0-2.38986-.73071,7.375,7.375,0,0,0-2.16876.31152,9.70991,9.70991,0,0,0-2.324,1.14914L14.45516,1.81165A8.4075,8.4075,0,0,1,16.94081.4828,9.07023,9.07023,0,0,1,19.90543,0a6.06267,6.06267,0,0,1,3.96509,1.16677A3.92755,3.92755,0,0,1,25.28405,4.36742Z" fill="#323232"/></svg>