<svg xmlns="http://www.w3.org/2000/svg" viewBox="0 0 26.20393 18"><path d="M13.47863,17.75138H11.41471V9.39779H2.06392v8.35359H0V0H2.06392V7.558h9.35079V0h2.06392Z" fill="#323232"/><path d="M20.18,6.9116a6.52987,6.52987,0,0,1,4.41454,1.39071,4.76818,4.76818,0,0,1,1.60941,3.80737,5.49737,5.49737,0,0,1-1.75509,4.32363A7.008,7.008,0,0,1,19.60971,18a8.89014,8.89014,0,0,1-4.57847-.96146V15.09427a6.95156,6.95156,0,0,0,2.11326.85579,10.42,10.42,0,0,0,2.49007.30961A4.975,4.975,0,0,0,22.956,15.25276,3.61188,3.61188,0,0,0,24.1404,12.34q0-3.713-4.55478-3.713a18.1462,18.1462,0,0,0-3.08481.352l-1.04459-.66777L16.124,0h8.82907V1.86464H17.848l-.44945,5.32588A14.18764,14.18764,0,0,1,20.18,6.9116Z" fill="#323232"/></svg>