<svg xmlns="http://www.w3.org/2000/svg" viewBox="0 0 18 18"><path d="M1.41909,3.51788a2.31611,2.31611,0,0,1,.60047-1.47027c.44892-.45,1.6667-.9483,2.23345-.3836L9.55385,6.978a2.8037,2.8037,0,0,0,.11671-.7998A2.72864,2.72864,0,0,0,8.87033,4.24L5.27663.63813C4.19689-.444,2.051-.03793.99483,1.02059a3.62576,3.62576,0,0,0-.99324,2.4838A2.46182,2.46182,0,0,0,.65817,5.26824L4.253,8.87015a2.74953,2.74953,0,0,0,2.7318.684l-5.302-5.31289A.99338.99338,0,0,1,1.41909,3.51788Z" fill="#323232"/><path d="M17.34174,12.73083,13.748,9.12888a2.754,2.754,0,0,0-2.734-.684l5.303,5.314a.99257.99257,0,0,1,.26263.72331,2.33075,2.33075,0,0,1-.5982,1.47249c-.44892.4477-1.66781.9483-2.23346.3836L8.44719,11.021a2.80323,2.80323,0,0,0-.11671.79979,2.73016,2.73016,0,0,0,.79911,1.93933L12.72221,17.362c1.0808,1.08216,3.22674.67606,4.28059-.38473a3.61769,3.61769,0,0,0,.99552-2.48265A2.45514,2.45514,0,0,0,17.34174,12.73083Z" fill="#323232"/><path d="M5.16434,5.15462a.75888.75888,0,0,0-.00113,1.072l6.60272,6.61778a.758.758,0,0,0,1.0696-1.07427L6.2328,5.15349a.75509.75509,0,0,0-1.068.00067Z" fill="#323232"/></svg>