<svg xmlns="http://www.w3.org/2000/svg" viewBox="0 0 239.83429 140.92987"><polygon points="76.346 0 0 140.93 163.487 140.93 239.834 0 76.346 0" fill="#60909a" fill-rule="evenodd"/><path d="M5.09643,73.19875c-6.96836,0-14.77659,3.85366-18.50068,10.06588h-.24216V50.45816H-27.341l-.00092.0018v88.737h12.97627v-8.82816h.2376c4.086,8.45369,13.096,10.561,21.50555,10.561,18.38368,0,26.79232-16.28083,26.79232-33.54915C34.16984,88.61356,24.67553,73.19875,5.09643,73.19875Zm-1.804,56.54985c-11.04985,0-17.41957-9.69951-17.41957-22.62083,0-13.66948,5.89022-22.74307,17.41758-22.74415l-.00161,0h.0036l-.002,0c11.28731.00108,17.174,11.06474,17.183,22.74415C20.47347,118.31261,15.78888,129.7486,3.29246,129.7486Z" transform="translate(76.3457)" fill="#fff" fill-rule="evenodd"/><path d="M70.50148,84.38447c7.56882,0,13.09327,4.22821,14.17526,12.058l.02251.00092H98.37134c-1.317-15.78483-13.57484-23.2411-27.99046-23.2411-20.42352,0-30.63525,15.16279-30.63525,34.54927,0,18.88956,10.69154,33.17829,30.15452,33.17829,15.97837,0,25.948-9.19634,28.47119-25.84984H84.67674c-1.32416,9.19635-6.84861,14.67129-14.77659,14.67129-11.89509,0-16.45907-11.31089-16.45907-21.99974C53.44108,88.23909,63.40979,84.38447,70.50148,84.38447Z" transform="translate(76.3457)" fill="#fff" fill-rule="evenodd"/></svg>