<svg xmlns="http://www.w3.org/2000/svg" viewBox="0 0 26.00001 22.0005"><path d="M18.8,2A5.2059,5.2059,0,0,1,24,7.2c0,8.03615-8.6664,11.81257-11.0031,12.68421C10.65064,19.01706,2,15.27059,2,7.2A5.20589,5.20589,0,0,1,7.2,2a5.14133,5.14133,0,0,1,4.186,2.13418L13,6.3399l1.614-2.20572A5.14133,5.14133,0,0,1,18.8,2m0-2A7.17081,7.17081,0,0,0,13,2.95312,7.19064,7.19064,0,0,0,0,7.2C0,18.08331,13,22,13,22S26,18.08331,26,7.2A7.2,7.2,0,0,0,18.8,0Z" transform="translate(0.00001 0.0005)" fill="none"/><path d="M2.44476,12.8C5.31262,18.00745,11.57861,20.44946,13,20.94629c1.42108-.49689,7.68774-2.93915,10.55554-8.1463Z" transform="translate(0.00001 0.0005)"/></svg>