<svg xmlns="http://www.w3.org/2000/svg" viewBox="0 0 26.00001 22.0005"><path d="M18.8,2A5.2059,5.2059,0,0,1,24,7.2c0,8.03615-8.6664,11.81257-11.0031,12.68421C10.65064,19.01706,2,15.27059,2,7.2A5.20589,5.20589,0,0,1,7.2,2a5.14133,5.14133,0,0,1,4.186,2.13418L13,6.3399l1.614-2.20572A5.14133,5.14133,0,0,1,18.8,2m0-2A7.17081,7.17081,0,0,0,13,2.95312,7.19064,7.19064,0,0,0,0,7.2C0,18.08331,13,22,13,22S26,18.08331,26,7.2A7.2,7.2,0,0,0,18.8,0Z" transform="translate(0.00001 0.0005)" fill="none"/><path d="M1,7.19873c0,9.13135,10.14209,13.09815,12,13.74756,1.85742-.64941,12-4.61621,12-13.74609A6.17105,6.17105,0,0,0,24.78308,5.6H1.21661A6.15242,6.15242,0,0,0,1,7.19873Z" transform="translate(0.00001 0.0005)"/></svg>