<svg xmlns="http://www.w3.org/2000/svg" viewBox="0 0 18 18"><path d="M17.19677,11.64045c1.24376-2.902,1.87341-8.23008-4.57533-10.99408S.07691,4.68437.00007,7.83209C-.01534,10.24278,2.641,9.09124,2.87126,10.335c.783,3.51625-3.90006,3.163-2.05759,5.09772C2.99392,17.76665,13.097,21.20634,17.19677,11.64045ZM3.96146,8.385a1.75406,1.75406,0,0,1,1.382-3.22446,1.72215,1.72215,0,0,1,.92121,2.30323A1.79839,1.79839,0,0,1,3.96146,8.385ZM8.10723,3.16444a1.754,1.754,0,1,1,3.22437,1.382,1.754,1.754,0,1,1-3.22437-1.382ZM5.95735,15.60171a1.75406,1.75406,0,0,1,1.382-3.22446,1.72215,1.72215,0,0,1,.9212,2.30323A1.79839,1.79839,0,0,1,5.95735,15.60171Zm7.06317-9.05912a1.754,1.754,0,1,1,3.22437,1.382,1.754,1.754,0,1,1-3.22437-1.382Zm-1.38206,7.67732a1.79846,1.79846,0,0,1-.9212-2.30322,1.754,1.754,0,1,1,3.22436,1.382A1.79837,1.79837,0,0,1,11.63846,14.21991Z" fill="#444"/></svg>