<svg xmlns="http://www.w3.org/2000/svg" viewBox="0 0 26.96912 18"><path d="M13.99763,18H11.08412V9.99448H2.90146V18H0V.24862H2.90146V7.50829h8.18266V.24862h2.91351Z" fill="#323232"/><path d="M26.96912,18H14.93441V15.8409l4.57886-4.60178a38.91743,38.91743,0,0,0,2.69014-2.94419,7.02565,7.02565,0,0,0,.96534-1.63311,4.4015,4.4015,0,0,0,.30378-1.63933A2.49878,2.49878,0,0,0,22.75,3.12871a2.76956,2.76956,0,0,0-1.99789-.69225,5.32624,5.32624,0,0,0-1.97341.37643,9.2505,9.2505,0,0,0-2.20455,1.35963L15.03192,2.29118A9.96,9.96,0,0,1,17.91007.52132,8.44156,8.44156,0,0,1,20.88534,0a5.857,5.857,0,0,1,3.97091,1.29282A4.36626,4.36626,0,0,1,26.3499,4.77037a6.0988,6.0988,0,0,1-.4312,2.28225,9.27,9.27,0,0,1-1.32389,2.22746A30.24819,30.24819,0,0,1,21.625,12.3816l-3.08521,2.98615v.1212h8.42935Z" fill="#323232"/></svg>