<svg xmlns="http://www.w3.org/2000/svg" viewBox="0 0 26.458 18"><path d="M13.80692,17.75477H10.93311V9.85831H2.86193v7.89646H0V.24523H2.86193V7.406h8.07118V.24523h2.87381Z" fill="#323232"/><path d="M25.943,4.27278a4.05133,4.05133,0,0,1-.97019,2.77073,4.88365,4.88365,0,0,1-2.73127,1.49017v.09579a5.28678,5.28678,0,0,1,3.16234,1.31237A3.75425,3.75425,0,0,1,26.458,12.72752a4.63043,4.63043,0,0,1-1.78483,3.90072A8.18724,8.18724,0,0,1,19.5942,18a11.4149,11.4149,0,0,1-4.91115-.94836V14.5453a11.22635,11.22635,0,0,0,2.36.85026,10.24753,10.24753,0,0,0,2.396.29926A5.05084,5.05084,0,0,0,22.4818,14.94a2.73214,2.73214,0,0,0,1.0066-2.337,2.22455,2.22455,0,0,0-1.11427-2.0611,7.11516,7.11516,0,0,0-3.498-.65906H17.35454V7.60218h1.54535q4.19288,0,4.19307-2.89948a2.13828,2.13828,0,0,0-.73071-1.73731,3.29147,3.29147,0,0,0-2.15651-.61117,6.529,6.529,0,0,0-1.917.28164,9.08618,9.08618,0,0,0-2.18026,1.09549L14.731,1.76873A9.19634,9.19634,0,0,1,20.32491,0a6.65922,6.65922,0,0,1,4.13254,1.13726A3.73039,3.73039,0,0,1,25.943,4.27278Z" fill="#323232"/></svg>