<svg xmlns="http://www.w3.org/2000/svg" viewBox="0 0 26.77488 18"><path d="M13.99763,17.75138H11.08412V9.74586H2.90146v8.00552H0V0H2.90146V7.25967h8.18266V0h2.91351Z" fill="#323232"/><path d="M20.9572,6.663a6.08678,6.08678,0,0,1,4.25061,1.42179,4.97237,4.97237,0,0,1,1.56707,3.87612,5.66365,5.66365,0,0,1-1.77917,4.44135A7.31523,7.31523,0,0,1,19.93787,18a9.53557,9.53557,0,0,1-4.6752-.96184v-2.5903a8.57763,8.57763,0,0,0,2.25893.862,10.26742,10.26742,0,0,0,2.36849.30339,4.40968,4.40968,0,0,0,2.93914-.86123,3.13571,3.13571,0,0,0,1.00807-2.52348q0-3.17863-4.05676-3.17883a10.63012,10.63012,0,0,0-1.409.11538q-.83793.11536-1.46957.26066L15.62666,8.6733,16.30687,0h9.22919V2.53591H18.81947l-.4009,4.394q.4248-.07226,1.03837-.16976A9.83024,9.83024,0,0,1,20.9572,6.663Z" fill="#323232"/></svg>