<svg xmlns="http://www.w3.org/2000/svg" viewBox="0 0 26.06266 18"><path d="M13.295,17.75477H11.2592V9.515H2.03581v8.23978H0V.24523H2.03581v7.455H11.2592V.24523H13.295Z" fill="#323232"/><path d="M14.63487,10.27559q0-5.16136,2.0063-7.71867A7.08611,7.08611,0,0,1,22.57654,0,7.90711,7.90711,0,0,1,24.7089.228v1.7147a6.822,6.822,0,0,0-2.10822-.29964,5.32469,5.32469,0,0,0-4.30075,1.75226q-1.48577,1.75245-1.62926,5.50813h.14369A4.58571,4.58571,0,0,1,20.9833,6.842a4.89523,4.89523,0,0,1,3.71947,1.42618,5.37831,5.37831,0,0,1,1.35989,3.87121,5.97191,5.97191,0,0,1-1.49132,4.29653A5.30615,5.30615,0,0,1,20.54035,18a5.1803,5.1803,0,0,1-4.31224-2.04194A9.03061,9.03061,0,0,1,14.63487,10.27559Zm5.88172,6.03231a3.32714,3.32714,0,0,0,2.64161-1.0725,4.55988,4.55988,0,0,0,.94069-3.09758,3.99332,3.99332,0,0,0-.87479-2.73166,3.29519,3.29519,0,0,0-2.61171-.99472,4.40722,4.40722,0,0,0-1.9768.44334,3.66133,3.66133,0,0,0-1.43192,1.22232,2.82327,2.82327,0,0,0-.533,1.61738,5.5473,5.5473,0,0,0,.479,2.301,4.05289,4.05289,0,0,0,1.35989,1.68942A3.389,3.389,0,0,0,20.51659,16.3079Z" fill="#323232"/></svg>