<svg xmlns="http://www.w3.org/2000/svg" viewBox="0 0 26.71012 18"><path d="M13.82576,17.75443H10.948V9.8472H2.86583v7.90723H0V.221H2.86583V7.39154H10.948V.221h2.87773Z" fill="#323232"/><path d="M14.79939,10.28922Q14.79939.00019,23.18356,0a10.43518,10.43518,0,0,1,2.23081.20336V2.54775a7.624,7.624,0,0,0-2.1111-.264,5.52873,5.52873,0,0,0-4.23448,1.51215A7.34473,7.34473,0,0,0,17.53323,8.6447h.14389a3.86052,3.86052,0,0,1,1.58352-1.50525,5.1051,5.1051,0,0,1,2.39926-.53372,4.77372,4.77372,0,0,1,3.7184,1.46342,5.67364,5.67364,0,0,1,1.33182,3.96973,6.0227,6.0227,0,0,1-1.54131,4.35995A5.56218,5.56218,0,0,1,20.96464,18a5.86841,5.86841,0,0,1-3.27448-.90514,5.77864,5.77864,0,0,1-2.141-2.6383A10.45955,10.45955,0,0,1,14.79939,10.28922Zm6.11728,5.3779a2.75983,2.75983,0,0,0,2.23773-.93584,4.05259,4.05259,0,0,0,.78581-2.6759,3.54125,3.54125,0,0,0-.73785-2.37547,2.75133,2.75133,0,0,0-2.21393-.86408,3.65433,3.65433,0,0,0-1.67983.39022,3.08516,3.08516,0,0,0-1.21172,1.06782A2.49939,2.49939,0,0,0,17.653,11.6594a4.44445,4.44445,0,0,0,.9178,2.85011A2.86355,2.86355,0,0,0,20.91667,15.66712Z" fill="#323232"/></svg>