<svg xmlns="http://www.w3.org/2000/svg" viewBox="0 0 18 18"><path d="M1.41776,3.51788a2.31593,2.31593,0,0,1,.60058-1.47026c.449-.45,1.667-.9483,2.23386-.3836L9.554,6.978a2.80314,2.80314,0,0,0,.11673-.7998,2.72839,2.72839,0,0,0-.80038-1.93819L5.276.63814C4.19607-.444,2.04977-.03792.99343,1.0206A3.62542,3.62542,0,0,0,0,3.50439,2.4616,2.4616,0,0,0,.6567,5.26824L4.2522,8.87015a2.75035,2.75035,0,0,0,2.73229.68395L1.68157,4.24122A.99325.99325,0,0,1,1.41776,3.51788Z" fill="#323232"/><path d="M17.3433,12.73082,13.74893,9.12888a2.75489,2.75489,0,0,0-2.73451-.684l5.304,5.314a.99243.99243,0,0,1,.26267.72331,2.33051,2.33051,0,0,1-.59831,1.47248c-.449.4477-1.66811.9483-2.23386.3836L8.44714,11.021a2.80257,2.80257,0,0,0-.11673.79979,2.7299,2.7299,0,0,0,.79925,1.93933L12.72293,17.362c1.081,1.08216,3.22733.67606,4.28137-.38473A3.61732,3.61732,0,0,0,18,14.49463,2.45487,2.45487,0,0,0,17.3433,12.73082Z" fill="#323232"/><path d="M5.16369,5.15462a.75879.75879,0,0,0-.00113,1.072l6.60392,6.61777a.758.758,0,0,0,1.06979-1.07427L6.23235,5.15349A.75533.75533,0,0,0,5.16369,5.15462Z" fill="#323232"/></svg>