<svg xmlns="http://www.w3.org/2000/svg" viewBox="0 0 30.28846 17.99994"><g opacity="0.5"><path d="M18.81849.975H11.47a6.6875,6.6875,0,1,0,7.34852,0Z" fill="#323232"/></g><path d="M15.14423,1.5A15.74063,15.74063,0,0,1,28.55538,8.99994a15.7406,15.7406,0,0,1-26.8223,0A15.74063,15.74063,0,0,1,15.14423,1.5m0-1.5A17.23284,17.23284,0,0,0,0,8.99994a17.24154,17.24154,0,0,0,30.28846,0A17.23284,17.23284,0,0,0,15.14423,0Z"/><path d="M15.14423,5.05976a1.5,1.5,0,1,1-1.5,1.5,1.5017,1.5017,0,0,1,1.5-1.5m0-1a2.5,2.5,0,1,0,2.5,2.5,2.5,2.5,0,0,0-2.5-2.5Z"/><path d="M20.0141.975H17.74244a6.1667,6.1667,0,1,1-5.19642,0H10.27436a7.4167,7.4167,0,1,0,9.73974,0Z"/></svg>