<svg xmlns="http://www.w3.org/2000/svg" viewBox="0 0 18 10.69904"><path d="M11.18356.57943H6.81649a3.97428,3.97428,0,1,0,4.36712,0Z" transform="translate(-0.00002 -0.00002)" fill="#323232" opacity="0.5"/><path d="M9.00005,3.39836H9a.5.5,0,1,1-.5.5.49786.49786,0,0,1,.5-.5m0-1H9a1.5,1.5,0,1,0,1.5,1.5,1.5,1.5,0,0,0-1.5-1.5Z" transform="translate(-0.00002 -0.00002)" fill="#323232"/><path d="M11.8941.57943h-1.35a3.66479,3.66479,0,1,1-3.08816,0h-1.35a4.4075,4.4075,0,1,0,5.7882,0Z" transform="translate(-0.00002 -0.00002)"/><path d="M9.00313,0H8.9969A10.24068,10.24068,0,0,0,0,5.34853a10.24422,10.24422,0,0,0,9.00909,5.35052A10.20072,10.20072,0,0,0,13.89784,9.4507,10.24661,10.24661,0,0,0,18,5.34853,10.2416,10.2416,0,0,0,9.00313,0ZM9,1.5h.00311a8.72242,8.72242,0,0,1,2.37713.34076,3.12536,3.12536,0,0,1,.77741,2.063,3.15769,3.15769,0,0,1-6.31537,0,3.12529,3.12529,0,0,1,.777-2.06257A8.732,8.732,0,0,1,9,1.5ZM13.1808,8.1332A8.75587,8.75587,0,0,1,9.00911,9.19905,8.75005,8.75005,0,0,1,1.75319,5.34828,8.72631,8.72631,0,0,1,4.82185,2.56533,4.34869,4.34869,0,0,0,4.5923,3.90377a4.40769,4.40769,0,0,0,8.81537,0A4.35076,4.35076,0,0,0,13.17805,2.565,8.7281,8.7281,0,0,1,16.2469,5.34835,8.72511,8.72511,0,0,1,13.1808,8.1332Z" transform="translate(-0.00002 -0.00002)" fill="#323232"/></svg>