<svg xmlns="http://www.w3.org/2000/svg" viewBox="0 0 17.42922 18"><path d="M12.26882,12.31858H6.85123L5.73992,13.68086,4.49,15.16593a4.44151,4.44151,0,0,0-.5318.88191,1.5319,1.5319,0,0,0-.12942.60564.76165.76165,0,0,0,.33061.58615,1.90214,1.90214,0,0,0,1.09556.309V18H0l.12984-.45133a3.01192,3.01192,0,0,0,1.24447-.49944,13.73,13.73,0,0,0,2.087-2.16953L15.93254,0h.58407l-.57246,14.40224q-.03858,1.12874-.03816,1.366a1.98233,1.98233,0,0,0,.35135,1.30587,1.65892,1.65892,0,0,0,1.17188.47455L17.29979,18H9.6936l.14311-.45133a6.90873,6.90873,0,0,0,1.29923-.18335,1.66419,1.66419,0,0,0,.66247-.76618,5.38087,5.38087,0,0,0,.36421-2.02392Zm0-1.06194L12.614,5.51258,7.74559,11.25664Z" fill="#323232"/></svg>