<svg xmlns="http://www.w3.org/2000/svg" viewBox="0 0 18.00001 12.59876"><path d="M9,1.5H9a49.35118,49.35118,0,0,1,6.64188.32337.76041.76041,0,0,1,.52054.489,22.105,22.105,0,0,1,.33716,3.99657,22.03838,22.03838,0,0,1-.33715,3.97748.75882.75882,0,0,1-.51741.48816A49.26438,49.26438,0,0,1,9,11.09876a49.38789,49.38789,0,0,1-6.64189-.32336.76043.76043,0,0,1-.52054-.489,22.10445,22.10445,0,0,1-.33717-3.99654,22.03862,22.03862,0,0,1,.33718-3.97752.75838.75838,0,0,1,.51666-.48793A49.28116,49.28116,0,0,1,9,1.5M9,0H9ZM9,0A53.93008,53.93008,0,0,0,1.9676.3751a2.25773,2.25773,0,0,0-1.592,1.592A23.48169,23.48169,0,0,0,.00047,6.29938a23.48169,23.48169,0,0,0,.37511,4.33226,2.25771,2.25771,0,0,0,1.592,1.592A53.95423,53.95423,0,0,0,9,12.59876a53.932,53.932,0,0,0,7.0324-.3751,2.25776,2.25776,0,0,0,1.592-1.592,23.48255,23.48255,0,0,0,.3751-4.33226,23.48255,23.48255,0,0,0-.3751-4.33226,2.25773,2.25773,0,0,0-1.592-1.592A53.90744,53.90744,0,0,0,9,0Z" fill="#323232"/><polygon points="7.202 9 7.202 3.599 11.878 6.299 7.202 9" fill="#323232"/></svg>