<svg xmlns="http://www.w3.org/2000/svg" viewBox="0 0 25.71545 18"><path d="M12.85776,1.5H12.8577c3.03375.00011,8.339.13187,9.65716.48429a1.7222,1.7222,0,0,1,1.21558,1.21357,31.01294,31.01294,0,0,1,.485,5.802,31.026,31.026,0,0,1-.48427,5.7996A1.72228,1.72228,0,0,1,22.51759,16.015c-1.32092.35315-6.62614.48491-9.65986.485-3.03192,0-8.33572-.13173-9.65713-.48429A1.7222,1.7222,0,0,1,1.985,14.80214,31.013,31.013,0,0,1,1.5,9.00019a31.02611,31.02611,0,0,1,.48428-5.7996A1.722,1.722,0,0,1,3.19714,1.98521c1.32413-.35328,6.6283-.4851,9.66062-.48521m0-1.5S4.81908,0,2.81046.53591A3.22569,3.22569,0,0,0,.53591,2.81045,33.54769,33.54769,0,0,0,0,9a33.54769,33.54769,0,0,0,.53591,6.18955,3.22564,3.22564,0,0,0,2.27455,2.27454C4.81908,18,12.85773,18,12.85773,18s8.04272,0,10.04727-.53591a3.22569,3.22569,0,0,0,2.27455-2.27454A33.5483,33.5483,0,0,0,25.71545,9a33.5483,33.5483,0,0,0-.5359-6.18955A3.22564,3.22564,0,0,0,22.905.53591C20.90045,0,12.85773,0,12.85773,0Z" fill="#323232"/><polygon points="10.289 12.858 10.289 5.142 16.969 9 10.289 12.858" fill="#323232"/></svg>