<svg xmlns="http://www.w3.org/2000/svg" xmlns:xlink="http://www.w3.org/1999/xlink" viewBox="0 0 18 15.58317"><defs><linearGradient id="a" x1="9" y1="15.58317" x2="9" gradientUnits="userSpaceOnUse"><stop offset="0" stop-color="#b83737"/><stop offset="1" stop-color="#eb4646"/></linearGradient><linearGradient id="b" x1="9" y1="14.53877" x2="9" y2="1" gradientUnits="userSpaceOnUse"><stop offset="0" stop-color="#d13e3e"/><stop offset="1" stop-color="#f74a4a"/></linearGradient></defs><title>donate_bar</title><path d="M5.42144,0h0A5.385,5.385,0,0,0,2.228,1.04243,5.44141,5.44141,0,0,0,0,5.43238C0,12.787,8.35582,15.38909,8.71152,15.49626L9,15.58317l.28848-.08691C9.64418,15.38909,18,12.787,18,5.43108A5.42514,5.42514,0,0,0,8.99907,1.34552,5.45069,5.45069,0,0,0,5.42144,0Z" fill="url(#a)"/><path d="M12.56924,1.00031A4.4128,4.4128,0,0,0,9,2.81762,4.425,4.425,0,0,0,1,5.43108c0,6.69742,8,9.10769,8,9.10769s8-2.41027,8-9.10769a4.43076,4.43076,0,0,0-4.43076-4.43077Z" fill="url(#b)"/></svg>