<svg xmlns="http://www.w3.org/2000/svg" viewBox="0 0 32 32"><path d="M18.75,21.81818v1.81824h0c-.00018,1.00412-2.54388,1.81813-5.68174,1.81813h-.00007l-1.13636-1.81819,1.13636-1.81818Z" fill="#ffce2a"/><path d="M7.38637,21.81818v1.81824h0c.00018,1.00412,2.54389,1.81813,5.68174,1.81813h.00007V21.81818Z" fill="#fdeb95"/><path d="M18.75,20v1.81823h0c-.00018,1.00412-2.54388,1.81813-5.68174,1.81813h-.00007l-1.13636-1.81818L13.06819,20Z" fill="#e68900"/><path d="M7.38637,20v1.81823h0c.00018,1.00412,2.54389,1.81813,5.68174,1.81813h.00007V20Z" fill="#ffad00"/><path d="M18.75,18.18182v1.81823h0c-.00018,1.00412-2.54388,1.81813-5.68174,1.81813h-.00007L11.93183,20l1.13636-1.81818Z" fill="#ffce2a"/><path d="M7.38637,18.18182v1.81823h0c.00018,1.00412,2.54389,1.81813,5.68174,1.81813h.00007V18.18182Z" fill="#fdeb95"/><path d="M18.75,16.36364v1.81823h0C18.74982,19.186,16.20612,20,13.06826,20h-.00007l-1.13636-1.81818,1.13636-1.81818Z" fill="#e68900"/><path d="M7.38637,16.36364v1.81823h0C7.38656,19.186,9.93027,20,13.06812,20h.00007V16.36364Z" fill="#ffad00"/><path d="M18.75,14.54545v1.81824h0c-.00018,1.00412-2.54388,1.81813-5.68174,1.81813h-.00007l-1.13636-1.81818,1.13636-1.81819Z" fill="#ffce2a"/><path d="M7.38637,14.54545v1.81824h0c.00018,1.00412,2.54389,1.81813,5.68174,1.81813h.00007V14.54545Z" fill="#fdeb95"/><path d="M18.75,12.72727v1.81824h0c-.00018,1.00412-2.54388,1.81813-5.68174,1.81813h-.00007l-1.13636-1.81819,1.13636-1.81818Z" fill="#e68900"/><path d="M7.38637,12.72727v1.81824h0c.00018,1.00412,2.54389,1.81813,5.68174,1.81813h.00007V12.72727Z" fill="#ffad00"/><path d="M18.75,10.90909v1.81823h0c-.00018,1.00412-2.54388,1.81813-5.68174,1.81813h-.00007l-1.13636-1.81818,1.13636-1.81818Z" fill="#ffce2a"/><path d="M7.38637,10.90909v1.81823h0c.00018,1.00412,2.54389,1.81813,5.68174,1.81813h.00007V10.90909Z" fill="#fdeb95"/><path d="M18.75,9.09091v1.81823h0c-.00018,1.00412-2.54388,1.81813-5.68174,1.81813h-.00007l-1.13636-1.81818,1.13636-1.81818Z" fill="#e68900"/><path d="M7.38637,9.09091v1.81823h0c.00018,1.00412,2.54389,1.81813,5.68174,1.81813h.00007V9.09091Z" fill="#ffad00"/><path d="M18.75,7.27273V9.091h0c-.00018,1.00412-2.54388,1.81813-5.68174,1.81813h-.00007L11.93183,9.09091l1.13636-1.81818Z" fill="#ffce2a"/><path d="M7.38637,7.27273V9.091h0c.00018,1.00412,2.54389,1.81813,5.68174,1.81813h.00007V7.27273Z" fill="#fdeb95"/><path d="M18.75,5.45455V7.27278h0c-.00018,1.00412-2.54388,1.81813-5.68174,1.81813h-.00007L11.93183,7.27273l1.13636-1.81818Z" fill="#e68900"/><path d="M7.38637,5.45455V7.27278h0c.00018,1.00412,2.54389,1.81813,5.68174,1.81813h.00007V5.45455Z" fill="#ffad00"/><path d="M18.75,3.63636V5.4546h0c-.00018,1.00412-2.54388,1.81813-5.68174,1.81813h-.00007L11.93183,5.45455l1.13636-1.81819Z" fill="#ffce2a"/><path d="M7.38637,3.63636V5.4546h0c.00018,1.00412,2.54389,1.81813,5.68174,1.81813h.00007V3.63636Z" fill="#fdeb95"/><path d="M18.75,1.81818V3.63642h0c-.00018,1.00412-2.54388,1.81813-5.68174,1.81813h-.00007L11.93183,3.63636l1.13636-1.81818Z" fill="#e68900"/><path d="M7.38637,1.81818V3.63642h0c.00018,1.00412,2.54389,1.81813,5.68174,1.81813h.00007V1.81818Z" fill="#ffad00"/><path d="M13.06819,0h0L11.93183,1.81818l1.13636,1.81818h0c3.138,0,5.68182-.814,5.68182-1.81818S16.2062,0,13.06819,0Z" fill="#ffad00"/><path d="M7.38637,1.81818c0,1.00414,2.54382,1.81818,5.68182,1.81818V0C9.93019,0,7.38637.814,7.38637,1.81818Z" fill="#ffce2a"/><path d="M13.06819.73864h0L11.9318,1.81818l1.13633,1.07955h0c1.87982,0,3.40909-.48429,3.40909-1.07955S14.948.73864,13.06819.73864Z" fill="#ffce2a"/><path d="M9.65909,1.81818c0,.59524,1.52927,1.07953,3.40909,1.07955V.73864C11.18836.73864,9.65909,1.22294,9.65909,1.81818Z" fill="#fdeb95"/><path d="M11.36364,26.36364v1.81823h0C11.36345,29.186,8.81974,30,5.68189,30H5.68182L4.54545,28.18182l1.13637-1.81818Z" fill="#e68900"/><path d="M0,26.36364v1.81823H0C.00019,29.186,2.54389,30,5.68175,30h.00007V26.36364Z" fill="#ffad00"/><path d="M11.36364,24.54545v1.81824h0c-.00018,1.00412-2.54389,1.81813-5.68174,1.81813H5.68182L4.54545,26.36364l1.13637-1.81819Z" fill="#ffce2a"/><path d="M0,24.54545v1.81824H0c.00018,1.00412,2.54388,1.81813,5.68174,1.81813h.00007V24.54545Z" fill="#fdeb95"/><path d="M11.36364,22.72727v1.81824h0c-.00018,1.00412-2.54389,1.81813-5.68174,1.81813H5.68182L4.54545,24.54545l1.13637-1.81818Z" fill="#e68900"/><path d="M0,22.72727v1.81824H0c.00018,1.00412,2.54388,1.81813,5.68174,1.81813h.00007V22.72727Z" fill="#ffad00"/><path d="M11.36364,20.90909v1.81823h0c-.00018,1.00412-2.54389,1.81813-5.68174,1.81813H5.68182L4.54545,22.72727l1.13637-1.81818Z" fill="#ffce2a"/><path d="M0,20.90909v1.81823H0c.00018,1.00412,2.54388,1.81813,5.68174,1.81813h.00007V20.90909Z" fill="#fdeb95"/><path d="M11.36364,19.09091v1.81823h0c-.00018,1.00412-2.54389,1.81813-5.68174,1.81813H5.68182L4.54545,20.90909l1.13637-1.81818Z" fill="#e68900"/><path d="M0,19.09091v1.81823H0c.00018,1.00412,2.54388,1.81813,5.68174,1.81813h.00007V19.09091Z" fill="#ffad00"/><path d="M11.36364,17.27273V19.091h0c-.00018,1.00412-2.54389,1.81813-5.68174,1.81813H5.68182L4.54545,19.09091l1.13637-1.81818Z" fill="#ffce2a"/><path d="M0,17.27273V19.091H0c.00018,1.00412,2.54388,1.81813,5.68174,1.81813h.00007V17.27273Z" fill="#fdeb95"/><path d="M11.36364,15.45455v1.81823h0c-.00018,1.00412-2.54389,1.81813-5.68174,1.81813H5.68182L4.54545,17.27273l1.13637-1.81818Z" fill="#e68900"/><path d="M0,15.45455v1.81823H0c.00018,1.00412,2.54388,1.81813,5.68174,1.81813h.00007V15.45455Z" fill="#ffad00"/><path d="M5.68182,13.63636h0L4.54546,15.45455l1.13636,1.81818h0c3.13794,0,5.68182-.814,5.68182-1.81818S8.81982,13.63636,5.68182,13.63636Z" fill="#ffad00"/><path d="M0,15.45455c0,1.00414,2.54381,1.81818,5.68182,1.81818V13.63636C2.54381,13.63636,0,14.45038,0,15.45455Z" fill="#ffce2a"/><path d="M5.68182,14.375h0L4.54543,15.45455l1.13633,1.07954h0c1.87982,0,3.40909-.48429,3.40909-1.07954S7.56164,14.375,5.68182,14.375Z" fill="#ffce2a"/><path d="M2.27272,15.45455c0,.59523,1.52927,1.07952,3.40909,1.07954V14.375C3.802,14.375,2.27272,14.85931,2.27272,15.45455Z" fill="#fdeb95"/><path d="M26.4,23.25808v1.81824h0c-.00018,1.00412-2.54389,1.81813-5.68174,1.81813h-.00007l-1.13637-1.81818,1.13637-1.81819Z" fill="#e68900"/><path d="M15.03637,23.25808v1.81824h0c.00018,1.00412,2.54388,1.81813,5.68174,1.81813h.00007V23.25808Z" fill="#ffad00"/><path d="M26.4,21.4399v1.81824h0c-.00018,1.00412-2.54389,1.81813-5.68174,1.81813h-.00007l-1.13637-1.81819,1.13637-1.81818Z" fill="#ffce2a"/><path d="M15.03637,21.4399v1.81824h0c.00018,1.00412,2.54388,1.81813,5.68174,1.81813h.00007V21.4399Z" fill="#fdeb95"/><path d="M26.4,19.62172V21.44h0c-.00018,1.00412-2.54389,1.81813-5.68174,1.81813h-.00007L19.58182,21.4399l1.13637-1.81818Z" fill="#e68900"/><path d="M15.03637,19.62172V21.44h0c.00018,1.00412,2.54388,1.81813,5.68174,1.81813h.00007V19.62172Z" fill="#ffad00"/><path d="M26.4,17.80354v1.81823h0c-.00018,1.00412-2.54389,1.81813-5.68174,1.81813h-.00007l-1.13637-1.81818,1.13637-1.81818Z" fill="#ffce2a"/><path d="M15.03637,17.80354v1.81823h0c.00018,1.00412,2.54388,1.81813,5.68174,1.81813h.00007V17.80354Z" fill="#fdeb95"/><path d="M26.4,15.98536v1.81823h0c-.00018,1.00412-2.54389,1.81813-5.68174,1.81813h-.00007l-1.13637-1.81818,1.13637-1.81818Z" fill="#e68900"/><path d="M15.03637,15.98536v1.81823h0c.00018,1.00412,2.54388,1.81813,5.68174,1.81813h.00007V15.98536Z" fill="#ffad00"/><path d="M26.4,14.16718v1.81823h0c-.00018,1.00412-2.54389,1.81813-5.68174,1.81813h-.00007l-1.13637-1.81818,1.13637-1.81818Z" fill="#ffce2a"/><path d="M15.03637,14.16718v1.81823h0c.00018,1.00412,2.54388,1.81813,5.68174,1.81813h.00007V14.16718Z" fill="#fdeb95"/><path d="M26.4,12.349v1.81824h0c-.00018,1.00412-2.54389,1.81813-5.68174,1.81813h-.00007l-1.13637-1.81818L20.71819,12.349Z" fill="#e68900"/><path d="M15.03637,12.349v1.81824h0c.00018,1.00412,2.54388,1.81813,5.68174,1.81813h.00007V12.349Z" fill="#ffad00"/><path d="M20.71819,10.53081h0L19.58182,12.349l1.13637,1.81819h0c3.13794,0,5.68181-.814,5.68181-1.81819S23.85619,10.53081,20.71819,10.53081Z" fill="#ffad00"/><path d="M15.03637,12.349c0,1.00415,2.54381,1.81819,5.68182,1.81819V10.53081C17.58018,10.53081,15.03637,11.34483,15.03637,12.349Z" fill="#ffce2a"/><path d="M20.71819,11.26945h0L19.58179,12.349l1.13634,1.07955h0c1.87982,0,3.40909-.48429,3.40909-1.07955S22.598,11.26945,20.71819,11.26945Z" fill="#ffce2a"/><path d="M17.30909,12.349c0,.59524,1.52927,1.07953,3.40909,1.07955V11.26945C18.83836,11.26945,17.30909,11.75376,17.30909,12.349Z" fill="#fdeb95"/><circle cx="24" cy="24" r="8" fill="#1d9100"/><circle cx="24" cy="24" r="6.5" fill="#3faf2a"/><polygon points="28.5 23 25 23 25 19.5 23 19.5 23 23 19.5 23 19.5 25 23 25 23 28.5 25 28.5 25 25 28.5 25 28.5 23" fill="#f5f5f5"/></svg>