<svg xmlns="http://www.w3.org/2000/svg" viewBox="0 0 32 31.9996"><path d="M18.8518,21.93663v1.8281h0c-.00018,1.00957-2.55769,1.828-5.71258,1.828h-.00007L11.9966,23.76468l1.14254-1.828Z" fill="#ffce2a"/><path d="M7.42647,21.93663v1.8281h0c.00018,1.00957,2.5577,1.828,5.71259,1.828h.00007v-3.6561Z" fill="#fdeb95"/><path d="M18.8518,20.10857v1.82811h0c-.00018,1.00957-2.55769,1.828-5.71258,1.828h-.00007l-1.14254-1.828,1.14254-1.82806Z" fill="#e68900"/><path d="M7.42647,20.10857v1.82811h0c.00018,1.00957,2.5577,1.828,5.71259,1.828h.00007V20.10857Z" fill="#ffad00"/><path d="M18.8518,18.28052v1.82811h0c-.00018,1.00957-2.55769,1.828-5.71258,1.828h-.00007L11.9966,20.10857l1.14254-1.82805Z" fill="#ffce2a"/><path d="M7.42647,18.28052v1.82811h0c.00018,1.00957,2.5577,1.828,5.71259,1.828h.00007V18.28052Z" fill="#fdeb95"/><path d="M18.8518,16.45247v1.8281h0c-.00018,1.00958-2.55769,1.828-5.71258,1.828h-.00007L11.9966,18.28052l1.14254-1.828Z" fill="#e68900"/><path d="M7.42647,16.45247v1.8281h0c.00018,1.00958,2.5577,1.828,5.71259,1.828h.00007v-3.6561Z" fill="#ffad00"/><path d="M18.8518,14.62442v1.8281h0c-.00018,1.00957-2.55769,1.828-5.71258,1.828h-.00007l-1.14254-1.828,1.14254-1.82805Z" fill="#ffce2a"/><path d="M7.42647,14.62442v1.8281h0c.00018,1.00957,2.5577,1.828,5.71259,1.828h.00007v-3.6561Z" fill="#fdeb95"/><path d="M18.8518,12.79637v1.8281h0c-.00018,1.00957-2.55769,1.828-5.71258,1.828h-.00007L11.9966,14.62442l1.14254-1.82805Z" fill="#e68900"/><path d="M7.42647,12.79637v1.8281h0c.00018,1.00957,2.5577,1.828,5.71259,1.828h.00007v-3.6561Z" fill="#ffad00"/><path d="M18.8518,10.96831v1.82811h0c-.00018,1.00957-2.55769,1.828-5.71258,1.828h-.00007L11.9966,12.79637l1.14254-1.82806Z" fill="#ffce2a"/><path d="M7.42647,10.96831v1.82811h0c.00018,1.00957,2.5577,1.828,5.71259,1.828h.00007V10.96831Z" fill="#fdeb95"/><path d="M18.8518,9.14026v1.82811h0c-.00018,1.00957-2.55769,1.828-5.71258,1.828h-.00007L11.9966,10.96831l1.14254-1.82805Z" fill="#e68900"/><path d="M7.42647,9.14026v1.82811h0c.00018,1.00957,2.5577,1.828,5.71259,1.828h.00007V9.14026Z" fill="#ffad00"/><path d="M18.8518,7.31221v1.8281h0c-.00018,1.00957-2.55769,1.828-5.71258,1.828h-.00007L11.9966,9.14026l1.14254-1.828Z" fill="#ffce2a"/><path d="M7.42647,7.31221v1.8281h0c.00018,1.00957,2.5577,1.828,5.71259,1.828h.00007V7.31221Z" fill="#fdeb95"/><path d="M18.8518,5.48416v1.8281h0c-.00018,1.00957-2.55769,1.828-5.71258,1.828h-.00007l-1.14254-1.828,1.14254-1.828Z" fill="#e68900"/><path d="M7.42647,5.48416v1.8281h0c.00018,1.00957,2.5577,1.828,5.71259,1.828h.00007V5.48416Z" fill="#ffad00"/><path d="M18.8518,3.6561V5.48421h0c-.00018,1.00957-2.55769,1.828-5.71258,1.828h-.00007l-1.14254-1.828L13.13914,3.6561Z" fill="#ffce2a"/><path d="M7.42647,3.6561V5.48421h0c.00018,1.00957,2.5577,1.828,5.71259,1.828h.00007V3.6561Z" fill="#fdeb95"/><path d="M18.8518,1.82805V3.65616h0c-.00018,1.00957-2.55769,1.828-5.71258,1.828h-.00007L11.9966,3.6561l1.14254-1.828Z" fill="#e68900"/><path d="M7.42647,1.82805V3.65616h0c.00018,1.00957,2.5577,1.828,5.71259,1.828h.00007V1.82805Z" fill="#ffad00"/><path d="M13.13914,0h0L11.9966,1.82805,13.13914,3.6561h0c3.155,0,5.71266-.81843,5.71266-1.828S16.29418,0,13.13914,0Z" fill="#ffad00"/><path d="M7.42647,1.82805c0,1.0096,2.55763,1.82805,5.71267,1.82805V0C9.9841,0,7.42647.81844,7.42647,1.82805Z" fill="#ffce2a"/><path d="M13.13914.74265h0l-1.14257,1.0854,1.14251,1.08541h0c1.89,0,3.42759-.48692,3.42759-1.08541S15.02916.74265,13.13914.74265Z" fill="#ffce2a"/><path d="M9.71153,1.82805c0,.59847,1.53757,1.08539,3.4276,1.08541V.74265C11.2491.74265,9.71153,1.22958,9.71153,1.82805Z" fill="#fdeb95"/><path d="M11.42533,26.50676v1.8281h0c-.00018,1.00957-2.5577,1.828-5.71259,1.828H5.71266l-1.14253-1.828,1.14253-1.82805Z" fill="#e68900"/><path d="M0,26.50676v1.8281H0c.00018,1.00957,2.55769,1.828,5.71258,1.828h.00007v-3.6561Z" fill="#ffad00"/><path d="M11.42533,24.67871v1.8281h0c-.00018,1.00957-2.5577,1.828-5.71259,1.828H5.71266L4.57013,26.50676l1.14253-1.82805Z" fill="#ffce2a"/><path d="M0,24.67871v1.8281H0c.00018,1.00957,2.55769,1.828,5.71258,1.828h.00007v-3.6561Z" fill="#fdeb95"/><path d="M11.42533,22.85065v1.82811h0c-.00018,1.00957-2.5577,1.828-5.71259,1.828H5.71266L4.57013,24.67871l1.14253-1.82806Z" fill="#e68900"/><path d="M0,22.85065v1.82811H0c.00018,1.00957,2.55769,1.828,5.71258,1.828h.00007V22.85065Z" fill="#ffad00"/><path d="M11.42533,21.0226v1.82811h0c-.00018,1.00957-2.5577,1.828-5.71259,1.828H5.71266L4.57013,22.85065,5.71266,21.0226Z" fill="#ffce2a"/><path d="M0,21.0226v1.82811H0c.00018,1.00957,2.55769,1.828,5.71258,1.828h.00007V21.0226Z" fill="#fdeb95"/><path d="M11.42533,19.19455v1.8281h0c-.00018,1.00957-2.5577,1.828-5.71259,1.828H5.71266L4.57013,21.0226l1.14253-1.82805Z" fill="#e68900"/><path d="M0,19.19455v1.8281H0c.00018,1.00957,2.55769,1.828,5.71258,1.828h.00007v-3.6561Z" fill="#ffad00"/><path d="M11.42533,17.3665v1.8281h0c-.00018,1.00957-2.5577,1.828-5.71259,1.828H5.71266L4.57013,19.19455,5.71266,17.3665Z" fill="#ffce2a"/><path d="M0,17.3665v1.8281H0c.00018,1.00957,2.55769,1.828,5.71258,1.828h.00007V17.3665Z" fill="#fdeb95"/><path d="M11.42533,15.53844v1.82811h0c-.00018,1.00957-2.5577,1.828-5.71259,1.828H5.71266L4.57013,17.3665l1.14253-1.82806Z" fill="#e68900"/><path d="M0,15.53844v1.82811H0c.00018,1.00957,2.55769,1.828,5.71258,1.828h.00007V15.53844Z" fill="#ffad00"/><path d="M5.71266,13.71039h0l-1.14253,1.828L5.71266,17.3665h0c3.155,0,5.71267-.81844,5.71267-1.82806S8.8677,13.71039,5.71266,13.71039Z" fill="#ffad00"/><path d="M0,15.53844C0,16.548,2.55762,17.3665,5.71266,17.3665V13.71039C2.55762,13.71039,0,14.52883,0,15.53844Z" fill="#ffce2a"/><path d="M5.71266,14.453h0L4.5701,15.53844l1.1425,1.08541h0c1.89,0,3.4276-.48692,3.4276-1.08541S7.60269,14.453,5.71266,14.453Z" fill="#ffce2a"/><path d="M2.28505,15.53844c0,.59847,1.53758,1.08539,3.4276,1.08541V14.453C3.82263,14.453,2.28505,14.94,2.28505,15.53844Z" fill="#fdeb95"/><path d="M26.54332,23.38435v1.8281h0c-.00018,1.00957-2.5577,1.828-5.71259,1.828h-.00007L19.68813,25.2124l1.14253-1.828Z" fill="#e68900"/><path d="M15.118,23.38435v1.8281h0c.00019,1.00957,2.5577,1.828,5.71259,1.828h.00007v-3.6561Z" fill="#ffad00"/><path d="M26.54332,21.55629V23.3844h0c-.00018,1.00957-2.5577,1.828-5.71259,1.828h-.00007l-1.14253-1.828,1.14253-1.82806Z" fill="#ffce2a"/><path d="M15.118,21.55629V23.3844h0c.00019,1.00957,2.5577,1.828,5.71259,1.828h.00007V21.55629Z" fill="#fdeb95"/><path d="M26.54332,19.72824v1.82811h0c-.00018,1.00957-2.5577,1.828-5.71259,1.828h-.00007l-1.14253-1.82806,1.14253-1.82805Z" fill="#e68900"/><path d="M15.118,19.72824v1.82811h0c.00019,1.00957,2.5577,1.828,5.71259,1.828h.00007V19.72824Z" fill="#ffad00"/><path d="M26.54332,17.90019v1.8281h0c-.00018,1.00957-2.5577,1.828-5.71259,1.828h-.00007l-1.14253-1.82805,1.14253-1.82805Z" fill="#ffce2a"/><path d="M15.118,17.90019v1.8281h0c.00019,1.00957,2.5577,1.828,5.71259,1.828h.00007v-3.6561Z" fill="#fdeb95"/><path d="M26.54332,16.07214v1.8281h0c-.00018,1.00957-2.5577,1.828-5.71259,1.828h-.00007l-1.14253-1.82805,1.14253-1.828Z" fill="#e68900"/><path d="M15.118,16.07214v1.8281h0c.00019,1.00957,2.5577,1.828,5.71259,1.828h.00007v-3.6561Z" fill="#ffad00"/><path d="M26.54332,14.24409v1.8281h0c-.00018,1.00957-2.5577,1.828-5.71259,1.828h-.00007l-1.14253-1.828,1.14253-1.82805Z" fill="#ffce2a"/><path d="M15.118,14.24409v1.8281h0c.00019,1.00957,2.5577,1.828,5.71259,1.828h.00007v-3.6561Z" fill="#fdeb95"/><path d="M26.54332,12.416v1.82811h0c-.00018,1.00957-2.5577,1.828-5.71259,1.828h-.00007l-1.14253-1.82805L20.83066,12.416Z" fill="#e68900"/><path d="M15.118,12.416v1.82811h0c.00019,1.00957,2.5577,1.828,5.71259,1.828h.00007V12.416Z" fill="#ffad00"/><path d="M20.83066,10.588h0l-1.14253,1.828,1.14253,1.82806h0c3.155,0,5.71266-.81844,5.71266-1.82806S23.9857,10.588,20.83066,10.588Z" fill="#ffad00"/><path d="M15.118,12.416c0,1.0096,2.55762,1.82806,5.71266,1.82806V10.588C17.67562,10.588,15.118,11.40642,15.118,12.416Z" fill="#ffce2a"/><path d="M20.83066,11.33063h0L19.6881,12.416l1.1425,1.08541h0c1.89,0,3.4276-.48692,3.4276-1.08541S22.72069,11.33063,20.83066,11.33063Z" fill="#ffce2a"/><path d="M17.40305,12.416c0,.59847,1.53758,1.08539,3.4276,1.08541V11.33063C18.94062,11.33063,17.40305,11.81756,17.40305,12.416Z" fill="#fdeb95"/><circle cx="24" cy="23.9996" r="8" fill="#e30000"/><circle cx="24" cy="23.9996" r="6.5" fill="#fa0000"/><rect x="19.5" y="22.9996" width="9" height="2" fill="#f5f5f5"/></svg>