<svg xmlns="http://www.w3.org/2000/svg" viewBox="0 0 88.00002 100"><path d="M62.5,72.72727v6.06078h0c-.0006,3.34707-8.47962,6.06043-18.93914,6.06043h-.00023l-3.78788-6.0606,3.78788-6.06061Z" fill="#ffce2a"/><path d="M24.62125,72.72727v6.06078h0c.0006,3.34707,8.47962,6.06043,18.93914,6.06043h.00023V72.72727Z" fill="#fdeb95"/><path d="M62.5,66.66667v6.06078h0c-.0006,3.34706-8.47962,6.06043-18.93914,6.06043h-.00023l-3.78788-6.06061,3.78788-6.0606Z" fill="#e68900"/><path d="M24.62125,66.66667v6.06078h0c.0006,3.34706,8.47962,6.06043,18.93914,6.06043h.00023V66.66667Z" fill="#ffad00"/><path d="M62.5,60.60606v6.06078h0c-.0006,3.34706-8.47962,6.06043-18.93914,6.06043h-.00023l-3.78788-6.0606,3.78788-6.06061Z" fill="#ffce2a"/><path d="M24.62125,60.60606v6.06078h0c.0006,3.34706,8.47962,6.06043,18.93914,6.06043h.00023V60.60606Z" fill="#fdeb95"/><path d="M62.5,54.54545v6.06078h0c-.0006,3.34707-8.47962,6.06044-18.93914,6.06044h-.00023l-3.78788-6.06061,3.78788-6.06061Z" fill="#e68900"/><path d="M24.62125,54.54545v6.06078h0c.0006,3.34707,8.47962,6.06044,18.93914,6.06044h.00023V54.54545Z" fill="#ffad00"/><path d="M62.5,48.48485v6.06078h0c-.0006,3.34706-8.47962,6.06043-18.93914,6.06043h-.00023l-3.78788-6.06061,3.78788-6.0606Z" fill="#ffce2a"/><path d="M24.62125,48.48485v6.06078h0c.0006,3.34706,8.47962,6.06043,18.93914,6.06043h.00023V48.48485Z" fill="#fdeb95"/><path d="M62.5,42.42424V48.485h0c-.0006,3.34707-8.47962,6.06043-18.93914,6.06043h-.00023l-3.78788-6.0606,3.78788-6.06061Z" fill="#e68900"/><path d="M24.62125,42.42424V48.485h0c.0006,3.34707,8.47962,6.06043,18.93914,6.06043h.00023V42.42424Z" fill="#ffad00"/><path d="M62.5,36.36364v6.06078h0c-.0006,3.34706-8.47962,6.06043-18.93914,6.06043h-.00023l-3.78788-6.06061,3.78788-6.0606Z" fill="#ffce2a"/><path d="M24.62125,36.36364v6.06078h0c.0006,3.34706,8.47962,6.06043,18.93914,6.06043h.00023V36.36364Z" fill="#fdeb95"/><path d="M62.5,30.303v6.06078h0c-.0006,3.34706-8.47962,6.06043-18.93914,6.06043h-.00023l-3.78788-6.0606L43.56064,30.303Z" fill="#e68900"/><path d="M24.62125,30.303v6.06078h0c.0006,3.34706,8.47962,6.06043,18.93914,6.06043h.00023V30.303Z" fill="#ffad00"/><path d="M62.5,24.24242V30.3032h0c-.0006,3.34707-8.47962,6.06044-18.93914,6.06044h-.00023L39.77276,30.303l3.78788-6.06061Z" fill="#ffce2a"/><path d="M24.62125,24.24242V30.3032h0c.0006,3.34707,8.47962,6.06044,18.93914,6.06044h.00023V24.24242Z" fill="#fdeb95"/><path d="M62.5,18.18182V24.2426h0c-.0006,3.34706-8.47962,6.06043-18.93914,6.06043h-.00023l-3.78788-6.06061,3.78788-6.0606Z" fill="#e68900"/><path d="M24.62125,18.18182V24.2426h0c.0006,3.34706,8.47962,6.06043,18.93914,6.06043h.00023V18.18182Z" fill="#ffad00"/><path d="M62.5,12.12121V18.182h0c-.0006,3.34707-8.47962,6.06043-18.93914,6.06043h-.00023l-3.78788-6.0606,3.78788-6.06061Z" fill="#ffce2a"/><path d="M24.62125,12.12121V18.182h0c.0006,3.34707,8.47962,6.06043,18.93914,6.06043h.00023V12.12121Z" fill="#fdeb95"/><path d="M62.5,6.06061v6.06078h0c-.0006,3.34706-8.47962,6.06043-18.93914,6.06043h-.00023l-3.78788-6.06061,3.78788-6.0606Z" fill="#e68900"/><path d="M24.62125,6.06061v6.06078h0c.0006,3.34706,8.47962,6.06043,18.93914,6.06043h.00023V6.06061Z" fill="#ffad00"/><path d="M43.56064,0h0L39.77276,6.06061l3.78788,6.0606h0c10.45982,0,18.9394-2.7134,18.9394-6.0606C62.49984,2.7134,54.02066,0,43.56064,0Z" fill="#ffad00"/><path d="M24.62125,6.06061c0,3.34714,8.47938,6.0606,18.93939,6.0606V0C33.10063,0,24.62125,2.7134,24.62125,6.06061Z" fill="#ffce2a"/><path d="M43.56064,2.46212h0l-3.788,3.59849,3.78778,3.59848h0c6.26607,0,11.36364-1.61429,11.36364-3.59848C54.92428,4.07648,49.82671,2.46212,43.56064,2.46212Z" fill="#ffce2a"/><path d="M32.197,6.06061c0,1.98412,5.09757,3.59842,11.36364,3.59848v-7.197C37.29454,2.46212,32.197,4.07648,32.197,6.06061Z" fill="#fdeb95"/><path d="M37.87879,87.87879v6.06078h0C37.87816,97.28663,29.39914,100,18.93963,100h-.00024l-3.78787-6.06061,3.78787-6.0606Z" fill="#e68900"/><path d="M0,87.87879v6.06078H0C.00062,97.28663,8.47964,100,18.93916,100h.00023V87.87879Z" fill="#ffad00"/><path d="M37.87879,81.81818V87.879h0c-.0006,3.34707-8.47962,6.06043-18.93913,6.06043h-.00024l-3.78787-6.0606,3.78787-6.06061Z" fill="#ffce2a"/><path d="M0,81.81818V87.879H0c.0006,3.34707,8.47962,6.06043,18.93914,6.06043h.00023V81.81818Z" fill="#fdeb95"/><path d="M37.87879,75.75758v6.06078h0c-.0006,3.34706-8.47962,6.06043-18.93913,6.06043h-.00024l-3.78787-6.06061,3.78787-6.0606Z" fill="#e68900"/><path d="M0,75.75758v6.06078H0c.0006,3.34706,8.47962,6.06043,18.93914,6.06043h.00023V75.75758Z" fill="#ffad00"/><path d="M37.87879,69.697v6.06078h0c-.0006,3.34706-8.47962,6.06043-18.93913,6.06043h-.00024l-3.78787-6.0606L18.93939,69.697Z" fill="#ffce2a"/><path d="M0,69.697v6.06078H0c.0006,3.34706,8.47962,6.06043,18.93914,6.06043h.00023V69.697Z" fill="#fdeb95"/><path d="M37.87879,63.63636v6.06078h0c-.0006,3.34707-8.47962,6.06044-18.93913,6.06044h-.00024L15.15152,69.697l3.78787-6.06061Z" fill="#e68900"/><path d="M0,63.63636v6.06078H0c.0006,3.34707,8.47962,6.06044,18.93914,6.06044h.00023V63.63636Z" fill="#ffad00"/><path d="M37.87879,57.57576v6.06078h0c-.0006,3.34706-8.47962,6.06043-18.93913,6.06043h-.00024l-3.78787-6.06061,3.78787-6.0606Z" fill="#ffce2a"/><path d="M0,57.57576v6.06078H0C.00062,66.9836,8.47964,69.697,18.93916,69.697h.00023V57.57576Z" fill="#fdeb95"/><path d="M37.87879,51.51515v6.06078h0c-.0006,3.34707-8.47962,6.06043-18.93913,6.06043h-.00024l-3.78787-6.0606,3.78787-6.06061Z" fill="#e68900"/><path d="M0,51.51515v6.06078H0c.0006,3.34707,8.47962,6.06043,18.93914,6.06043h.00023V51.51515Z" fill="#ffad00"/><path d="M18.9394,45.45455h0l-3.78788,6.0606,3.78788,6.06061h0c10.45981,0,18.93939-2.7134,18.93939-6.06061C37.87859,48.168,29.39941,45.45455,18.9394,45.45455Z" fill="#ffad00"/><path d="M0,51.51515c0,3.34714,8.47938,6.06061,18.9394,6.06061V45.45455C8.47938,45.45455,0,48.168,0,51.51515Z" fill="#ffce2a"/><path d="M18.9394,47.91667h0l-3.788,3.59848,3.78778,3.59849h0c6.26606,0,11.36363-1.6143,11.36363-3.59849C30.303,49.531,25.20546,47.91667,18.9394,47.91667Z" fill="#ffce2a"/><path d="M7.57572,51.51515c0,1.98413,5.09757,3.59842,11.36364,3.59849v-7.197C12.67329,47.91667,7.57572,49.531,7.57572,51.51515Z" fill="#fdeb95"/><path d="M88,77.527v6.06078h0c-.0006,3.34706-8.47962,6.06043-18.93914,6.06043h-.00023l-3.78788-6.06061,3.78788-6.0606Z" fill="#e68900"/><path d="M50.12123,77.527v6.06078h0c.0006,3.34706,8.47962,6.06043,18.93914,6.06043h.00023V77.527Z" fill="#ffad00"/><path d="M88,71.46634v6.06078h0c-.0006,3.34707-8.47962,6.06043-18.93914,6.06043h-.00023L65.27274,77.527l3.78788-6.06061Z" fill="#ffce2a"/><path d="M50.12123,71.46634v6.06078h0c.0006,3.34707,8.47962,6.06043,18.93914,6.06043h.00023V71.46634Z" fill="#fdeb95"/><path d="M88,65.40574v6.06077h0c-.0006,3.34707-8.47962,6.06044-18.93914,6.06044h-.00023l-3.78788-6.06061,3.78788-6.0606Z" fill="#e68900"/><path d="M50.12123,65.40574v6.06077h0c.0006,3.34707,8.47962,6.06044,18.93914,6.06044h.00023V65.40574Z" fill="#ffad00"/><path d="M88,59.34513v6.06078h0c-.0006,3.34706-8.47962,6.06043-18.93914,6.06043h-.00023l-3.78788-6.0606,3.78788-6.06061Z" fill="#ffce2a"/><path d="M50.12123,59.34513v6.06078h0c.0006,3.34706,8.47962,6.06043,18.93914,6.06043h.00023V59.34513Z" fill="#fdeb95"/><path d="M88,53.28452V59.3453h0c-.0006,3.34707-8.47962,6.06044-18.93914,6.06044h-.00023l-3.78788-6.06061,3.78788-6.06061Z" fill="#e68900"/><path d="M50.12123,53.28452V59.3453h0c.0006,3.34707,8.47962,6.06044,18.93914,6.06044h.00023V53.28452Z" fill="#ffad00"/><path d="M88,47.22392V53.2847h0c-.0006,3.34706-8.47962,6.06043-18.93914,6.06043h-.00023l-3.78788-6.06061,3.78788-6.0606Z" fill="#ffce2a"/><path d="M50.12123,47.22392V53.2847h0c.0006,3.34706,8.47962,6.06043,18.93914,6.06043h.00023V47.22392Z" fill="#fdeb95"/><path d="M88,41.16331v6.06078h0c-.0006,3.34707-8.47962,6.06043-18.93914,6.06043h-.00023l-3.78788-6.0606,3.78788-6.06061Z" fill="#e68900"/><path d="M50.12123,41.16331v6.06078h0c.0006,3.34707,8.47962,6.06043,18.93914,6.06043h.00023V41.16331Z" fill="#ffad00"/><path d="M69.06062,35.1027h0l-3.78787,6.06061,3.78787,6.06061h0C79.52044,47.22392,88,44.51052,88,41.16331,87.99982,37.81611,79.52064,35.1027,69.06062,35.1027Z" fill="#ffad00"/><path d="M50.12123,41.16331c0,3.34714,8.47938,6.06061,18.93939,6.06061V35.1027C58.60061,35.1027,50.12123,37.81611,50.12123,41.16331Z" fill="#ffce2a"/><path d="M69.06063,37.56483h0l-3.788,3.59848,3.78777,3.59849h0c6.26607,0,11.36364-1.6143,11.36364-3.59849C80.42427,39.17919,75.32669,37.56483,69.06063,37.56483Z" fill="#ffce2a"/><path d="M57.697,41.16331c0,1.98413,5.09757,3.59842,11.36364,3.59849v-7.197C62.79452,37.56483,57.697,39.17919,57.697,41.16331Z" fill="#fdeb95"/></svg>