<svg xmlns="http://www.w3.org/2000/svg" viewBox="0 0 19 18"><path d="M9.875,14.89343c-.125.00537-.24963.016-.37494.01587-4.13556,0-7.5-2.89557-7.5-6.45465S5.3645,2,9.5,2c4.0614,0,7.37128,2.79443,7.489,6.24573a4.109,4.109,0,0,1,1.80164,1.92907A7.95968,7.95968,0,0,0,19,8.45465C19,3.78534,14.7467,0,9.5,0S0,3.78528,0,8.45465,4.2533,16.9093,9.5,16.9093h.01184c.1214,0,.242-.01166.36316-.01587Z" fill="#323232"/><path d="M18.43751,12.375h-.51919v-.51919a2.85582,2.85582,0,0,0-5.71164,0V12.375h-.51919a.56269.56269,0,0,0-.56249.56249v4.5A.56271.56271,0,0,0,11.68749,18h6.75A.56271.56271,0,0,0,19,17.43751v-4.5A.56269.56269,0,0,0,18.43751,12.375Zm-3.375,3.9375a1.10726,1.10726,0,1,1,.00063,0Zm1.73082-3.9375H13.33168v-.51919a1.73082,1.73082,0,0,1,3.46164,0Z" fill="#323232"/><path d="M9.875,12.93707a1.81579,1.81579,0,0,1,1.12488-1.67639A4.10488,4.10488,0,0,1,13.14624,8.242a5.87341,5.87341,0,0,0,.18158-.90881,3.85861,3.85861,0,1,0-7.68793-.473,3.795,3.795,0,0,0,.03308.47992c.32978,3.01526,3.57642,6.49048,3.57642,6.49048a.6017.6017,0,0,0,.16736.1336l.00274.00141L9.52759,14l.10809-.03442.00275-.00141a.64265.64265,0,0,0,.16736-.1336l.06921-.07746ZM9.50006,8.65454a1.79444,1.79444,0,1,1,1.79443-1.79443A1.7964,1.7964,0,0,1,9.50006,8.65454Z" fill="#323232"/></svg>