<svg xmlns="http://www.w3.org/2000/svg" xmlns:xlink="http://www.w3.org/1999/xlink" viewBox="0 0 232.7827 233.05087"><defs><linearGradient id="a" x1="116.39135" y1="233.05087" x2="116.39135" gradientUnits="userSpaceOnUse"><stop offset="0" stop-color="#646464"/><stop offset="1" stop-color="#323232"/></linearGradient></defs><path d="M72.388,178.42l-14.405-5.97a24.857,24.857,0,0,0,45.426-1.21h0a24.9,24.9,0,0,0-31.8-32.92L86.5,144.49a18.37423,18.37423,0,0,1-14.114,33.93h.002ZM183.989,87.322A29.485,29.485,0,1,0,154.5,116.86,29.485,29.485,0,0,0,183.989,87.322Zm-51.58-.045a22.145,22.145,0,1,1,22.14,22.183A22.145,22.145,0,0,1,132.409,87.277ZM116.25,0A116.515,116.515,0,0,0,0,108.76l.05.085v-.015l62.6,25.77a32.38889,32.38889,0,0,1,19.1-5.29L110.259,87.9c-.01-.184-.01-.38-.01-.576A44.25,44.25,0,1,1,154.5,131.66c-.33,0-.67-.01-1-.02l-40.79,29.15a32.295,32.295,0,0,1-63.816,7.89l-44.1-18.2A116.51,116.51,0,1,0,116.25,0Z" fill="url(#a)"/></svg>