<svg xmlns="http://www.w3.org/2000/svg" viewBox="0 0 163.95297 163.97091"><path d="M44.745,164c-6.83773.18243-13.38062-4.0358-18.7842-7.75626A94.81863,94.81863,0,0,1,12.689,145.128a15.37843,15.37843,0,0,1-5.141-11.101A52.80178,52.80178,0,0,1,11.58,109.6l.3-.908c-.4-.908-.7-1.917-1.109-2.927A75.735,75.735,0,0,1,6.934,86.13819,65.71969,65.71969,0,0,1,8.354,66.407,58.03611,58.03611,0,0,1,1,51.975v-.1c-2.81449-7.81516,1.00406-15.60535,5.16854-22.1113A93.3292,93.3292,0,0,1,18.737,14.129a12.17523,12.17523,0,0,1,2.419-2.119,14.756,14.756,0,0,1,8.67-2.927,51.27445,51.27445,0,0,1,22.68,3.333A75.98333,75.98333,0,0,1,98.88,8.074,51.22818,51.22818,0,0,1,112.487,1.11h.1c5.97863-2.277,12.34866-.656,17.80687,2.2359a82.52506,82.52506,0,0,1,15.07659,10.58351c1.83657,1.58523,3.6101,3.22671,5.32355,4.94259a9.58424,9.58424,0,0,1,1.915,2.119,16.863,16.863,0,0,1,3.327,10.294c.4751,7.90278-1.28008,15.46249-4.036,22.815a74.4,74.4,0,0,1,3.427,44.1,61.97485,61.97485,0,0,1,6.13474,10.80765c1.624,3.84854,2.8493,7.8226,2.2843,12.042-.53514,3.99646-2.34353,7.82006-4.27888,11.31553a75.39123,75.39123,0,0,1-6.85808,9.9572A95.5419,95.5419,0,0,1,145.246,150.78a15.46325,15.46325,0,0,1-11.089,5.147,52.60452,52.60452,0,0,1-24.397-4.039,73.44267,73.44267,0,0,1-41.835,4.037c-.706-.1-1.512-.3-2.218-.4A54.87,54.87,0,0,1,51,163.294h-.1a9.53454,9.53454,0,0,0-2.49375.3402A21.06608,21.06608,0,0,1,44.745,164Z" transform="translate(-0.03284 -0.0348)" fill="#f0f0f0"/><path d="M56.741,89.216l.706,28.561-7.057-5.752c-7.863,12.817-10.383,25.23-6.653,34.414l1.311,3.23-3.226-1.413a59.96306,59.96306,0,0,1-19.557-13.625l-.3-.3-.1-.5a33.52228,33.52228,0,0,1,.706-11.3v-.1a81.17294,81.17294,0,0,1,5.645-14.836,78.601,78.601,0,0,1,5.34-9.295l-6.15-5.046,29.335-4.037Z" transform="translate(-0.03284 -0.0348)" fill="#be7f31"/><path d="M106.741,74.784l-.7-28.561,7.056,5.752c7.863-12.817,10.383-25.23,6.653-34.414l-1.31-3.23,3.226,1.413a59.94908,59.94908,0,0,1,19.556,13.625l.3.3.1.5a33.54832,33.54832,0,0,1-.706,11.3v.1a81.24551,81.24551,0,0,1-5.645,14.836,78.59917,78.59917,0,0,1-5.343,9.285l6.149,5.046Z" transform="translate(-0.03284 -0.0348)" fill="#be7f31"/><path d="M89.2,106.373l28.528-.707-5.746,7.065c12.8,7.872,25.2,10.4,34.375,6.661l3.226-1.312-1.411,3.23a60.03194,60.03194,0,0,1-13.609,19.579l-.3.3-.5.1a33.42518,33.42518,0,0,1-11.291-.706h-.1a81.0046,81.0046,0,0,1-14.818-5.652,78.38666,78.38666,0,0,1-9.274-5.349l-5.041,6.157Z" transform="translate(-0.03284 -0.0348)" fill="#be7f31"/><path d="M74.685,58.132l-28.528.706L51.9,51.774c-12.8-7.872-25.2-10.4-34.375-6.661L14.4,46.425l1.412-3.23A60.017,60.017,0,0,1,29.423,23.616l.3-.3.5-.1a33.421,33.421,0,0,1,11.29.707h.1A81.0094,81.0094,0,0,1,56.439,29.57a78.52685,78.52685,0,0,1,9.274,5.349l5.04-6.156Z" transform="translate(-0.03284 -0.0348)" fill="#be7f31"/><ellipse cx="82.01116" cy="81.5112" rx="60.988" ry="61.058" fill="#faa431"/><path d="M59.765,60.049A47.8778,47.8778,0,0,1,51,54.9a70.31152,70.31152,0,0,1-10.887-9.285c-7.661-7.771-11.693-15.744-10.585-22.3L27.21,25.838c-5.545,5.854-12.9,16.148-13,20.589l.1.5A35.15,35.15,0,0,0,19.249,57.12v.1c3.024,4.845,8.972,12.818,30.141,22.1l-3.73,7.064,28.529-7.67L64,51.975Z" transform="translate(-0.03284 -0.0348)" fill="#fff"/><path d="M104.12,104.455a47.91114,47.91114,0,0,1,8.771,5.147,70.36606,70.36606,0,0,1,10.887,9.285c7.661,7.771,11.693,15.744,10.584,22.3l2.319-2.422c5.544-5.853,12.9-16.147,13-20.588l-.1-.5a35.17517,35.17517,0,0,0-4.939-10.193v-.1c-3.024-4.844-8.972-12.817-30.141-22.1l3.729-7.065L89.705,85.886l10.282,26.441Z" transform="translate(-0.03284 -0.0348)" fill="#fff"/><path d="M104.826,59.847a47.99946,47.99946,0,0,1,5.141-8.78,70.43113,70.43113,0,0,1,9.274-10.9C127,32.5,134.967,28.46,141.52,29.57l-2.42-2.321c-5.846-5.551-16.129-12.918-20.564-13.019l-.5.1a35.07929,35.07929,0,0,0-10.182,4.945h-.1c-4.838,3.028-12.8,8.982-22.076,30.176l-7.057-3.734,7.662,28.561,26.613-10.092Z" transform="translate(-0.03284 -0.0348)" fill="#fff"/><path d="M58.657,104.153a47.93962,47.93962,0,0,1-5.142,8.78,70.32339,70.32339,0,0,1-9.274,10.9c-7.762,7.67-15.726,11.707-22.278,10.6l2.419,2.321c5.847,5.551,16.129,12.918,20.565,13.019l.5-.1a35.073,35.073,0,0,0,10.181-4.945h.1c4.839-3.028,12.8-8.982,22.077-30.176l7.056,3.734L77.205,89.721,50.693,99.813Z" transform="translate(-0.03284 -0.0348)" fill="#fff"/></svg>