<svg xmlns="http://www.w3.org/2000/svg" xmlns:xlink="http://www.w3.org/1999/xlink" viewBox="0 0 50 50"><defs><linearGradient id="a" x1="25" x2="25" y2="50" gradientTransform="matrix(1, 0, 0, -1, 0, 50)" gradientUnits="userSpaceOnUse"><stop offset="0" stop-color="#992628"/><stop offset="1" stop-color="#cc3336"/></linearGradient><linearGradient id="b" x1="25" y1="2" x2="25" y2="48" gradientTransform="matrix(1, 0, 0, -1, 0, 50)" gradientUnits="userSpaceOnUse"><stop offset="0" stop-color="#b32d2f"/><stop offset="1" stop-color="#e6393c"/></linearGradient></defs><path d="M25,0A25,25,0,1,0,50,25,25,25,0,0,0,25,0Z" fill="url(#a)"/><path d="M25,5.875A19.125,19.125,0,1,0,44.125,25,19.125,19.125,0,0,0,25,5.875Z" fill="#2d2d2d"/><path d="M25,2A23,23,0,1,0,48,25,23,23,0,0,0,25,2Zm8.87719,25.2162c-3.27851,6.25438-4.99342,4.89254-8.57456,9.07894s-2.77412,3.32895-3.48026,4.99342-2.875,2.37062-2.875-2.32017,3.22807-4.28728,2.97588-7.3136c-.2522-2.32017-5.85088-1.76535-5.85088-1.76535-4.64035.95833-4.79167-3.27851-2.47149-4.58991a2.37319,2.37319,0,0,1,.25219-3.93421,2.97948,2.97948,0,0,1,1.16009-4.33772A3.81627,3.81627,0,0,1,18.31059,12.755q.06607-.00851.13241-.01471c1.71491-.20176,9.98684.60526,12.05483,1.51316C32.28335,17.86663,34.17982,22.32365,33.87719,27.2162Zm6.69154-.79018c-1.84943,1.00878-5.11114.60527-5.11114.60527a30.25629,30.25629,0,0,0-3.83334-13.48395,12.19561,12.19561,0,0,1,4.30413-1.5804A21.478,21.478,0,0,1,40.56873,26.426Z" fill="url(#b)"/></svg>