<svg xmlns="http://www.w3.org/2000/svg" xmlns:xlink="http://www.w3.org/1999/xlink" viewBox="0 0 50 50"><defs><linearGradient id="a" x1="25" x2="25" y2="50" gradientTransform="matrix(1, 0, 0, -1, 0, 50)" gradientUnits="userSpaceOnUse"><stop offset="0" stop-color="#5b8221"/><stop offset="1" stop-color="#7fb52d"/></linearGradient><linearGradient id="b" x1="25" y1="2" x2="25" y2="48" gradientTransform="matrix(1, 0, 0, -1, 0, 50)" gradientUnits="userSpaceOnUse"><stop offset="0" stop-color="#62991e"/><stop offset="1" stop-color="#97cb3a"/></linearGradient></defs><path d="M25,0A25,25,0,1,0,50,25,25,25,0,0,0,25,0Z" fill="url(#a)"/><path d="M25,5.875A19.125,19.125,0,1,0,44.125,25,19.125,19.125,0,0,0,25,5.875Z" fill="#2d2d2d"/><path d="M25,2A23,23,0,1,0,48,25,23,23,0,0,0,25,2ZM18.77083,37.26667a3.62547,3.62547,0,0,1-3.27231-3.94714q.0059-.063.014-.12578a2.83052,2.83052,0,0,1-1.10208-4.12083,2.25453,2.25453,0,0,1-.23959-3.7375c-2.20416-1.24584-2.06041-5.27084,2.34792-4.36042,0,0,5.31875.52708,5.55833-1.67708C22.31667,16.42292,19.25,16.80625,19.25,12.35s2.06042-3.78542,2.73125-2.20417-.09583.76667,3.30625,4.74375,5.03125,2.68334,8.14583,8.625c.2875,4.64792-1.51414,8.88209-3.21041,12.31459C28.25833,36.69167,20.4,37.45833,18.77083,37.26667Zm16.61113.7347A11.58481,11.58481,0,0,1,31.293,36.5a28.74349,28.74349,0,0,0,3.64167-12.80971s3.09862-.38333,4.85558.575A20.404,20.404,0,0,1,35.382,38.00137Z" fill="url(#b)"/></svg>