<svg xmlns="http://www.w3.org/2000/svg" viewBox="0 0 18 15.58846"><path d="M9,0,0,15.58846H18L9,0Z" fill="#a16d2a"/><polygon points="9 2 1.732 14.588 16.268 14.588 9 2" fill="#b38f00"/><path d="M8.05977,12.67508a.90074.90074,0,0,1,.24177-.68234.98049.98049,0,0,1,.70383-.231.95251.95251,0,0,1,.6904.2364A1.044,1.044,0,0,1,9.69308,13.344a.93548.93548,0,0,1-.68771.24446.96339.96339,0,0,1-.69845-.23909A.89454.89454,0,0,1,8.05977,12.67508ZM9.66622,10.8376H8.35527l-.274-5.24916h1.859Z" fill="#0a0a0a"/></svg>