<svg xmlns="http://www.w3.org/2000/svg" x="0px" y="0px" viewBox="0 0 27.4 28"><path d="M25,5.5h-4.1c0.6-0.6,0.8-1.3,0.8-1.6c0.2-1.7-1.3-3.5-3.1-3.8c-1-0.2-3.3-0.1-4.9,3.5c-1.6-3.7-3.9-3.7-4.9-3.5 C7,0.4,5.5,2.2,5.7,3.9c0,0.3,0.2,1,0.8,1.6H2.4C1,5.5-0.1,6.6-0.1,8v3.5V13h1.5h0.1v12.5c0,1.4,1.1,2.5,2.5,2.5h19.5 c1.4,0,2.5-1.1,2.5-2.5V13H26h1.5v-1.5V8C27.5,6.6,26.4,5.5,25,5.5z M18.3,1.5c1.1,0.2,2,1.4,1.9,2.2c-0.1,0.8-1.1,1.3-2.7,1.3h-2.8 C15.6,2.6,16.9,1.3,18.3,1.5z M9.1,1.5c0.1,0,0.2,0,0.3,0c1.3,0,2.4,1.3,3.2,3.6H9.9c-1.6,0-2.6-0.5-2.7-1.3 C7.1,2.9,7.9,1.7,9.1,1.5z M11.2,26.5H3.9c-0.6,0-1-0.4-1-1V13h8.3V26.5z M11.2,11.5H1.4V8c0-0.6,0.4-1,1-1h8.8V11.5z M14.7,26.5h-2 V13h2V26.5z M14.7,11.5h-2V7h2V11.5z M24.4,25.5c0,0.6-0.4,1-1,1h-7.3V13h8.3V25.5z M26,11.5h-9.8V7H25c0.6,0,1,0.4,1,1V11.5z"/></svg>