<svg xmlns="http://www.w3.org/2000/svg" viewBox="0 0 27.64526 28.00002"><path d="M25.01831,5.5H20.90216a2.60168,2.60168,0,0,0,.79694-1.61816A3.84324,3.84324,0,0,0,18.57019.05469C17.57013-.12744,15.307-.058,13.69562,3.59485,12.08411-.0578,9.82038-.12659,8.82117.05469A3.84325,3.84325,0,0,0,5.69226,3.88184,2.60173,2.60173,0,0,0,6.4892,5.5H2.37305a2.50286,2.50286,0,0,0-2.5,2.5v5H1.44568V25.5a2.50286,2.50286,0,0,0,2.5,2.5h19.5a2.50286,2.50286,0,0,0,2.5-2.5V13h1.57263V8A2.50282,2.50282,0,0,0,25.01831,5.5ZM18.30017,1.53027A2.37314,2.37314,0,0,1,20.205,3.74609c-.0752.83106-1.061,1.30762-2.7041,1.30762H14.73035C15.60486,2.57715,16.90613,1.26953,18.30017,1.53027Zm-9.209,0a1.87771,1.87771,0,0,1,.34375-.03222c1.26221,0,2.42383,1.28515,3.22607,3.55566H9.89051c-1.64307,0-2.62891-.47656-2.7041-1.30762A2.37313,2.37313,0,0,1,9.09119,1.53027ZM11.19568,26.5h-7.25a1,1,0,0,1-1-1V13h8.25Zm0-15H1.37305V8a1,1,0,0,1,1-1h8.82263Zm3.5,15h-2V13h2Zm0-15h-2V7h2Zm9.75,14a1,1,0,0,1-1,1h-7.25V13h8.25Zm1.57263-14H16.19568V7h8.82263a1,1,0,0,1,1,1Z" transform="translate(0.12695 0.00002)"/></svg>