<svg xmlns="http://www.w3.org/2000/svg" viewBox="0 0 25 25"><path d="M22.65471,13.06879,22.508,12.9306l.00312-.20141.00634-.40625.00293-.19165.13886-.13227c.85486-.81372,1.595-1.52661,1.995-2.00848a1.50009,1.50009,0,0,0,.24152-1.50745l-.73828-1.8753a1.5,1.5,0,0,0-1.27973-.946c-.17413-.01349-.43-.02551-.80084-.02551-.49744,0-1.09454.019-1.89667.04974l-.20447.00782-.14215-.147-.28491-.29461-.13476-.13928.00634-.19336c.03791-1.15961.06482-2.17.01-2.79206A1.50009,1.50009,0,0,0,18.51714.87634L16.71043.11719a1.49971,1.49971,0,0,0-1.57385.25836c-.4054.358-1.05023,1.00354-1.91645,1.91876l-.13574.1435-.19763-.00043-.45538-.00092L12.23472,2.436l-.13513-.143C11.50126,1.66,10.68174.79285,10.17112.36279A1.50019,1.50019,0,0,0,8.638.12134L6.78312.87848a1.50015,1.50015,0,0,0-.9253,1.23535A26.79194,26.79194,0,0,0,5.83469,4.866l.0044.197-.14045.13855-.32574.32117-.13672.13476L5.044,5.65442c-.43176-.007-.808-.01013-1.13666-.01013-.70245,0-1.24792.01446-1.6214.043a1.50013,1.50013,0,0,0-1.26208.89929L.21182,8.46069a1.50009,1.50009,0,0,0,.2259,1.5589c.39953.47754,1.13031,1.17572,1.90765,1.90949l.14624.13812-.003.20105-.00629.41284-.00293.1922L2.34,13.00555c-.85285.80964-1.59131,1.5188-1.9917,1.99872a1.49995,1.49995,0,0,0-.244,1.51044l.73853,1.87592a1.5,1.5,0,0,0,1.27832.94592c.179.014.44476.02643.83594.02643.4909,0,1.07794-.01764,1.866-.04609l.203-.00732.14166.14557.28339.2912.13549.13922-.00634.19421c-.03748,1.153-.0644,2.15723-.01459,2.77722a1.5001,1.5001,0,0,0,.9118,1.26191l1.80756.763a1.49991,1.49991,0,0,0,1.576-.25733c.40576-.35815,1.0517-1.00451,1.91992-1.921l.13611-.14374.19825.00086.45336.00183.19623.00079.13471.14246c.59918.63367,1.41986,1.50159,1.93133,1.93146a1.49979,1.49979,0,0,0,1.53187.2406l1.85986-.75891a1.49989,1.49989,0,0,0,.92658-1.24689c.05932-.6239.04235-1.65234.018-2.74054l-.00439-.198.1416-.13861.327-.32007.13691-.134.19146.0033c.4513.00775.84186.01123,1.18073.01123.67474,0,1.20441-.01429,1.5744-.04242a1.49994,1.49994,0,0,0,1.26258-.8993L24.791,16.536a1.49995,1.49995,0,0,0-.22662-1.55975C24.16539,14.50006,23.4334,13.80225,22.65471,13.06879ZM12.5,15.75a3.25,3.25,0,1,1,3.25-3.25A3.25,3.25,0,0,1,12.5,15.75Z"/></svg>