<svg xmlns="http://www.w3.org/2000/svg" viewBox="0 0 25 25"><path d="M16.12937,1.5l1.80668.75918c.05134.58246.01234,1.77493-.015,2.61128l-.0271.82853.57645.59591.285.29475.60809.62865.87407-.03346c.743-.02843,1.34632-.04862,1.8393-.04862.31712,0,.53592.00944.68483.021L23.5,9.03255c-.37606.45309-1.25728,1.292-1.875,1.88009l-.59467.56616-.0127.82089-.00629.40619-.01339.86292.62829.59183c.55224.52019,1.41332,1.33132,1.78843,1.779l-.81353,1.87756c-.23866.01815-.67874.03808-1.46061.03808-.33149,0-.71356-.00343-1.155-.011L19.167,17.8302l-.58484.5726-.32713.32018-.60642.59367.019.84837c.01729.77224.04426,1.9771-.01163,2.56506l-1.85988.7589c-.44548-.37446-1.24474-1.21966-1.80668-1.81393l-.57607-.60915-.83854-.00341-.45348-.00185-.847-.00343-.58241.61478C9.65038,22.77152,9.12581,23.27273,8.86836,23.5l-1.80755-.763c-.04709-.58634-.00848-1.77391.01864-2.60845l.027-.83178L6.526,18.70017,6.24273,18.409,5.637,17.78655l-.86812.03132c-.7288.02632-1.32371.04512-1.81184.04512-.33622,0-.56465-.0098-.71853-.02188L1.5,15.96524c.377-.45185,1.25616-1.2865,1.87264-1.87174l.597-.56664.01249-.82286.00631-.413.01305-.86128L3.375,10.83833c-.55157-.52068-1.41132-1.3324-1.78684-1.78125L2.40027,7.1829c.2435-.0186.69444-.03863,1.50715-.03863.32161,0,.68981.0031,1.11241.00994l.82129.01326L6.426,6.59088l.32571-.32113.60151-.593-.01891-.84432C7.317,4.05958,7.29,2.85113,7.35,2.26723l1.85488-.7571c.44527.375,1.24329,1.21939,1.80456,1.81328l.57775.61133.8412.00173.45532.00091.84511.00171.58076-.61369c1.038-1.09675,1.562-1.59779,1.81981-1.82537M16.12963,0a1.49955,1.49955,0,0,0-.993.37557c-.40544.358-1.05024,1.00351-1.91646,1.91873l-.13577.14347-.19764-.0004-.45536-.00091-.19668-.0004-.1351-.14295C11.50124,1.66,10.68176.79287,10.17112.36281A1.49987,1.49987,0,0,0,8.638.12136L6.78313.87846a1.5,1.5,0,0,0-.92529,1.23537A26.79441,26.79441,0,0,0,5.8347,4.866l.00442.197-.1405.13851-.32573.32116-.13671.13477L5.044,5.65441c-.43176-.007-.808-.01014-1.13662-.01014-.70246,0-1.248.01446-1.6214.043a1.5,1.5,0,0,0-1.2621.89927L.21184,8.46071a1.5,1.5,0,0,0,.22588,1.55888c.39953.47755,1.13033,1.17573,1.90763,1.90951l.14628.13809-.003.20107-.0063.41283-.00292.19218-.13938.1323c-.85284.80962-1.5913,1.51878-1.99171,1.99869a1.5,1.5,0,0,0-.244,1.51046L.8428,18.39059a1.5,1.5,0,0,0,1.27834.94593c.179.01405.44475.02648.83592.02648.49092,0,1.078-.01764,1.866-.0461l.203-.00733.14162.14555.28338.29119.1355.13925-.00632.19419c-.03747,1.153-.06441,2.15725-.01462,2.77727a1.5,1.5,0,0,0,.91183,1.26184l1.80755.763a1.49983,1.49983,0,0,0,1.576-.25733c.40578-.35817,1.05173-1.00449,1.91991-1.921l.13615-.14372.1982.00081.45343.00185.19619.00079.1347.14244c.59919.63366,1.41989,1.50158,1.93134,1.93149a1.49985,1.49985,0,0,0,1.53187.2406l1.85988-.7589a1.5,1.5,0,0,0,.92658-1.24688c.05931-.62392.04235-1.65238.018-2.74059l-.00442-.198.1416-.13862.327-.32.13691-.13405.19144.00329c.45129.00775.84188.01123,1.18076.01123.67473,0,1.20441-.01427,1.57437-.0424a1.5,1.5,0,0,0,1.26259-.89933L24.791,16.536a1.5,1.5,0,0,0-.2266-1.55973c-.399-.47622-1.131-1.174-1.9097-1.90751l-.14669-.13818.00312-.20142.00629-.40623.003-.19167.13887-.13221c.85484-.81377,1.595-1.52663,1.995-2.00849a1.5,1.5,0,0,0,.24151-1.50747l-.73826-1.87531a1.5,1.5,0,0,0-1.27973-.946c-.17415-.0135-.43-.02548-.80084-.02548-.49747,0-1.09454.019-1.89666.04972l-.20447.00783-.14219-.147-.28491-.29462-.13474-.1393.00632-.19335c.03792-1.15962.06484-2.17.01-2.792A1.5,1.5,0,0,0,18.51714.87634L16.71045.11716A1.49827,1.49827,0,0,0,16.12963,0Z"/><path d="M12.5,9.25A3.25,3.25,0,1,1,9.25,12.5,3.25,3.25,0,0,1,12.5,9.25m0-1.5a4.75,4.75,0,1,0,4.75,4.75A4.75537,4.75537,0,0,0,12.5,7.75Z"/></svg>