<svg xmlns="http://www.w3.org/2000/svg" x="0px" y="0px" viewBox="0 0 28 28"><path d="M25,1.5c0.8,0,1.5,0.7,1.5,1.5S25.8,4.5,25,4.5H3C2.2,4.5,1.5,3.8,1.5,3S2.2,1.5,3,1.5H25 M25,0H3C1.3,0,0,1.3,0,3 s1.3,3,3,3h22c1.7,0,3-1.3,3-3S26.7,0,25,0L25,0z"/> <path d="M25,12.5c0.8,0,1.5,0.7,1.5,1.5s-0.7,1.5-1.5,1.5H3c-0.8,0-1.5-0.7-1.5-1.5s0.7-1.5,1.5-1.5H25 M25,11H3c-1.7,0-3,1.3-3,3 s1.3,3,3,3h22c1.7,0,3-1.3,3-3S26.7,11,25,11L25,11z"/><path d="M25,23.5c0.8,0,1.5,0.7,1.5,1.5s-0.7,1.5-1.5,1.5H3c-0.8,0-1.5-0.7-1.5-1.5s0.7-1.5,1.5-1.5H25 M25,22H3c-1.7,0-3,1.3-3,3 s1.3,3,3,3h22c1.7,0,3-1.3,3-3S26.7,22,25,22L25,22z"/></svg>