<svg xmlns="http://www.w3.org/2000/svg" x="0px" y="0px" viewBox="0 0 28 28"><path d="M3,12.5c0.8,0,1.5,0.7,1.5,1.5S3.8,15.5,3,15.5S1.5,14.8,1.5,14S2.2,12.5,3,12.5 M3,11c-1.7,0-3,1.3-3,3s1.3,3,3,3 s3-1.3,3-3S4.7,11,3,11L3,11z"/><path d="M14,12.5c0.8,0,1.5,0.7,1.5,1.5s-0.7,1.5-1.5,1.5s-1.5-0.7-1.5-1.5S13.2,12.5,14,12.5 M14,11c-1.7,0-3,1.3-3,3s1.3,3,3,3 s3-1.3,3-3S15.7,11,14,11L14,11z"/><path d="M25,12.5c0.8,0,1.5,0.7,1.5,1.5s-0.7,1.5-1.5,1.5s-1.5-0.7-1.5-1.5S24.2,12.5,25,12.5 M25,11c-1.7,0-3,1.3-3,3s1.3,3,3,3 s3-1.3,3-3S26.7,11,25,11L25,11z"/></svg>