<svg xmlns="http://www.w3.org/2000/svg" x="0px" y="0px" viewBox="0 0 28 28"><path d="M11.2,1.5c2.5,0,5,0.9,6.9,2.8c3.4,3.4,3.7,8.8,1,12.6l7,7c0.6,0.6,0.6,1.5,0,2.1c-0.3,0.3-0.7,0.4-1.1,0.4 c-0.4,0-0.8-0.1-1.1-0.4l-7-7c-1.7,1.2-3.7,1.9-5.7,1.9c-2.5,0-5-0.9-6.8-2.8c-3.8-3.8-3.8-9.9,0-13.7C6.2,2.4,8.7,1.5,11.2,1.5 M11.2,0c-3,0-5.8,1.2-7.9,3.3c-4.4,4.4-4.4,11.5,0,15.8c2.1,2.1,4.9,3.3,7.9,3.3c2,0,3.8-0.5,5.5-1.4l6.2,6.2 c0.6,0.6,1.3,0.9,2.1,0.9c0.8,0,1.6-0.3,2.1-0.9c1.2-1.2,1.2-3.1,0-4.2l-6.2-6.2c2.5-4.3,1.8-9.8-1.8-13.4C17,1.2,14.2,0,11.2,0 L11.2,0z"/><path d="M11.2,6c1.4,0,2.7,0.5,3.7,1.5c2,2,2,5.3,0,7.4c-1,1-2.3,1.5-3.7,1.5s-2.7-0.5-3.7-1.5c-2-2-2-5.3,0-7.4 C8.5,6.5,9.8,6,11.2,6 M11.2,4.5c-1.7,0-3.4,0.7-4.7,2c-2.6,2.6-2.6,6.9,0,9.5c1.3,1.3,3,2,4.7,2s3.4-0.7,4.7-2 c2.6-2.6,2.6-6.9,0-9.5C14.6,5.2,12.9,4.5,11.2,4.5L11.2,4.5z"/></svg>