<svg xmlns="http://www.w3.org/2000/svg" x="0px" y="0px" viewBox="0 0 28 28"><path d="M22.7,16.6l-0.4,0c-0.5,0-1,0.1-1.5,0.2l-3.4-3.4l4.7-4.7l3.7-1.9L28,2.5L25.5,0l-4.3,2.2l-1.9,3.7l-4.7,4.7l-3.4-3.4 c0.1-0.5,0.2-1,0.2-1.6l0-0.3C11.2,2.3,8.7,0,5.7,0C4.9,0,4.1,0.2,3.3,0.6L2.3,1l4,4c0.1,0.1,0.1,0.2,0.2,0.3c0.1,0.3,0,0.7-0.2,1 C6.1,6.6,5.8,6.7,5.4,6.6C5.3,6.5,5.2,6.4,5.1,6.4l-4-4l-0.5,1C0.2,4.1,0,4.9,0,5.7c0,3,2.3,5.5,5.3,5.7l0.4,0c0.5,0,1-0.1,1.5-0.2 l2.5,2.5l-8.8,8.8C0.3,23.1,0,23.9,0,24.8s0.3,1.7,0.9,2.3S2.4,28,3.2,28s1.7-0.3,2.3-0.9l8.8-8.8l2.5,2.5c-0.1,0.5-0.2,1-0.2,1.6 l0,0.3c0.2,3,2.7,5.3,5.7,5.3c0.8,0,1.7-0.2,2.5-0.6l0.9-0.5l-4-4c-0.1-0.1-0.2-0.2-0.2-0.3c-0.1-0.3,0-0.7,0.2-1 c0.2-0.2,0.5-0.4,0.9-0.2c0.1,0.1,0.2,0.1,0.3,0.2l4,4l0.5-1c0.4-0.8,0.6-1.6,0.6-2.5C28,19.3,25.7,16.8,22.7,16.6z"/></svg>