<svg xmlns="http://www.w3.org/2000/svg" viewBox="0 0 26.30105 18"><path d="M13.47863,18H11.41471V9.64641H2.06392V18H0V.24862H2.06392v7.558h9.35079V.24862h2.06392Z" fill="#323232"/><path d="M26.30105,18H14.63034V16.26355l4.676-4.69967a34.39287,34.39287,0,0,0,2.81755-3.08443,7.8839,7.8839,0,0,0,1.02011-1.797,5.14413,5.14413,0,0,0,.3403-1.88251,2.98348,2.98348,0,0,0-.8624-2.25233,3.30249,3.30249,0,0,0-2.39257-.8321,6.01714,6.01714,0,0,0-2.095.36438,8.35451,8.35451,0,0,0-2.20455,1.32273L14.86109,2.0309A8.2076,8.2076,0,0,1,20.20484,0a5.64581,5.64581,0,0,1,3.92235,1.28116A4.40553,4.40553,0,0,1,25.5482,4.723a6.64561,6.64561,0,0,1-.94747,3.33887,21.21013,21.21013,0,0,1-3.5467,4.17641l-3.88661,3.8v.09712h9.13363Z" fill="#323232"/></svg>