<svg xmlns="http://www.w3.org/2000/svg" viewBox="0 0 18 18"><path d="M6.00781,11.85547H5.34375V6.14453H8.52734v.58985H6.00781V8.82422H8.375v.58984H6.00781Z" fill="#0b7a76"/><path d="M9.47266,11.85547V6.14453h.66406v5.10938h2.51953v.60156Z" fill="#0b7a76"/><path d="M9,0a9,9,0,1,0,9,9A9,9,0,0,0,9,0Zm6.47473,8.5a6.46455,6.46455,0,0,0-1.54187-3.72577l.70465-.70465A7.45824,7.45824,0,0,1,16.47467,8.5ZM4.77423,13.93286A6.46455,6.46455,0,0,0,8.5,15.47473v.99994a7.4584,7.4584,0,0,1-4.43042-1.83716ZM9.5,15.47473a6.46455,6.46455,0,0,0,3.72577-1.54187l.70465.70465A7.45877,7.45877,0,0,1,9.5,16.47467ZM9,14.5A5.5,5.5,0,1,1,14.5,9,5.50623,5.50623,0,0,1,9,14.5ZM13.22577,4.06714A6.46455,6.46455,0,0,0,9.5,2.52527V1.52533a7.45824,7.45824,0,0,1,4.43042,1.83716ZM8.5,2.52527A6.46455,6.46455,0,0,0,4.77423,4.06714l-.70465-.70465A7.45824,7.45824,0,0,1,8.5,1.52533ZM3.36249,4.06958l.70465.70465A6.46455,6.46455,0,0,0,2.52527,8.5H1.52533A7.4584,7.4584,0,0,1,3.36249,4.06958ZM1.52533,9.5h.99994a6.46455,6.46455,0,0,0,1.54187,3.72577l-.70465.70465A7.4584,7.4584,0,0,1,1.52533,9.5Zm13.11218,4.43042-.70465-.70465A6.46455,6.46455,0,0,0,15.47473,9.5h.99994A7.4584,7.4584,0,0,1,14.63751,13.93042Z" fill="#0b7a76"/></svg>