<svg xmlns="http://www.w3.org/2000/svg" viewBox="0 0 14 18"><path d="M8.63753,11.59712l-6.367-5.94785a1.7243,1.7243,0,0,1-.08269-2.435l.88164-.94485a1.72419,1.72419,0,0,1,2.435-.08269l6.367,5.94786a3.4324,3.4324,0,0,0-.99312-3.28568L6.68111.92842a3.44559,3.44559,0,0,0-4.871.16542L.9284,2.03753a3.44581,3.44581,0,0,0,.16541,4.87118L5.291,10.83036A3.43578,3.43578,0,0,0,8.63753,11.59712Z" fill="#0b7a76"/><path d="M12.90621,11.09012,8.709,7.17075A3.43156,3.43156,0,0,0,5.36369,6.404l6.36592,5.94789a1.7222,1.7222,0,0,1,.08269,2.435l-.8816.946a1.72629,1.72629,0,0,1-2.435.08269l-6.366-5.95021a3.43117,3.43117,0,0,0,.992,3.28572L7.319,17.07156a3.44557,3.44557,0,0,0,4.871-.16542l.88161-.946A3.44442,3.44442,0,0,0,12.90621,11.09012Z" fill="#0b7a76"/></svg>