<svg xmlns="http://www.w3.org/2000/svg" viewBox="0 0 20 18"><path d="M4.17245,14.61366a1.78235,1.78235,0,0,0,.58959,1.4916,2.839,2.839,0,0,0,1.72844.48377V18a4.64689,4.64689,0,0,1-2.963-.87682,2.93612,2.93612,0,0,1-1.04816-2.40873V11.66069a1.70416,1.70416,0,0,0-.63494-1.49664A3.18112,3.18112,0,0,0,0,9.71557V8.29451a3.14609,3.14609,0,0,0,1.89474-.48376,1.71545,1.71545,0,0,0,.58454-1.43113v-3.084A2.92906,2.92906,0,0,1,3.56775.86674,4.56082,4.56082,0,0,1,6.49048,0V1.4009q-2.31813.06047-2.318,2.00559V6.37962A2.386,2.386,0,0,1,1.925,8.93953v.12094a2.38606,2.38606,0,0,1,2.24748,2.55991Z"/><path d="M10.7803,13.51468a3.5434,3.5434,0,0,1-2.79166-1.10985A4.56389,4.56389,0,0,1,7,9.26468,4.70609,4.70609,0,0,1,8.00379,6.045a3.614,3.614,0,0,1,2.85985-1.13636,5.678,5.678,0,0,1,1.197.12878A3.94759,3.94759,0,0,1,13,5.34043l-.38636,1.06819a5.92885,5.92885,0,0,0-.90909-.27652,4.06356,4.06356,0,0,0-.87122-.10985q-2.53045,0-2.5303,3.22727A3.84243,3.84243,0,0,0,8.92045,11.598a2.14789,2.14789,0,0,0,1.82955.81818,5.59327,5.59327,0,0,0,2.12879-.447v1.11364A4.53749,4.53749,0,0,1,10.7803,13.51468Z"/><path d="M18.05487,8.93953a2.38587,2.38587,0,0,1-2.24748-2.55991V3.40649q0-1.945-2.28779-2.00559V0a4.4533,4.4533,0,0,1,2.91769.87682,2.96519,2.96519,0,0,1,1.06327,2.41881v3.084a1.699,1.699,0,0,0,.59462,1.43617A3.22182,3.22182,0,0,0,20,8.29451V9.71557a3.223,3.223,0,0,0-1.8645.44848,1.70419,1.70419,0,0,0-.63494,1.49664v3.05376a2.95885,2.95885,0,0,1-1.033,2.40369A4.56284,4.56284,0,0,1,13.5196,18V16.589a2.77874,2.77874,0,0,0,1.70324-.48377,1.79011,1.79011,0,0,0,.58455-1.4916V11.62038a2.50718,2.50718,0,0,1,.55431-1.75364,2.91073,2.91073,0,0,1,1.69317-.80627Z"/></svg>