<svg xmlns="http://www.w3.org/2000/svg" viewBox="0 0 26 18"><path d="M10.21354,12.94507A3.02844,3.02844,0,0,1,9.12925,15.3714a5.34828,5.34828,0,0,1-3.28107.84338H5.27781L2.58292,18H6.27909a6.94332,6.94332,0,0,0,4.56152-1.35431A4.6284,4.6284,0,0,0,12.472,12.87823a4.96689,4.96689,0,0,0-.17822-1.31121Z" transform="translate(0.00003)"/><path d="M2.09305,14.12622V9.48016H5.67582a7.39816,7.39816,0,0,1,2.7713.43677l1.40692-.932a7.35521,7.35521,0,0,0-1.48193-.41583V8.446a4.29711,4.29711,0,0,0,2.60394-1.34814,3.9129,3.9129,0,0,0,.89264-2.64093,3.78147,3.78147,0,0,0-1.60059-3.3858A9.59459,9.59459,0,0,0,5.08481,0H0V15.51276Zm0-12.31634H5.171a6.77132,6.77132,0,0,1,3.44733.671A2.37369,2.37369,0,0,1,9.70176,4.6662a2.68587,2.68587,0,0,1-.9726,2.34546,5.61243,5.61243,0,0,1-3.18878.69562H2.09305Z" transform="translate(0.00003)"/><path d="M21.90012,8.56909V8.446a4.29722,4.29722,0,0,0,2.604-1.34814,3.91286,3.91286,0,0,0,.89258-2.64093,4.99581,4.99581,0,0,0-.21338-1.42865L23.19877,4.343c.00952.10839.03106.20746.03106.32324a2.68577,2.68577,0,0,1-.97265,2.34546,5.61234,5.61234,0,0,1-3.18879.69562h-.94824l-4.5921,3.04205V18h6.279a6.94354,6.94354,0,0,0,4.56159-1.35431A4.62835,4.62835,0,0,0,26,12.87823Q26,9.271,21.90012,8.56909Zm.7572,6.80231a5.34848,5.34848,0,0,1-3.28113.84338H15.62107V9.48016h3.58276a6.02189,6.02189,0,0,1,3.42883.788,2.79683,2.79683,0,0,1,1.12659,2.4624A3.11386,3.11386,0,0,1,22.65732,15.3714Z" transform="translate(0.00003)"/><path d="M15.62107,5.16449V1.80988h3.078a11.2395,11.2395,0,0,1,1.78491.13317L22.62912.522A12.80314,12.80314,0,0,0,18.61289,0H13.52805V6.551Z" transform="translate(0.00003)"/><polygon points="26 0 24.761 0 0 16.403 0 18 1.239 18 26 1.597 26 0"/></svg>