<svg xmlns="http://www.w3.org/2000/svg" viewBox="0 0 20 28"><rect x="4" y="4.5" width="12" height="1.25" fill="#646464"/><rect x="4" y="8" width="12" height="1.25" fill="#646464"/><rect x="4" y="11.5" width="12" height="1.25" fill="#646464"/><rect x="4" y="15" width="12" height="1.25" fill="#646464"/><rect x="11.5" y="18.5" width="4.5" height="1.25" fill="#646464"/><path d="M0,0V25H4.75V23.8647A3.53105,3.53105,0,0,1,3.91288,23H2V2H18V23H9.58714a3.53176,3.53176,0,0,1-.83716.86474V25H20V0Z" transform="translate(0 -0)" fill="#646464"/><path d="M10.25,21a3.5,3.5,0,1,0-5.5,2.86468V28l2-2.5,2,2.5V23.86476A3.49413,3.49413,0,0,0,10.25,21Zm-3.5,2a2,2,0,1,1,2-2A2,2,0,0,1,6.75,23Z" transform="translate(0 -0)" fill="#646464" opacity="0.8"/></svg>