<svg xmlns="http://www.w3.org/2000/svg" viewBox="0 0 12.85714 18"><rect x="2.57143" y="2.79464" width="7.71429" height="1" fill="#646464"/><rect x="2.57143" y="5.04464" width="7.71429" height="1" fill="#646464"/><rect x="2.57143" y="7.29464" width="7.71429" height="1" fill="#646464"/><rect x="2.57143" y="9.54464" width="7.71429" height="1" fill="#646464"/><rect x="7.39286" y="11.79464" width="2.89286" height="1" fill="#646464"/><path d="M0,0V16.07143H3.05357v-.72984a2.26984,2.26984,0,0,1-.53815-.55588H1.28571v-13.5H11.57143v13.5H6.16316a2.27058,2.27058,0,0,1-.53817.55591v.72981h7.23215V0Z" fill="#646464" opacity="0.85"/><path d="M4.3442,11.24512a2.25,2.25,0,0,0-1.29065,4.09643V18l1.28571-1.60712L5.625,18V15.34161A2.25,2.25,0,0,0,4.3442,11.24512ZM4.33926,14.4a.9.9,0,1,1,.9-.9A.9.9,0,0,1,4.33926,14.4Z" fill="#646464" style="isolation:isolate"/></svg>