<svg xmlns="http://www.w3.org/2000/svg" viewBox="0 0 36.436 56.01701"><path d="M17.314,56.00956H17.06a6.7,6.7,0,0,1,.158-13.39h.227a6.7,6.7,0,1,1,.36971,13.3949Q17.56436,56.02138,17.314,56.00956Z"/><path d="M33.769,23.35056a30.4126,30.4126,0,0,1-5.492,4.916l-2.807,1.938a7.632,7.632,0,0,0-2.82,3.434,7.10818,7.10818,0,0,0-.434,2.88v.451H11.494l.031-.907c.131-3.728.223-5.921,1.768-7.733,2.424-2.846,7.771-6.289,8-6.435a8.4397,8.4397,0,0,0,1.891-1.936,6.814,6.814,0,0,0,1.623-3.972,7.741,7.741,0,0,0-1.471-4.576c-.939-1.323-2.723-1.993-5.3-1.993-2.559,0-4.311.812-5.359,2.478a9.95109,9.95109,0,0,0-1.623,5.35v.457H0l.02-.477c.285-6.769,2.7-11.643,7.178-14.487a18.90014,18.90014,0,0,1,10.4-2.729c5.346,0,9.859,1.3,13.412,3.861,3.6,2.6,5.426,6.484,5.426,11.556A13.22,13.22,0,0,1,33.769,23.35056Z"/></svg>