<svg xmlns="http://www.w3.org/2000/svg" viewBox="0 0 18 18"><path d="M15.36727,2.63367a9.00408,9.00408,0,1,0-.00034,12.73293A9.01422,9.01422,0,0,0,15.36727,2.63367ZM14.38478,14.3848a7.61529,7.61529,0,1,1,.00034-10.76949A7.624,7.624,0,0,1,14.38478,14.3848ZM5.64142,6.5631A1.05234,1.05234,0,1,1,6.69384,7.61568,1.05257,1.05257,0,0,1,5.64142,6.5631Zm4.772,0a1.05251,1.05251,0,1,1,1.05276,1.05258A1.05285,1.05285,0,0,1,10.41338,6.5631Zm2.48806,4.31028a4.20168,4.20168,0,0,1-3.89112,2.48277A4.17268,4.17268,0,0,1,5.096,10.86082a.5091.5091,0,1,1,.9404-.39035,3.1585,3.1585,0,0,0,2.974,1.86755,3.18421,3.18421,0,0,0,2.95649-1.86874.50912.50912,0,0,1,.93463.4041Z"/></svg>