<svg xmlns="http://www.w3.org/2000/svg" viewBox="0 0 26 22"><path d="M18.6875,2a5.53225,5.53225,0,0,1,5.2998,5.4743l.002.082-.01178.10931-.00757.06964-.00262.07C23.69208,15.1163,15.28387,18.932,12.90363,19.867,10.54681,18.92468,2.29205,15.10681,2.03125,7.79315L2.02869,7.7207l-.00782-.07208-.00964-.08874L2.0127,7.4743A5.53225,5.53225,0,0,1,7.3125,2a5.207,5.207,0,0,1,4.09967,2.15924L13,6.23254l1.58783-2.0733A5.20685,5.20685,0,0,1,18.6875,2m0-2A7.20791,7.20791,0,0,0,13,2.94318,7.20808,7.20808,0,0,0,7.3125,0,7.55645,7.55645,0,0,0,.013,7.43964H0l.00488.07055L0,7.5647l.03253.29974C.39,17.88983,12.89764,22,12.89764,22S25.58887,17.89462,25.96588,7.88049L26,7.5647l-.00488-.05451L26,7.43964h-.013A7.55645,7.55645,0,0,0,18.6875,0Z" fill="#323232"/></svg>