<svg xmlns="http://www.w3.org/2000/svg" viewBox="0 0 34 28"><path d="M13.5,2C19.84113,2,25,6.486,25,12S19.84113,22,13.5,22a12.89868,12.89868,0,0,1-4.42351-.77448l-.97044-.353-.84973.58679A13.32355,13.32355,0,0,1,4.91568,22.764a12.22153,12.22153,0,0,0,.78647-1.754l.43593-1.2446-.97223-.891A9.30556,9.30556,0,0,1,2,12C2,6.486,7.15887,2,13.5,2m0-2C6.04419,0,0,5.37262,0,12a11.30562,11.30562,0,0,0,3.81458,8.34882A16.53041,16.53041,0,0,1,.46741,25.47351a5.23586,5.23586,0,0,0,.97375.0737A12.35354,12.35354,0,0,0,8.39276,23.105,14.92357,14.92357,0,0,0,13.5,24C20.95587,24,27,18.62744,27,12S20.95587,0,13.5,0Z" fill="#646464"/><path d="M30.4744,22.88336a11.30556,11.30556,0,0,0,3.51812-8.478A11.7888,11.7888,0,0,0,27.07675,4.36505,13.41886,13.41886,0,0,1,29.5,12c0,7.15979-5.76141,13.1087-13.3,14.2771a14.946,14.946,0,0,0,9.79614-.478C30.58121,28.7323,34,27.887,34,27.887A16.53057,16.53057,0,0,1,30.4744,22.88336Z" fill="#646464" fill-opacity="0.8"/><circle cx="19.50019" cy="12.00002" r="1.5" fill="#646464"/><circle cx="13.50019" cy="12.00002" r="1.5" fill="#646464"/><circle cx="7.49981" cy="12.00002" r="1.5" fill="#646464"/></svg>