<svg xmlns="http://www.w3.org/2000/svg" viewBox="0 0 34 28"><path d="M28.74164,28c-.09473,0-.18652-.00391-.27637-.01074-2.23636-.17091-3.19439-2.2833-3.82819-3.68082l-.11328-.24708a10.60145,10.60145,0,0,0-1.91116-3.09,6.61974,6.61974,0,0,0-4.004-1.79891,10.96713,10.96713,0,0,0-5.14559.46194,5.92956,5.92956,0,0,0-2.6016,1.94246A14.2953,14.2953,0,0,0,9.3634,24.30746c-.68361,1.4903-1.69095,3.70133-4.20564,3.69156-1.83645-.03613-3.2188-1.44244-4.108-4.18084A23.58483,23.58483,0,0,1,.03414,17.45756a27.70074,27.70074,0,0,1,.46241-6.8167A11.45431,11.45431,0,0,1,3.05714,5.28614C5.54888,2.45789,9.64367.66875,14.89962.114a22.77861,22.77861,0,0,1,8.0597.6514c5.004,1.28423,8.53823,4.04705,9.95329,7.77767h0a14.502,14.502,0,0,1,.69825,2.66711,29.51334,29.51334,0,0,1,.31837,6.93389,21.5652,21.5652,0,0,1-1.14651,6.15749C31.67821,27.30856,30.02584,28,28.74164,28ZM16.8977,17.062a15.63878,15.63878,0,0,1,1.96195.126,8.6825,8.6825,0,0,1,5.17586,2.37706,12.29653,12.29653,0,0,1,2.30668,3.66226l.11621.2549c.64552,1.42389,1.17873,2.4376,2.15824,2.5128.34278.02539,1.376.10059,2.2891-2.38291a19.66576,19.66576,0,0,0,1.02736-5.595,27.55365,27.55365,0,0,0-.292-6.46024,12.573,12.573,0,0,0-.59962-2.30478h0C29.45357,5.0625,24.98475,3.35051,22.46127,2.703a20.8083,20.8083,0,0,0-7.35169-.60061C11.7985,2.453,7.27987,3.51848,4.55765,6.60846a9.36367,9.36367,0,0,0-2.10208,4.43671,25.72057,25.72057,0,0,0-.42335,6.32645A21.692,21.692,0,0,0,2.95216,23.201c.606,1.86531,1.34035,2.78039,2.24515,2.798l.03321.001c1.07228,0,1.63674-1.04887,2.315-2.52647A15.76747,15.76747,0,0,1,9.27257,20.362a7.93087,7.93087,0,0,1,3.47907-2.59679A11.71825,11.71825,0,0,1,16.8977,17.062Z" fill="#646464"/><path d="M25.40636,8.26327a1.125,1.125,0,1,1-1.125-1.12487A1.125,1.125,0,0,1,25.40636,8.26327Z" fill="#646464"/><path d="M25.40636,14.09475a1.125,1.125,0,1,1-1.125-1.125A1.12492,1.12492,0,0,1,25.40636,14.09475Z" fill="#646464"/><path d="M28.3695,11.17507a1.125,1.125,0,1,1-1.125-1.12513A1.12494,1.12494,0,0,1,28.3695,11.17507Z" fill="#646464"/><path d="M22.44322,11.17507a1.125,1.125,0,1,1-1.125-1.12513A1.12494,1.12494,0,0,1,22.44322,11.17507Z" fill="#646464"/><path d="M12.686,10.08314h-1.75v-1.75a.5.5,0,0,0-.5-.5h-1.5a.5.5,0,0,0-.5.5v1.75H6.686a.5.5,0,0,0-.5.5v1.5a.5.5,0,0,0,.5.5h1.75v1.75a.5.5,0,0,0,.5.5h1.5a.5.5,0,0,0,.5-.5v-1.75h1.75a.5.5,0,0,0,.5-.5v-1.5A.5.5,0,0,0,12.686,10.08314Z" fill="#646464"/></svg>