<svg xmlns="http://www.w3.org/2000/svg" viewBox="0 0 36 28"><path d="M29,0H7A7,7,0,0,0,0,7V28H36V7A7,7,0,0,0,29,0ZM6,2.10107A5.00508,5.00508,0,0,1,7,2H29a5.00508,5.00508,0,0,1,1,.10107V9H6ZM6,10.5H30V13H6Zm12,5.75a.75.75,0,0,0,.75-.75v-1H22v1a4,4,0,0,1-8,0v-1h3.25v1A.75.75,0,0,0,18,16.25ZM2,7A4.98374,4.98374,0,0,1,4.5,2.6955V20.21387A8.93062,8.93062,0,0,0,2,19.23071ZM2,26V20.77905A7.51847,7.51847,0,0,1,7.221,26Zm6.76929,0A8.97983,8.97983,0,0,0,6,21.30524V14.5h6.5v1a5.5,5.5,0,0,0,11,0v-1H30v6.80524h0A8.97983,8.97983,0,0,0,27.23071,26ZM34,26H28.77905A7.51847,7.51847,0,0,1,34,20.77905Zm-2.5-5.78613V2.6955A4.98374,4.98374,0,0,1,34,7V19.23071A8.93062,8.93062,0,0,0,31.5,20.21387Z" fill="#646464"/></svg>