<svg xmlns="http://www.w3.org/2000/svg" viewBox="0 0 23.99991 28"><path d="M8.75,2a3.37845,3.37845,0,0,1,3.25,3.2502A3.37842,3.37842,0,0,1,8.75,8.50034,3.37845,3.37845,0,0,1,5.5,5.25014,3.37842,3.37842,0,0,1,8.75,2m0-2A5.36834,5.36834,0,0,0,3.5,5.25014a5.36843,5.36843,0,0,0,5.25,5.2502,5.36957,5.36957,0,0,0,5.25-5.25014A5.36962,5.36962,0,0,0,8.75,0Z" fill="#646464"/><path d="M8.75,14.25037c3.59581,0,6.75,4.26489,6.75,9.12686C15.5,24.79892,12.40888,26,8.75,26S2,24.79892,2,23.37723c0-4.862,3.15419-9.12686,6.75-9.12686m0-2c-4.599,0-8.75,4.96138-8.75,11.12686C0,26.45908,4.375,28,8.75,28s8.75-1.54092,8.75-4.62277c0-6.16542-4.151-11.12686-8.75-11.12686Z" fill="#646464"/><polygon points="24 4.25 21.5 4.25 21.5 1.75 19.5 1.75 19.5 4.25 17 4.25 17 6.25 19.5 6.25 19.5 8.75 21.5 8.75 21.5 6.25 24 6.25 24 4.25" fill="#646464"/></svg>