<svg xmlns="http://www.w3.org/2000/svg" viewBox="0 0 27.13 28"><title>notifications</title><path d="M5.5,3.28464l-1.375-1.375A10.35557,10.35557,0,0,0,0,9.57036H1.96429A8.11663,8.11663,0,0,1,5.5,3.28464Z" fill="#646464"/><path d="M25.13,9.64h2a10.44414,10.44414,0,0,0-4.1-7.8l-1.4,1.4A8.45823,8.45823,0,0,1,25.13,9.64Z" fill="#646464"/><path d="M13.63,4.65466l1.5307.36948A6.9948,6.9948,0,0,1,20.63,11.9v8.52845l.58578.58578.78577.78577H5.05844l.78577-.78577L6.43,20.42844V11.9a6.9948,6.9948,0,0,1,5.4693-6.87585L13.43,4.65466M13.53,0a2.15316,2.15316,0,0,0-2.1,2.1v.98a9.009,9.009,0,0,0-7,8.82v7.7l-2.8,2.8v1.4h23.8V22.4l-2.8-2.8V11.9a9.009,9.009,0,0,0-7-8.82V2.1A2.15316,2.15316,0,0,0,13.53,0Z" fill="#646464"/><path d="M13.53,28h.56a2.43465,2.43465,0,0,0,1.96-1.68,2.63768,2.63768,0,0,0,.28-1.12h-5.6A2.80823,2.80823,0,0,0,13.53,28Z" fill="#646464"/></svg>