<svg xmlns="http://www.w3.org/2000/svg" viewBox="0 0 26 26"><path d="M16.43364,2.18927l1.78241.73877-.32532,1.40778-.27765,1.20175.94916.78763a8.61949,8.61949,0,0,1,1.11517,1.11428l.788.94635,1.19977-.27755L23.07133,7.783l.73816,1.78213-1.22491.76523-1.04413.65232.11212,1.226a8.63638,8.63638,0,0,1-.00049,1.57809l-.11352,1.228,1.04632.65286,1.225.76435-.73865,1.78326-1.40783-.32544-1.201-.27762-.78778.94811a8.63052,8.63052,0,0,1-1.114,1.11612l-.94659.78778.27734,1.19987.32526,1.40738L16.43382,23.81l-.76434-1.22445-.65222-1.0449-1.22663.11225c-.25805.02362-.52118.0356-.782.0356-.26453,0-.53278-.01232-.79736-.03659l-1.22705-.11258-.65241,1.04535L9.5667,23.81062l-1.78205-.7382.32575-1.40834.27783-1.2011L7.44,19.67511a8.64911,8.64911,0,0,1-1.11652-1.11517l-.788-.94658-1.2.27762-1.40613.32533L2.19084,16.433l1.22492-.76547,1.04382-.65228-.112-1.22574a8.68176,8.68176,0,0,1,.00085-1.57861L4.46117,10.984l-1.04511-.65253L2.19047,9.56622l.7381-1.78262L4.33806,8.109l1.20111.27728.78747-.94842A8.623,8.623,0,0,1,7.441,6.32242l.94709-.7883-.2782-1.20041L7.78416,2.92822l1.78351-.7388.76477,1.2247.652,1.04419,1.226-.11178c.2594-.02365.5232-.03562.78406-.03562.26416,0,.53107.01227.79327.03653l1.22779.1135.653-1.046.76514-1.22571M9.87443,0A1.24851,1.24851,0,0,0,9.396.09573L6.42546,1.32626a1.23073,1.23073,0,0,0-.72259,1.4798l.45867,1.97919A10.60356,10.60356,0,0,0,4.788,6.16022l-1.95386-.451A1.16662,1.16662,0,0,0,2.49693,5.66a1.28143,1.28143,0,0,0-1.17.76383L.09654,9.39532a1.22823,1.22823,0,0,0,.536,1.556L2.35686,12.028a10.66113,10.66113,0,0,0-.001,1.94355L.65739,15.0329a1.23951,1.23951,0,0,0-.56018,1.57193L1.3275,19.57518a1.24341,1.24341,0,0,0,1.13946.77307,1.159,1.159,0,0,0,.3396-.05069l1.9798-.45805a10.63149,10.63149,0,0,0,1.37549,1.37388l-.45142,1.95174a1.23962,1.23962,0,0,0,.71436,1.50877l2.97034,1.23046a1.23564,1.23564,0,0,0,.95227.00044,1.21745,1.21745,0,0,0,.60467-.53642l1.07642-1.72483q.489.04486.9801.04494.48294,0,.96429-.0439l1.06049,1.69892a1.23929,1.23929,0,0,0,1.57147.56045l2.97058-1.23054a1.23083,1.23083,0,0,0,.72235-1.47922L19.84,21.2137a10.61955,10.61955,0,0,0,1.373-1.37524l1.95147.45109a1.16672,1.16672,0,0,0,.33863.04958,1.28081,1.28081,0,0,0,1.16986-.76438l1.23016-2.96992a1.23054,1.23054,0,0,0-.53491-1.55789L23.6436,13.97086a10.626,10.626,0,0,0,.00067-1.94434l1.69782-1.06067a1.23637,1.23637,0,0,0,.56164-1.571L24.67345,6.4245a1.244,1.244,0,0,0-1.14045-.773,1.16391,1.16391,0,0,0-.33886.05023l-1.9798.458a10.59593,10.59593,0,0,0-1.37494-1.3736L20.29076,2.833a1.23866,1.23866,0,0,0-.71534-1.5065L16.60478.09525a1.2348,1.2348,0,0,0-.95148.00021,1.2173,1.2173,0,0,0-.60461.53546l-1.07678,1.725q-.48706-.045-.97742-.045-.48321,0-.96564.04389L10.96757.65521A1.23985,1.23985,0,0,0,9.87443,0Z" fill="#323232"/><path d="M13.00706,18.38245A5.38345,5.38345,0,0,1,10.94066,8.025h0a5.38339,5.38339,0,1,1,2.0664,10.35743ZM11.70628,9.87268a3.38755,3.38755,0,1,0,2.58789.00195,3.35187,3.35187,0,0,0-2.58789-.00195Z" fill="#323232"/></svg>