<svg xmlns="http://www.w3.org/2000/svg" viewBox="0 0 33.7125 28"><path d="M30.70528,17.62423,25.592,12.44236l3.076-.54846a12.01406,12.01406,0,0,0-13.027-9.83057.9869.9869,0,0,1-1.05907-.81876A1.01073,1.01073,0,0,1,15.491.06841,13.99876,13.99876,0,0,1,30.63654,11.54288l3.076-.54846Z" fill="#323232"/><path d="M18.22147,27.93159A13.99871,13.99871,0,0,1,3.076,16.45712L0,17.00558l3.00721-6.62981,5.11332,5.18187-3.076.54846a12.014,12.014,0,0,0,13.027,9.83057.98694.98694,0,0,1,1.05907.81876A1.0107,1.0107,0,0,1,18.22147,27.93159Z" fill="#323232"/><path d="M16.8562,23.00236A1.53861,1.53861,0,1,1,18.39969,21.463,1.54192,1.54192,0,0,1,16.8562,23.00236Z" fill="#323232"/><path d="M19.5802,15.65232c-.63.34525-1.224,1.02821-1.224,1.30622a1.5,1.5,0,0,1-3,0c0-1.89806,1.746-3.35968,2.778-3.92462a2.6676,2.6676,0,0,0,1.722-2.51975c0-2.19543-1.87948-2.52276-3-2.52276a2.88419,2.88419,0,0,0-3,3.02041,1.5,1.5,0,0,1-3,0,5.88042,5.88042,0,0,1,6-6.00946c2.9865,0,6,1.70376,6,5.51181A5.63078,5.63078,0,0,1,19.5802,15.65232Z" fill="#323232"/></svg>