<svg xmlns="http://www.w3.org/2000/svg" viewBox="0 0 34 28"><path d="M8.75,2A3.37845,3.37845,0,0,1,12,5.25018,3.37843,3.37843,0,0,1,8.75,8.50034,3.37847,3.37847,0,0,1,5.5,5.25014,3.37842,3.37842,0,0,1,8.75,2m0-2A5.36834,5.36834,0,0,0,3.5,5.25014a5.36844,5.36844,0,0,0,5.25,5.2502A5.36955,5.36955,0,0,0,14,5.2502,5.3696,5.3696,0,0,0,8.75,0Z" fill="#646464"/><path d="M8.75,14.25037c3.59581,0,6.75,4.26489,6.75,9.12686C15.5,24.79892,12.40887,26,8.75,26S2,24.79892,2,23.37723c0-4.862,3.15419-9.12686,6.75-9.12686m0-2c-4.599,0-8.75,4.96138-8.75,11.12686C0,26.45908,4.375,28,8.75,28s8.75-1.54092,8.75-4.62277C17.5,17.21181,13.349,12.25037,8.75,12.25037Z" fill="#646464"/><path d="M31.23044,14.25429l.00671-.43585c2.57294-2.45007,3.04169-2.97766,2.63239-4.01624L32.83231,7.16811c-.419-1.064-1.182-1.1001-4.61194-.96881l-.30579-.31623c.1131-3.46038.07575-4.23052-.949-4.67224L24.36771.1191A1.49106,1.49106,0,0,0,23.24515.11373c-.26843.10931-.60108.245-2.82892,2.59936l-.4884-.001C17.57919.22646,17.01505-.28355,16.00613.12783L15.35672.393A8.12935,8.12935,0,0,1,17,5.2502a8.23007,8.23007,0,0,1-2.521,5.86853,12.54151,12.54151,0,0,1,2.10242,1.84986,3.32148,3.32148,0,0,1,.10193-.3498,3.68725,3.68725,0,0,1,2.00018-1.96252,3.63528,3.63528,0,0,1,1.3761-.27185,3.54785,3.54785,0,0,1,3.312,2.24121,3.59515,3.59515,0,0,1-.05365,2.759,3.67771,3.67771,0,0,1-1.99878,1.962v.001a3.59629,3.59629,0,0,1-1.90747.21955,16.035,16.035,0,0,1,1.08827,5.81,6.07361,6.07361,0,0,1-.34351,1.99987C21.97006,27.29329,22.701,28,23.42538,28a1.499,1.499,0,0,0,.5694-.12689l2.64484-1.07959c1.03436-.42267,1.08038-1.18793,1.00366-4.61512l.35089-.34362c3.23822.05566,3.58618-.09272,3.82391-.19031a1.52617,1.52617,0,0,0,.80811-.78772l1.14557-2.64435C34.21463,17.15627,33.70847,16.58913,31.23044,14.25429Z" fill="#646464" opacity="0.8"/></svg>