<svg xmlns="http://www.w3.org/2000/svg" viewBox="0 0 38 28"><path d="M0,0V28H38V0Zm2,8.3684,10.46875,7.16285L2,26ZM36,26,25.53125,15.53123,36,8.36838Zm0-19.449-12.39246,8.479a1.2731,1.2731,0,0,1-.13122.26136,1.27055,1.27055,0,0,0,0,1.41742,1.24473,1.24473,0,0,1,.08539.1701l.71-.48578L33.87866,26H4.12134L13.72827,16.393l.71.48578a1.24473,1.24473,0,0,1,.08539-.1701,1.27055,1.27055,0,0,0,0-1.41742,1.2731,1.2731,0,0,1-.13122-.26136L2,6.55094V2H36Z" transform="translate(0 0.00002)" fill="#646464"/><path d="M18.29129,11.52366h0a1.27045,1.27045,0,0,0,1.4174,0h0a1.27045,1.27045,0,0,1,1.95541.81h0a1.27047,1.27047,0,0,0,1.00226,1.00226h0a1.27045,1.27045,0,0,1,.81,1.95541h0a1.27045,1.27045,0,0,0,0,1.4174h0a1.27045,1.27045,0,0,1-.81,1.95541h0a1.27047,1.27047,0,0,0-1.00226,1.00226h0a1.27045,1.27045,0,0,1-1.95541.81h0a1.27045,1.27045,0,0,0-1.4174,0h0a1.27045,1.27045,0,0,1-1.95541-.81h0a1.27047,1.27047,0,0,0-1.00226-1.00226h0a1.27045,1.27045,0,0,1-.81-1.95541h0a1.27045,1.27045,0,0,0,0-1.4174h0a1.27045,1.27045,0,0,1,.81-1.95541h0a1.27047,1.27047,0,0,0,1.00226-1.00226h0A1.27045,1.27045,0,0,1,18.29129,11.52366Z" transform="translate(0 0.00002)" fill="#646464" opacity="0.8"/></svg>