<svg xmlns="http://www.w3.org/2000/svg" viewBox="0 0 36 28"><path d="M25,13.5V0H11V8.5H0V28H36V13.5ZM2,26V10.5h9.5V26Zm21,0H13V2H23Zm11,0H24.5V15.5H34Z" fill="#646464"/><path d="M31.54,18.86035a1.67858,1.67858,0,0,1-.40527,1.1377,2.10185,2.10185,0,0,1-1.1377.64453v.0293a2.27358,2.27358,0,0,1,1.30859.5249A1.47131,1.47131,0,0,1,31.75,22.32227a1.90653,1.90653,0,0,1-.74707,1.604A3.44408,3.44408,0,0,1,28.86914,24.5a5.17847,5.17847,0,0,1-2.06055-.38574V22.83008a4.64016,4.64016,0,0,0,.91309.3418,3.84415,3.84415,0,0,0,.98633.13183,1.916,1.916,0,0,0,1.10351-.25391.93261.93261,0,0,0,.35645-.81542.73647.73647,0,0,0-.41016-.7129,3.033,3.033,0,0,0-1.30859-.21h-.542V20.1543H28.459a2.559,2.559,0,0,0,1.2129-.21729.78457.78457,0,0,0,.38378-.74463q0-.81078-1.01562-.81054a2.33056,2.33056,0,0,0-.71582.11718,3.49858,3.49858,0,0,0-.80762.40528l-.69824-1.04a3.881,3.881,0,0,1,2.3291-.70313,3.011,3.011,0,0,1,1.751.44922A1.44106,1.44106,0,0,1,31.54,18.86035Z" fill="#646464"/><path d="M9.25977,19.24121H4.26953v-1.0498l1.792-1.81153q.79616-.81446,1.04-1.12988a2.48622,2.48622,0,0,0,.35157-.584,1.48005,1.48005,0,0,0,.10742-.55664.813.813,0,0,0-.23682-.63965.91953.91953,0,0,0-.63232-.21,1.81722,1.81722,0,0,0-.80567.19043,4.1625,4.1625,0,0,0-.81543.542L4.25,13.02051a5.41945,5.41945,0,0,1,.874-.63477,3.21907,3.21907,0,0,1,.75684-.28515A3.84379,3.84379,0,0,1,6.79883,12a2.72793,2.72793,0,0,1,1.18164.24414,1.88846,1.88846,0,0,1,.7959.68359,1.81619,1.81619,0,0,1,.2832,1.00586,2.46019,2.46019,0,0,1-.17334.92579,3.55044,3.55044,0,0,1-.53711.88574,13.13162,13.13162,0,0,1-1.28174,1.29394l-.918.86426v.06836H9.25977Z" fill="#646464"/><path d="M19.77,10.63818H18.26123V6.50781l.01465-.67871.02441-.74219q-.37645.37574-.52246.49317l-.82031.65918L16.23,5.33105,18.52979,3.5H19.77Z" fill="#646464"/></svg>