<svg xmlns="http://www.w3.org/2000/svg" viewBox="0 0 36.66699 28"><title>upload 28</title><path d="M29.167,28H19.5V17.333h3.54834L18.3335,11.292l-4.71534,6.041H17.1665V28H8.5835A8.5654,8.5654,0,0,1,6.53125,11.11426,11.82861,11.82861,0,1,1,30.103,13.05859,7.5,7.5,0,0,1,29.167,28ZM21.5,26h7.667a5.5001,5.5001,0,0,0,.0459-11l-1.51562.14746.26855-1.32422A10.04433,10.04433,0,0,0,28.1665,11.833a9.83325,9.83325,0,0,0-19.6665,0l.00586.00976.09424.95313-.94824.13574A6.56617,6.56617,0,0,0,8.5835,26h6.583V19.333h-5.647l8.814-11.291L27.147,19.333H21.5Z" fill="#646464"/></svg>