<svg xmlns="http://www.w3.org/2000/svg" viewBox="0 0 20 20.00002"><path d="M12.78128,1.56991l1.38428.58194c.03934.44641.00946,1.36035-.0115,2.00134l-.02076.635.44169.45672.21841.2259.46594.48181.66974-.02564c.56928-.02179,1.03159-.03727,1.40933-.03727.243,0,.41065.00724.52475.01609l.56568,1.43727c-.28815.34726-.96338.99024-1.43671,1.44094l-.45566.43391-.00973.62915-.00482.31131-.01026.66136.48142.45359c.42315.39869,1.08294,1.02035,1.37036,1.36346l-.62335,1.439c-.18287.01391-.52008.02919-1.11918.02919-.254,0-.54675-.00263-.885-.00844l-.62713-.01078-.44812.43886L14.41,14.77l-.46466.455.01452.65021c.01325.59186.03391,1.51529-.00891,1.96591l-1.42511.58164c-.34134-.287-.95376-.93477-1.38434-1.39023l-.4414-.46687-.64252-.00261-.34747-.00142-.649-.00263-.44626.47118c-.79806.8427-1.2,1.22684-1.39727,1.401l-1.385-.5848c-.03608-.44938-.0065-1.35956.01428-1.99917l.02072-.63749-.44476-.4572-.21708-.22312-.46412-.47709-.66518.024c-.55844.02017-1.01428.03458-1.3883.03458-.25762,0-.43265-.00751-.55056-.01677l-.56587-1.4377c.28888-.34631.96251-.986,1.43488-1.43454L3.464,10.7876l.00957-.63066L3.4784,9.8404l.01-.6601-.48-.45324C2.58577,8.328,1.927,7.70588,1.63927,7.36187l.62224-1.4364c.18658-.01426.5321-.02961,1.15483-.02961.24643,0,.52856.00238.85237.00762l.6293.01016.44816-.44191.24957-.24612.4609-.4545L6.04215,4.124c-.01328-.59231-.034-1.51849.012-1.966l1.42127-.58026c.34118.28741.95266.93457,1.38272,1.38974l.44269.46853.64456.00132.34888.0007.64755.00131.445-.47034c.79538-.84057,1.19689-1.22458,1.3944-1.399M7.55484,0a1.07264,1.07264,0,0,0-.40762.09134L5.26047.86178c-.73746.30047-.7717.89627-.71794,3.29577l-.24959.24613c-.333-.00537-.62317-.00782-.8766-.00782A4.99035,4.99035,0,0,0,1.56224,4.54,1.08648,1.08648,0,0,0,.983,5.10335L.16883,6.98273c-.32389.7551.03766,1.16159,1.80974,2.83493l-.00481.31655C.136,11.87937-.19921,12.25448.09316,12.99633l.7419,1.88392c.22866.579.59993.73069,1.85315.73069.38861,0,.86224-.01461,1.44246-.03556l.217.22312c-.08183,2.5177-.05615,3.01831.67548,3.33484l1.86212.78578a1.027,1.027,0,0,0,.39508.077,1.07379,1.07379,0,0,0,.403-.07774c.191-.07808.428-.175,2.02063-1.85672l.34751.0014C11.39426,19.48336,11.92081,20,12.44669,20a1.07037,1.07037,0,0,0,.40674-.09066l1.88916-.77113c.73883-.3019.7717-.84853.71692-3.29649l.25061-.24543c.34814.006.64944.00866.91079.00866a4.825,4.825,0,0,0,1.82056-.14461,1.09011,1.09011,0,0,0,.57724-.56267l.81824-1.88879c.31634-.75441-.04517-1.1595-1.81522-2.82727l.00482-.31131c1.8378-1.75,2.17264-2.1269,1.88025-2.86875l-.74087-1.88147c-.22687-.57622-.59494-.73036-1.82752-.73036-.39312,0-.87426.01569-1.4667.03836l-.21845-.22589c.08081-2.47168.05411-3.02182-.67788-3.33731L13.11979.085a1.01846,1.01846,0,0,0-.40146-.08023A1.08035,1.08035,0,0,0,12.318.08123c-.19175.07806-.42932.175-2.02063,1.85672l-.34888-.0007C8.60682.51729,8.08051,0,7.55484,0Z" transform="translate(0 0.00001)" fill="#0b7a76"/><path d="M10.04067,7.5a2.44966,2.44966,0,0,1,2.28679,1.54854,2.48591,2.48591,0,0,1-.03708,1.90634,2.54,2.54,0,0,1-1.38,1.35565v.00067a2.51006,2.51006,0,0,1-.951.1888,2.46531,2.46531,0,0,1-.96717-.19823A2.42229,2.42229,0,0,1,7.67247,10.9495a2.48408,2.48408,0,0,1,.03707-1.90567,2.54665,2.54665,0,0,1,1.381-1.356A2.508,2.508,0,0,1,10.04067,7.5m0-1.5a3.99376,3.99376,0,0,0-1.51716.29919A4.03829,4.03829,0,0,0,6.33281,8.449a3.97579,3.97579,0,0,0-.05581,3.05A3.96285,3.96285,0,0,0,9.95941,14a4.04407,4.04407,0,0,0,3.76343-5.50116A3.93139,3.93139,0,0,0,10.04067,6Z" transform="translate(0 0.00001)" fill="#0b7a76"/></svg>