<svg xmlns="http://www.w3.org/2000/svg" viewBox="0 0 11.5 28"><path d="M11.00008,22.71854a.39077.39077,0,0,0-.49006-.13312,45.594,45.594,0,0,1-4.53,1.95643.377.377,0,0,1-.05033-.05764.51281.51281,0,0,1-.08622-.314c0-1.08752.8203-4.39582,2.438-9.83253,1.364-4.56795,1.5217-5.51375,1.5217-5.82776a1.48359,1.48359,0,0,0-.53657-1.18458,2.123,2.123,0,0,0-1.38492-.41467,7.25336,7.25336,0,0,0-3.45046,1.131,18.54986,18.54986,0,0,0-4.32976,3.714.391.391,0,0,0,.437.625c.55-.22462,3.31415-1.35765,3.71707-1.6109a1.6948,1.6948,0,0,1,.84889-.312l.02158.00079a.41341.41341,0,0,1,.00547.073,2.95563,2.95563,0,0,1-.14507.83708c-2.35543,7.63653-3.5004,12.318-3.5004,14.312a2.38136,2.38136,0,0,0,.58089,1.68371A2.05788,2.05788,0,0,0,3.64146,28,5.49172,5.49172,0,0,0,6.227,27.112a30.14231,30.14231,0,0,0,4.718-3.88838A.39105.39105,0,0,0,11.00008,22.71854Z" fill="#323232"/><path d="M10.9245.59416A1.96842,1.96842,0,0,0,9.46064,0,2.49053,2.49053,0,0,0,7.571.85805a2.92066,2.92066,0,0,0-.77675,2.0423,2.16094,2.16094,0,0,0,.57213,1.54739,1.91953,1.91953,0,0,0,1.44409.60958A2.4961,2.4961,0,0,0,10.69,4.15117,2.98675,2.98675,0,0,0,11.5,2.087,2.06012,2.06012,0,0,0,10.9245.59416Z" fill="#323232"/></svg>