<svg xmlns="http://www.w3.org/2000/svg" viewBox="0 0 18 18"><path d="M12.1066,1.5,16.5,5.8934v6.2132L12.1066,16.5H5.8934L1.5,12.1066V5.8934L5.8934,1.5h6.2132M12.72792,0H5.27208L0,5.27208v7.45584L5.27208,18h7.45584L18,12.72792V5.27208L12.72792,0Z" fill="#0b7a76"/><path d="M7.83984,13.62109a1.05869,1.05869,0,0,1,1.17188-1.17968,1.1215,1.1215,0,0,1,.85156.3125,1.21009,1.21009,0,0,1,.29688.86718A1.24182,1.24182,0,0,1,9.85938,14.5a1.10162,1.10162,0,0,1-.84766.32422,1.15907,1.15907,0,0,1-.86328-.3125A1.21154,1.21154,0,0,1,7.83984,13.62109Zm1.85938-2.49218H8.33984L7.93359,3.17578h2.16407Z" fill="#0b7a76"/></svg>