<svg xmlns="http://www.w3.org/2000/svg" xmlns:xlink="http://www.w3.org/1999/xlink" viewBox="0 0 48.36681 58.00032"><defs><linearGradient id="a" x1="24.18341" y1="58.00032" x2="24.18341" gradientUnits="userSpaceOnUse"><stop offset="0" stop-color="#273D54"/><stop offset="1" stop-color="#2B455E"/></linearGradient><linearGradient id="b" x1="41.80028" y1="40.96365" x2="13.83617" y2="27.92377" gradientUnits="userSpaceOnUse"><stop offset="0" stop-color="#4E8FBA"/><stop offset="1" stop-color="#4B83B8"/></linearGradient></defs><path d="M30.29021,0a2.002,2.002,0,0,0-1.98364,1.73814,2,2,0,0,0-2.47242,2.53309c1.42842,4.41324,2.87255,5.6013,4.75676,6.7979a10.58206,10.58206,0,0,1,1.16067.81494q-.3777.11888-.77435.27231a2,2,0,0,0-.87732,3.05944A5.18013,5.18013,0,0,0,31.41949,16.398a15.75451,15.75451,0,0,0-.45548,1.9989c-.36656,2.01923-.68312,3.76309-3.38981,5.57971a2.00007,2.00007,0,0,0-.69862.81659c-.46367.99605-4.22217,3.35551-8.41637,3.35551a8.94634,8.94634,0,0,1-4.18111-.9624,2,2,0,0,0-2.88532,1.37724,4.88248,4.88248,0,0,0,.74073,3.54455c-1.30493,1.75663-1.45023,3.95262-1.57381,5.8197-.19488,2.94416-.41359,4.5229-2.92618,5.433a2,2,0,0,0-1.30841,1.67638c-.33778,3.29334-1.13566,4.07644-1.83961,4.76734a5.05679,5.05679,0,0,0-1.5006,2.25334A5.059,5.059,0,0,0,.10572,55.35871a2,2,0,0,0,1.89411,2.64161q.04125,0,.08268-.00171c4.73465-.19546,5.84523-2.53842,7.021-5.01895,1.09031-2.30018,2.583-5.4491,8.02862-9.36123,1.3088-.87487,2.38177-1.74865,3.32929-2.52027,2.40207-1.95614,3.85195-3.13685,7.16461-3.13685a18.12159,18.12159,0,0,1,2.45031.18517,2.00024,2.00024,0,0,0,.51185.00456,15.22174,15.22174,0,0,0,6.90418-2.73349,6.16306,6.16306,0,0,0,3.17383-1.31942c-.04442.09955-.08594.20291-.12339.31028A5.58368,5.58368,0,0,0,37.87919,36.823,2,2,0,0,0,39.416,39.74719a10.85174,10.85174,0,0,0,1.24.07516c5.25286,0,5.85129-4.34794,6.10684-6.2046.04968-.361.09661-.70191.15275-.93672a15.90857,15.90857,0,0,1,1.21914-3.26894,2.0061,2.0061,0,0,0,.02171-1.831,4.81413,4.81413,0,0,0-1.88535-1.94944,1.99991,1.99991,0,0,0-2.0559.082h0a7.32433,7.32433,0,0,1-1.89434.71366,11.933,11.933,0,0,0-.87973-3.51356c-.19447-.52561-.37808-1.02189-.51375-1.52543.14679-.0116.301-.02412.46615-.02412a3.00516,3.00516,0,0,1,1.99263.89351,1.99979,1.99979,0,0,0,2.00125.27755A3.37374,3.37374,0,0,0,47.24,18.90966a2,2,0,0,0-.88492-1.45824A8.056,8.056,0,0,1,43.68846,14.086a2,2,0,0,0-1.08185-1.12856,4.71169,4.71169,0,0,1-.45866-.23611C41.06059,8.65675,38.55771,7.04,36.33454,5.60373c-1.75706-1.13511-3.2745-2.11541-4.194-4.36123A2.00069,2.00069,0,0,0,30.29021,0Z" fill="url(#a)"/><path d="M45.31146,27.38639a10.68884,10.68884,0,0,1-5.29155,1.34213c1.28713-3.83388-1.79869-5.74808-1.25413-9.923,1.55116,1.58416,2.59077-.69307,5.8581,1.8812,0,0,.75908-.31354.62706-1.56767a10.00381,10.00381,0,0,1-3.43235-4.32344,5.772,5.772,0,0,1-1.44759-.90342C38.89481,6.8098,32.79733,8.125,30.28963,2.00032c.90611,6.72066,6.0388,5.30432,7.44154,10.76906C32.186,5.84718,30.22388,9.074,27.737,3.65535c2.344,7.24215,4.32738,4.01325,7.73975,9.6819a9.49,9.49,0,0,0-3.77365.68277,3.30148,3.30148,0,0,0,2.72827,1.18812c-2.57426,2.31024-.088,6.634-5.74259,10.42907-1.18812,2.55227-9.21893,6.51267-15.33556,3.32234a2.80513,2.80513,0,0,0,1.84819,3.10231c-5.10452,2.79428.22,10.60509-6.8867,13.17936-.70408,6.8647-3.54237,5.25852-3.54237,8.38285A3.10693,3.10693,0,0,0,2,56.00032c7.19474-.297,2.44225-5.74259,13.99343-14.02644,5.14853-3.43235,6.46866-6.8977,14.35647-5.80859,0,0,4.12542-.495,6.53467-2.8713,1.43564.80859,4.19143-2.50825,7.65678-3.9604-.31353,4.8845-2.65677,4.8845-2.11222,6.73269a3.24332,3.24332,0,0,0-2.78329,1.69416c5.32455.61607,4.84051-3.52035,5.32455-5.54455a17.77731,17.77731,0,0,1,1.39715-3.74039A2.82652,2.82652,0,0,0,45.31146,27.38639Z" fill="url(#b)"/></svg>