<svg xmlns="http://www.w3.org/2000/svg" xmlns:xlink="http://www.w3.org/1999/xlink" viewBox="0 0 512 512"><defs><linearGradient id="a" x1="46.26006" y1="46.26006" x2="465.73994" y2="465.73994" gradientUnits="userSpaceOnUse"><stop offset="0" stop-color="#e3702d"/><stop offset="0.5" stop-color="#fa9d39"/><stop offset="1" stop-color="#e3702d"/></linearGradient></defs><path d="M421.65625,0H90.34375A90.446,90.446,0,0,0,0,90.34375v331.3125A90.446,90.446,0,0,0,90.34375,512h331.3125A90.446,90.446,0,0,0,512,421.65625V90.34375A90.446,90.446,0,0,0,421.65625,0Z" fill="#cc6529"/><rect x="28" y="28" width="456" height="456" rx="62.34375" ry="62.34375" fill="url(#a)"/><path d="M81.05643,267.04959a162.00674,162.00674,0,0,1,115.66406,48.124,163.88531,163.88531,0,0,1,47.96156,116.44071h67.34951c0-127.88568-103.619-231.92124-230.97515-231.92124v67.35657Zm.106-119.39905c155.7603,0,282.48805,127.41971,282.48805,284.04843H431C431,237.92528,274.05353,80.301,81.1624,80.301Zm93.1342,236.99771a46.6483,46.6483,0,1,1-46.65536-46.64834,46.65687,46.65687,0,0,1,46.65536,46.64834Z" fill="#fff"/></svg>