<svg xmlns="http://www.w3.org/2000/svg" viewBox="0 0 18 15.58846"><defs><style>.b{fill:#fff;}.c{fill:#a16d2a;}.d{fill:#b38f00;}</style></defs><path class="c" d="M9,0L0,15.58846H18L9,0Z"/><polygon class="d" points="9 2 1.732 14.588 16.268 14.588 9 2"/><path class="b" d="M8.05977,12.67508c-.01837-.25125,.06931-.49871,.24177-.68234,.19538-.16607,.44804-.249,.70383-.231,.25239-.01598,.50077,.06907,.6904,.2364,.32698,.38941,.32584,.95776-.00269,1.34586-.18668,.17124-.43483,.25945-.68771,.24446-.25533,.01621-.50662-.06981-.69845-.23909-.17295-.18038-.26257-.42487-.24715-.67429Zm1.60645-1.83748h-1.31095l-.52397-5.24916h2.359l-.52408,5.24916Z"/></svg>