<svg xmlns="http://www.w3.org/2000/svg" x="0px" y="0px" viewBox="0 0 151.6 181.2"><path fill="#323232" d="M52,54.5c-5.2,0-9.5-3.7-9.5-8.2c0-4.5,4.3-8.2,9.5-8.2s9.5,3.7,9.5,8.2C61.5,50.9,57.2,54.5,52,54.5 M52,33.8c-7.1,0-12.8,5.6-12.8,12.5c0,6.9,5.7,12.5,12.8,12.5c7.1,0,12.8-5.6,12.8-12.5C64.8,39.4,59,33.8,52,33.8"/><path fill="#323232" d="M52,0C23.3,0,0,20.7,0,46.3s23.3,46.3,52,46.3c25.3,0,46.4-16.1,51-37.5H88.5C84,68.9,69.3,79.1,52,79.1 c-20.9,0-38-14.7-38-32.7s17-32.7,38-32.7c17.4,0,32,10.1,36.5,23.9H103C98.3,16.1,77.3,0,52,0"/><path fill="#323232" d="M20.6,168.2v-57.1h30.2c16.7,0,30.2,12.8,30.2,28.6s-13.6,28.6-30.2,28.6H20.6 M51.5,98.1H8.6v83h42.9 c23.7,0,42.9-18.6,42.9-41.5S75.1,98.1,51.5,98.1"/><polyline fill="#FF0000" points="108.4,82.8 108.4,105.9 134.6,94.3 108.4,82.8 "/><polyline fill="#323232" points="151.6,80.2 141.1,80.2 141.1,134.6 151.6,134.6 151.6,80.2 "/><polyline fill="#323232" points="151.6,52 141.1,52 141.1,71.4 151.6,71.4 151.6,52 "/></svg>