<svg xmlns="http://www.w3.org/2000/svg" viewBox="0 0 148.80995 69.34247"><path d="M88.40631,21.01764C83.62268,25.71136,69.13416,29.12378,52,29.12378c-21.03284,0-38.08331-5.14148-38.08331-11.48377S30.96716,6.15625,52,6.15625c17.13409,0,31.62262,3.41241,36.40625,8.10608h14.63068C98.39014,6.13641,77.31219,0,52,0,23.28119,0,0,7.89771,0,17.64S23.28119,35.28,52,35.28c25.31226,0,46.39026-6.13641,51.03693-14.26239Z" fill="#323232"/><path d="M51.97162,12.80634c-7.095,0-12.84662,2.163-12.84662,4.83117s5.75165,4.83124,12.84662,4.83124,12.84656-2.163,12.84656-4.83124S59.06659,12.80634,51.97162,12.80634Zm0,7.3125c-5.26239,0-9.52844-1.11091-9.52844-2.48133s4.26605-2.48126,9.52844-2.48126S61.5,16.26715,61.5,17.63751,57.234,20.11884,51.97162,20.11884Z" fill="#323232"/><path d="M51.85831,37.78H8.65781v31.5625H53.27493c23.83338,0,41.10419-7.06549,41.10419-15.78125S77.60831,37.78,51.85831,37.78ZM52.203,63.3161H20.69162V43.80634H51.20248c19.32245,0,30.03083,4.36737,30.03083,9.75488S70.23331,63.3161,52.203,63.3161Z" fill="#323232"/><polygon points="105.591 40.781 105.591 31.906 131.779 36.344 105.591 40.781" fill="red"/><rect x="138.23181" y="19.54685" width="10.57813" height="7.40625" fill="#323232"/><rect x="138.23181" y="30.32289" width="10.57813" height="20.77083" fill="#323232"/></svg>