<svg xmlns="http://www.w3.org/2000/svg" viewBox="0 0 12.5004 20"><path d="M6.25018,1.5A2.339,2.339,0,0,1,8.50027,3.75015,2.339,2.339,0,0,1,6.25018,6.00024a2.339,2.339,0,0,1-2.2501-2.25015A2.339,2.339,0,0,1,6.25018,1.5m0-1.5a3.83458,3.83458,0,0,0-3.7501,3.75009,3.83466,3.83466,0,0,0,3.7501,3.75015,3.83546,3.83546,0,0,0,3.75009-3.75009A3.83551,3.83551,0,0,0,6.25018,0Z"/><path d="M6.25018,10.25027c2.53049,0,4.75022,3.013,4.75022,6.44776,0,.85229-1.95084,1.802-4.7502,1.802S1.5,17.55032,1.5,16.698c0-3.43479,2.21971-6.44776,4.75018-6.44776m0-1.5C2.96507,8.75027,0,12.2941,0,16.698,0,18.89932,3.12509,20,6.2502,20s6.2502-1.10068,6.2502-3.302c0-4.40387-2.96511-7.94776-6.25022-7.94776Z"/></svg>