<svg xmlns="http://www.w3.org/2000/svg" viewBox="0 0 21.27272 18"><path d="M15.38181,1.5a4.39589,4.39589,0,0,1,4.39091,4.39092c0,6.71614-7.2741,9.83467-9.1385,10.52321C8.76305,15.72906,1.5,12.63379,1.5,5.89092A4.39589,4.39589,0,0,1,5.89092,1.5,4.34156,4.34156,0,0,1,9.42584,3.302l1.21052,1.65431L11.84688,3.302A4.34158,4.34158,0,0,1,15.38181,1.5m0-1.5a5.867,5.867,0,0,0-4.74545,2.41619A5.88325,5.88325,0,0,0,0,5.89092C0,14.79544,10.63636,18,10.63636,18S21.27272,14.79544,21.27272,5.89092A5.89093,5.89093,0,0,0,15.38181,0Z" transform="translate(0)" fill="#0b7a76"/></svg>