<svg xmlns="http://www.w3.org/2000/svg" viewBox="0 0 18 18"><path d="M13.5,0A4.50508,4.50508,0,0,0,9,4.5a4.45936,4.45936,0,0,0,.69983,2.38593l-2.8139,2.8139A4.45936,4.45936,0,0,0,4.5,9,4.5,4.5,0,1,0,9,13.5a4.45954,4.45954,0,0,0-.69983-2.386L11.114,8.30017A4.45954,4.45954,0,0,0,13.5,9a4.5,4.5,0,0,0,0-9Z" fill="#323232"/><circle cx="4.5" cy="13.5" r="3" fill="#a0a0a0"/><circle cx="13.5" cy="4.5" r="3" fill="#a0a0a0"/><polygon points="12.749 12.749 12.75 9.75 9.75 9.75 9.75 6.75 6.75 6.75 6.751 3.751 3.751 3.751 3.751 0.751 2.251 0.751 2.251 5.251 5.25 5.251 5.25 8.25 8.25 8.25 8.25 11.25 11.249 11.25 11.249 14.249 14.249 14.249 14.249 17.249 15.749 17.249 15.749 12.749 12.749 12.749" fill="#A30000"/></svg>