<svg xmlns="http://www.w3.org/2000/svg" viewBox="0 0 19 18"><path d="M9.875,14.89343c-.125.00537-.24963.016-.37494.01587-4.13556,0-7.5-2.89557-7.5-6.45465S5.3645,2,9.5,2c4.0614,0,7.37128,2.79443,7.489,6.24573a4.109,4.109,0,0,1,1.80164,1.92907A7.96,7.96,0,0,0,19,8.45465C19,3.78534,14.7467,0,9.5,0S0,3.78528,0,8.45465,4.2533,16.9093,9.5,16.9093h.01184c.1214,0,.242-.01166.36316-.01587Z" fill="#323232"/><circle cx="9.5" cy="8.4545" r="1.25" fill="#323232"/><circle cx="5" cy="8.4545" r="1.25" fill="#323232"/><path d="M15.00824,7.755A1.22748,1.22748,0,0,0,14,7.20453a1.25,1.25,0,0,0-1.25,1.25c0,.00842.00464.01538.00482.0238A4.06408,4.06408,0,0,1,15.00824,7.755Z" fill="#323232"/><path d="M18.43751,12.375h-.51919v-.51919a2.85582,2.85582,0,0,0-5.71164,0V12.375h-.51919a.56269.56269,0,0,0-.56249.56249v4.5A.5627.5627,0,0,0,11.68749,18h6.75A.5627.5627,0,0,0,19,17.43751v-4.5A.56269.56269,0,0,0,18.43751,12.375Zm-3.375,3.9375a1.125,1.125,0,1,1,1.125-1.125A1.12469,1.12469,0,0,1,15.0625,16.31251Zm1.73082-3.9375H13.33168v-.51919a1.73082,1.73082,0,0,1,3.46164,0Z" fill="#323232"/></svg>