<svg xmlns="http://www.w3.org/2000/svg" viewBox="0 0 48.36757 58.00031"><title>logo_blank</title><path d="M30.29021,0a2.00194,2.00194,0,0,0-1.98363,1.73814,2,2,0,0,0-2.47242,2.53309c1.42842,4.41323,2.87254,5.60128,4.75675,6.79789a10.584,10.584,0,0,1,1.16067.81495c-.25179.07925-.51049.16954-.77434.2723a2,2,0,0,0-.87732,3.05945A5.1802,5.1802,0,0,0,31.41949,16.398a15.75627,15.75627,0,0,0-.45547,1.99888c-.36655,2.01924-.68312,3.7631-3.38983,5.57972a2,2,0,0,0-.69861.8166c-.46367.996-4.22217,3.3555-8.41637,3.3555a8.94645,8.94645,0,0,1-4.18111-.96239,2,2,0,0,0-2.88532,1.37724,4.88249,4.88249,0,0,0,.74073,3.54455c-1.30492,1.75663-1.45023,3.95262-1.57381,5.8197-.19488,2.94416-.41359,4.5229-2.92618,5.433a2,2,0,0,0-1.30841,1.67638c-.33777,3.29334-1.13566,4.07644-1.8396,4.76734a5.05678,5.05678,0,0,0-1.5006,2.25333A5.059,5.059,0,0,0,.10572,55.3587,2,2,0,0,0,1.9998,58.00031c.02754,0,.05506-.00056.08271-.0017,4.73465-.19548,5.84524-2.53843,7.021-5.019,1.09029-2.30018,2.583-5.44909,8.02859-9.36121,1.30881-.87487,2.38178-1.74867,3.3293-2.52028,2.40207-1.95614,3.85195-3.13686,7.16462-3.13686a18.12171,18.12171,0,0,1,2.45031.18518,1.99967,1.99967,0,0,0,.51186.00455,15.21728,15.21728,0,0,0,6.90418-2.73349,6.16288,6.16288,0,0,0,3.1738-1.3194c-.04442.09955-.08593.2029-.12339.31027A5.58365,5.58365,0,0,0,37.87919,36.823,2,2,0,0,0,39.416,39.74718a10.84955,10.84955,0,0,0,1.24.07517c5.25286,0,5.8513-4.34795,6.10684-6.20461.04968-.361.09661-.70191.15275-.93671a15.968,15.968,0,0,1,1.21765-3.26612,2,2,0,0,0,.0232-1.83387,4.81409,4.81409,0,0,0-1.88534-1.94939,2,2,0,0,0-2.05591.082h0a7.32324,7.32324,0,0,1-1.89434.71366,11.93291,11.93291,0,0,0-.87973-3.51355c-.19447-.5256-.37808-1.02188-.51375-1.52542.1468-.0116.301-.02412.46615-.02412a3.00519,3.00519,0,0,1,1.99265.89351,1.99984,1.99984,0,0,0,2.00126.27754A3.37377,3.37377,0,0,0,47.24,18.90968a2,2,0,0,0-.88492-1.45826A8.05607,8.05607,0,0,1,43.68847,14.086a2.00006,2.00006,0,0,0-1.08185-1.12857,4.71041,4.71041,0,0,1-.45867-.2361C41.0606,8.65675,38.55771,7.04,36.33454,5.60372c-1.75706-1.1351-3.2745-2.11541-4.194-4.36122A2.00066,2.00066,0,0,0,30.29021,0Z" fill="none"/></svg>