<svg xmlns="http://www.w3.org/2000/svg" viewBox="0 0 32 32"><path d="M20.6427,2.50632l2.035,3.74392.36958.67991.731.25408,3.99959,1.3902-.81848,4.23474-.14438.747.38864.65412L29.402,17.91022l-3.30511,2.70764-.59251.48541-.11669.757-.65455,4.24619-4.2059-.08228-.78081-.01526-.58456.51788L16,29.328l-3.16189-2.80118-.58456-.51788-.78081.01526-4.2059.08228-.65455-4.24619-.11669-.757-.59251-.48541L2.598,17.91022,4.79632,14.2103l.38864-.65412-.14438-.747L4.2221,8.57443l3.99959-1.3902.731-.25408.36958-.67991L11.3573,2.50632l3.91294,1.53347L16,4.32578l.72976-.286L20.6427,2.50632M21.55674,0,16,2.17767,10.44326,0,7.56506,5.2951,1.92984,7.25381l1.14708,5.93488L0,18.36731,4.63564,22.165l.9211,5.97534,5.95512-.11649L16,32l4.48814-3.97617,5.95512.11649.9211-5.97534L32,18.36731l-3.07692-5.17862,1.14708-5.93488L24.43494,5.2951,21.55674,0Z"/><path d="M14.08,20.69385l-1.44934.83677L7.9422,18.81292l-.03311.01911q.69239,1.03823.95764,1.49727l1.46116,2.53082L9.309,23.4484l-3.105-5.378,1.4383-.8304,4.6616,2.6797.02575-.01487q-.66045-1.01652-.91126-1.45092L9.94869,15.9084l1.0263-.59253Z"/><path d="M18.06748,18.39166l-3.0973,1.78823-3.105-5.378,3.09731-1.78823.53944.93434-1.957,1.12986.68193,1.18113,1.82086-1.05127.53944.93434-1.82086,1.05127.80047,1.38647,1.957-1.12986Z"/><path d="M24.42763,14.71963l-1.29852.7497L20.7697,13.06474q-.12752-.127-.498-.5436-.37012-.41634-.47848-.57.09263.21138.258.70177.166.49139.2261.70593l.90215,3.23613-1.29483.74757L15.4076,12.7567l1.122-.64776,2.38266,2.53831q.64983.70965,1.07478,1.25841-.099-.22242-.27362-.70792-.17495-.48489-.24505-.76812l-.956-3.4654,1.0778-.62227,2.5231,2.56067q.16809.17181.48554.54366.31705.37072.52973.64567-.129-.30807-.29546-.7836-.16656-.475-.25329-.77852L21.56911,9.19935l1.12194-.64775Z"/></svg>