<svg xmlns="http://www.w3.org/2000/svg" xmlns:xlink="http://www.w3.org/1999/xlink" viewBox="0 0 26.49741 57"><defs><linearGradient id="a" x1="31.99921" y1="60.5" x2="31.99921" y2="3.5" gradientUnits="userSpaceOnUse"><stop offset="0" stop-color="#f5f5f5"/><stop offset="1" stop-color="#ebebeb"/></linearGradient><linearGradient id="b" x1="45.30383" y1="36.25688" x2="13.84981" y2="21.58963" gradientUnits="userSpaceOnUse"><stop offset="0" stop-color="#51cca5"/><stop offset="1" stop-color="#12c9c2"/></linearGradient></defs><path d="M41.79913,5c.13272,0,.38132.18338.71472.56238,1.8082,2.10039,1.65751,5.01648-.62158,11.64393-2.18487,6.342-2.42975,7.44316-2.80642,12.39846-.28257,3.9153-1.05478,5.93412-2.90067,7.76942a5.0128,5.0128,0,0,0-1.67633,4.13961,10.3167,10.3167,0,0,0,.4332,2.83452,6.64255,6.64255,0,0,1,.32022,1.36627l-.00891.00344a3.06222,3.06222,0,0,1-.66916-.73756,3.88091,3.88091,0,0,0-2.58045-1.63138,3.78621,3.78621,0,0,0-2.56161,1.611c-.33356.39253-.57778.64-.6467.64-.0206,0-.02554-.0221-.01254-.069.88527-2.63058.99827-5.03686.339-6.50509a6.354,6.354,0,0,0-1.29965-1.73333c-1.80819-1.67218-2.54277-3.7114-2.863-7.91218a35.0165,35.0165,0,0,0-2.1849-10.33884c-1.58216-4.50667-2.52394-8.19766-2.52394-9.829a5.58413,5.58413,0,0,1,1.262-3.62981c.34436-.391.59883-.57928.73335-.57927.16714,0,.14912.29073-.11179.84438a6.2908,6.2908,0,0,0-.50856,1.79451c-.113,1.08078.15068,1.8557,2.73113,7.97334a37.41924,37.41924,0,0,1,2.69345,8.23844c.62157,2.99766,1.88353,5.302,3.315,5.95453a4.68874,4.68874,0,0,0,1.75639.27529,4.03791,4.03791,0,0,0,1.67163-.27529,7.54932,7.54932,0,0,0,2.39209-3.05883,26.60947,26.60947,0,0,0,.90411-3.28314A29.95279,29.95279,0,0,1,39.18,16.83926c.33905-.73411,1.22431-2.8753,1.97772-4.77177,1.24314-3.12,1.35614-3.50746,1.262-4.40472a6.24084,6.24084,0,0,0-.50855-1.8149C41.64862,5.2908,41.63193,5,41.79913,5M21.92685,30.90986a1.96354,1.96354,0,0,1,.0565.938c-.113,1.40707.26371,2.651,1.46916,4.87373a32.20426,32.20426,0,0,1,4.27561,14.23376,4.81922,4.81922,0,0,1-.07965,1.86865c-.069,0-.17508-.29162-.32994-1.04149a28.336,28.336,0,0,0-3.15027-7.06717c-2.22258-3.93569-3.35269-7.11688-3.35269-9.42121,0-1.36626.77224-4.38431,1.11128-4.38431m20.21579.06778c.11789,0,.32028.38932.55957,1.15575,1.149,3.6502.50854,6.42354-2.976,12.86748a31.45632,31.45632,0,0,0-2.93833,6.60706c-.1795.80509-.31631,1.20278-.3999,1.20278-.10062,0-.12415-.57647-.05212-1.71258A32.15957,32.15957,0,0,1,40.555,36.76242c1.18662-2.12077,1.61985-3.50745,1.50684-4.85333-.06207-.62383-.024-.93145.08081-.93145M30.00624,56.47881a6.07433,6.07433,0,0,1,.73554.06884,8.9714,8.9714,0,0,0,1.31611.14585,8.70017,8.70017,0,0,0,1.302-.14585,4.79569,4.79569,0,0,1,.57911-.049,1.16048,1.16048,0,0,1,.9277.45956c.45206.45375.50857.62662.33905.95075a2.24706,2.24706,0,0,1-.75342.713A6.46786,6.46786,0,0,1,31.92972,59a5.8249,5.8249,0,0,1-1.94136-.24837c-1.35614-.56181-1.54448-1.03716-.79108-1.85827a.93539.93539,0,0,1,.809-.41455M41.79913,3.5a1.59023,1.59023,0,0,0-1.35064.74005,2.3191,2.3191,0,0,0,.10574,2.24724,4.85207,4.85207,0,0,1,.37329,1.32857c.05222.49753.06451.61491-1.16327,3.69642-.75928,1.91121-1.632,4.01812-1.946,4.69806a31.58809,31.58809,0,0,0-2.19828,6.95481,25.59251,25.59251,0,0,1-.82943,3.03256,6.56249,6.56249,0,0,1-1.7056,2.28549,3.736,3.736,0,0,1-.96344.10078,3.61256,3.61256,0,0,1-1.12617-.13647c-.78122-.35616-1.88349-2.03806-2.47648-4.8979a38.7033,38.7033,0,0,0-2.78007-8.5167c-2.35269-5.57769-2.69566-6.52426-2.6214-7.23454a4.95047,4.95047,0,0,1,.35628-1.2756,2.34535,2.34535,0,0,0,.12262-2.27938,1.59,1.59,0,0,0-1.35031-.7399,2.58784,2.58784,0,0,0-1.85915,1.08789A7.0433,7.0433,0,0,0,18.7505,9.21257c0,2.61336,1.8243,8.09181,2.60863,10.32591a33.71974,33.71974,0,0,1,2.1041,9.94992c.35223,4.62138,1.22631,6.9502,3.34063,8.90549a5.01571,5.01571,0,0,1,.94684,1.24005,6.32558,6.32558,0,0,1,.11023,3.5437A38.68958,38.68958,0,0,0,24.76918,36.003c-1.182-2.17948-1.36574-3.1-1.29063-4.035.08787-1.23572-.11335-1.72121-.44216-2.07424l-.4449-.47762-.66464-.00627c-2.4167,0-2.61128,5.82548-2.61128,5.88431,0,2.57367,1.19323,5.99159,3.54657,10.15881a27.54129,27.54129,0,0,1,2.98739,6.63294c.19506.94454.46219,2.23812,1.79894,2.23812h.64462l.4657-.47869c.4362-.45983.57236-.97751.46724-2.969a33.36391,33.36391,0,0,0-.42639-3.77627c.79414-.002,1.27575-.56872,1.78555-1.16866.74889-.90072,1.309-1.0823,1.41856-1.0823a2.79065,2.79065,0,0,1,1.37406,1.0228c.59958.79357,1.07873,1.34614,1.87555,1.34614H35.258c-.19761,1.21449-.33533,2.46937-.41913,3.78474-.107,1.68762-.06131,2.2971.43237,2.82307l.44437.47342.67236.01145c1.33414,0,1.6279-1.31762,1.864-2.37635A30.72445,30.72445,0,0,1,41.05,45.70628c3.6748-6.7958,4.36731-9.943,3.083-14.02326-.25687-.82278-.68857-2.20539-1.99036-2.20539h-.66535l-.48925.51412a2.48543,2.48543,0,0,0-.41886,2.06584c.08264.9863-.30011,2.14386-1.32321,3.97241a35.60292,35.60292,0,0,0-3.05975,7.12818,9.50908,9.50908,0,0,1-.17764-1.67264,3.54221,3.54221,0,0,1,1.22961-3.04309c2.13242-2.12018,3.03741-4.48495,3.34375-8.72972.36606-4.81535.59561-5.82667,2.72855-12.01783,2.15252-6.25949,2.84417-10.20251.34014-13.11116A2.565,2.565,0,0,0,41.79913,3.5ZM30.00624,54.97881a2.40093,2.40093,0,0,0-1.91659.90305,2.573,2.573,0,0,0-.78278,2.267c.2718,1.22808,1.55812,1.761,2.10739,1.9885A7.1739,7.1739,0,0,0,31.92972,60.5a7.81136,7.81136,0,0,0,3.269-.5769,3.696,3.696,0,0,0,1.33621-1.319,2.18112,2.18112,0,0,0-.60556-2.70462,2.65576,2.65576,0,0,0-1.99032-.90089,6.18859,6.18859,0,0,0-.7688.06106,8.24222,8.24222,0,0,1-1.11231.13381,8.12406,8.12406,0,0,1-1.091-.12885,7.33651,7.33651,0,0,0-.96069-.08584Z" transform="translate(-18.7505 -3.5)" fill="url(#a)"/><path d="M34.86671,56.95819c.452.45376.50856.62663.339.95074a2.24715,2.24715,0,0,1-.75341.713,8.20193,8.20193,0,0,1-4.464.12966c-1.35614-.5618-1.54449-1.03717-.79107-1.85827.41437-.45375.565-.47535,1.54449-.34571a5.94727,5.94727,0,0,0,2.61811,0C34.20748,56.43961,34.377,56.48282,34.86671,56.95819ZM23.45251,36.72163c-1.20546-2.22274-1.58217-3.46666-1.46916-4.87373a1.96354,1.96354,0,0,0-.0565-.938c-.339,0-1.11128,3.018-1.11128,4.38432,0,2.30432,1.13011,5.4855,3.35269,9.42119a28.33574,28.33574,0,0,1,3.15027,7.06719c.43446,2.10374.48494.60027.4096-.82717A32.2045,32.2045,0,0,0,23.45251,36.72163Zm18.60931-4.81254c.113,1.34588-.32021,2.73255-1.50684,4.85333a32.1594,32.1594,0,0,0-4.21911,14.33571c-.13185,2.08.05651,2.28393.452.5098a31.45377,31.45377,0,0,1,2.9383-6.60707c3.48455-6.44392,4.12494-9.21727,2.976-12.86747C42.25016,30.68554,41.93,30.58359,42.06182,31.90909Zm-.16953-14.70278c2.27908-6.62745,2.42976-9.54354.62157-11.64394-.75342-.85646-1.07362-.71373-.60274.2855a6.24062,6.24062,0,0,1,.50856,1.8149c.09418.89726-.01884,1.28471-1.262,4.40471C40.4043,13.964,39.51905,16.10514,39.18,16.83926a29.95294,29.95294,0,0,0-2.09072,6.62746,26.61162,26.61162,0,0,1-.90409,3.28313,7.5496,7.5496,0,0,1-2.39209,3.05884,5.47051,5.47051,0,0,1-3.428,0c-1.43148-.65256-2.69345-2.95687-3.315-5.95453a37.42033,37.42033,0,0,0-2.69346-8.23843c-2.58044-6.11766-2.84413-6.89257-2.73112-7.97335A6.29056,6.29056,0,0,1,22.134,5.84787c.47089-.99923.15068-1.142-.62156-.26511a5.58417,5.58417,0,0,0-1.262,3.62981c0,1.63138.94177,5.32237,2.52394,9.82905a35.0161,35.0161,0,0,1,2.18489,10.33883c.3202,4.20079,1.05478,6.24,2.863,7.91217A6.35423,6.35423,0,0,1,29.122,39.026c.65922,1.46824.54622,3.87452-.339,6.5051-.05651.20392.226-.06118.65924-.571a3.78616,3.78616,0,0,1,2.5616-1.611,3.88091,3.88091,0,0,1,2.58045,1.63138c.339.44863.64039.7749.67807.73412a6.64061,6.64061,0,0,0-.32021-1.36627,10.31589,10.31589,0,0,1-.4332-2.83452,5.01278,5.01278,0,0,1,1.67634-4.13961c1.84586-1.8353,2.61811-3.85413,2.90064-7.76943C39.46254,24.64947,39.70739,23.54828,41.89229,17.20631Z" transform="translate(-18.7505 -3.5)" fill="url(#b)"/></svg>