<svg xmlns="http://www.w3.org/2000/svg" xmlns:xlink="http://www.w3.org/1999/xlink" viewBox="0 0 200 201"><defs><linearGradient id="a" x1="100.00561" y1="194.23572" x2="100.00561" y2="7.76389" gradientUnits="userSpaceOnUse"><stop offset="0" stop-color="#51cca5" stop-opacity="0"/><stop offset="1" stop-color="#12c9c2"/></linearGradient></defs><rect width="200" height="201" fill="none"/><path d="M109.82733,187.185c1.54877,1.5669,1.74238,2.16385,1.1616,3.28307a7.72541,7.72541,0,0,1-2.58129,2.46226c-2.58129,1.49231-12.13205,1.79077-15.29416.44773-4.64632-1.94-5.29163-3.58153-2.71034-6.41692,1.41969-1.56691,1.936-1.6415,5.29162-1.19382,4.3882.67154,4.64632.67154,8.97,0C107.56874,185.39422,108.14951,185.54345,109.82733,187.185ZM70.72078,117.30447c-4.13006-7.67555-5.4207-11.971-5.03353-16.82989.12909-1.83085,0-3.23923-.19356-3.23923-1.16161,0-3.80742,10.42188-3.80742,15.13986,0,7.95725,3.87194,18.94244,11.48676,32.5331,6.45322,11.68938,9.72916,19.21088,10.79326,24.40427,1.48852,7.26461,1.66145,2.07285,1.40332-2.85637C84.40161,149.34463,79.9489,134.3456,70.72078,117.30447Zm63.75792-16.6186c.38718,4.64756-1.09708,9.436-5.16262,16.75943a111.70076,111.70076,0,0,0-14.45521,49.50381c-.45174,7.18265.1936,7.88684,1.54877,1.76045,1.097-4.78839,4.25915-11.83021,10.067-22.81541,11.93849-22.252,14.13256-31.82891,10.19611-44.43372C135.124,96.46075,134.027,96.10868,134.4787,100.68587Zm-.58082-50.77136c7.80843-22.88582,8.32469-32.95559,2.1296-40.20865-2.58134-2.95753-3.67837-2.46463-2.06508.98589a21.68081,21.68081,0,0,1,1.74238,6.26717c.3227,3.09841-.06452,4.43632-4.32367,15.21028-2.58128,6.54887-5.61427,13.94276-6.77587,16.47781a104.02092,104.02092,0,0,0-7.16309,22.88582,92.46187,92.46187,0,0,1-3.09754,11.33727c-1.74238,4.15466-5.54979,9.01351-8.1956,10.56271-2.32316,1.2675-9.03452,1.2675-11.74489,0-4.90445-2.25339-9.22812-10.2106-11.35767-20.56206C80.9169,62.66015,79.239,57.37882,73.81833,44.42193c-8.841-21.12537-9.74438-23.80129-9.3572-27.53342a21.85407,21.85407,0,0,1,1.74238-6.19676c1.61334-3.45052.51626-3.94342-2.12956-.91547a19.37788,19.37788,0,0,0-4.32366,12.53439c0,5.63345,3.22663,18.37909,8.64733,33.94148,4.71085,13.52024,6.51775,22.18163,7.48574,35.70187,1.097,14.50608,3.61381,21.5479,9.8089,27.32218a21.92907,21.92907,0,0,1,4.45275,5.98552c2.2586,5.07009,1.87143,13.37941-1.1616,22.46329-.1936.70419.77439-.21124,2.25864-1.97169,2.90394-3.52088,6.13057-5.563,8.77638-5.563s6.51779,2.46463,8.841,5.63345c1.16156,1.5492,2.19407,2.67587,2.32316,2.535a23.08783,23.08783,0,0,0-1.09708-4.718,35.88223,35.88223,0,0,1-1.48421-9.78811c0-6.40805,1.41969-9.99935,5.74336-14.29484,6.32418-6.33764,8.97-13.309,9.938-26.82924C125.57324,75.61708,126.41214,71.81449,133.89788,49.91451Z" fill="url(#a)"/></svg>