<svg xmlns="http://www.w3.org/2000/svg" viewBox="0 0 19 18"><title>pin-unread-2</title><path d="M11.375,8.48093V4.59661c.948-.321,1.5-.83776,1.5-1.20453,0-1.24277-6.7501-1.24277-6.7501,0,0,.40427.55277.90976,1.5,1.21878V8.48093c-.94726.24075-1.5.68551-1.5,1.29677,0,.57526,1.44752.88126,3.0008.92251l-.00075.00974v2.25c0,.414.168,1.5.375,1.5.20625,0,.375-1.086.375-1.5v-2.25l-.00076-.00974c1.55329-.042,3.00081-.34876,3.00081-.92251C12.87505,9.16644,12.323,8.72168,11.375,8.48093Z" fill="#323232"/><path d="M9.5,2c4.13551,0,7.5,2.89555,7.50011,6.43357a5.97934,5.97934,0,0,1-2.01041,4.406l-1.06658.94455.36925.89338-.002-.00149-.8649-.64563-1.01443.36854a8.4825,8.4825,0,0,1-2.911.51037c-4.13551,0-7.5-2.89555-7.5-6.45466S5.36449,2,9.5,2m0-2C4.25328,0,0,3.78527,0,8.45466s4.25328,8.45466,9.5,8.45466h.01181a10.4905,10.4905,0,0,0,3.58217-.63058,8.68664,8.68664,0,0,0,4.89187,1.72068L18.05157,18a3.68107,3.68107,0,0,0,.61951-.05251,11.6479,11.6479,0,0,1-2.35541-3.61063A7.9695,7.9695,0,0,0,19,8.45466C19,3.78531,14.74668,0,9.5,0Z" fill="#323232"/></svg>