<svg xmlns="http://www.w3.org/2000/svg" viewBox="0 0 19 18"><title>pin-lock-unread</title><path d="M9.875,15.64343c-.12506.00489-.24963.016-.375.01587-4.54907,0-8.25-3.232-8.25-7.20465S4.95093,1.25,9.5,1.25s8.25,3.232,8.25006,7.19147c-.0011.10077-.01349.19989-.0191.3a4.11615,4.11615,0,0,1,1.05969,1.43328A7.96,7.96,0,0,0,19,8.45465C19,3.78534,14.7467,0,9.5,0S0,3.78528,0,8.45465,4.2533,16.9093,9.5,16.9093h.01184c.1214,0,.242-.01166.36316-.01587Z" fill="#323232"/><path d="M9.875,12.9375V10.71l-.00073-.00976a11.42778,11.42778,0,0,0,1.28552-.1059,4.104,4.104,0,0,1,1.11115-1.73346A3.00678,3.00678,0,0,0,11.375,8.481V4.59662c.94806-.321,1.50006-.83777,1.50006-1.20453,0-1.2428-6.75012-1.2428-6.75012,0,0,.40424.55279.90973,1.50006,1.21875V8.481c-.94727.24072-1.50006.68548-1.50006,1.29675,0,.57526,1.44751.88123,3.00079.92249L9.125,10.71v2.25c0,.414.168,1.50006.375,1.50006.20624,0,.375-1.08606.375-1.50006Z" fill="#323232"/><path d="M18.43751,12.375h-.51919v-.51919a2.85582,2.85582,0,0,0-5.71164,0V12.375h-.51919a.56269.56269,0,0,0-.56249.56249v4.5A.5627.5627,0,0,0,11.68749,18h6.75A.5627.5627,0,0,0,19,17.43751v-4.5A.56269.56269,0,0,0,18.43751,12.375Zm-3.375,3.9375a1.125,1.125,0,1,1,1.125-1.125A1.12469,1.12469,0,0,1,15.0625,16.31251Zm1.73082-3.9375H13.33168v-.51919a1.73082,1.73082,0,0,1,3.46164,0Z" fill="#323232"/></svg>