<svg xmlns="http://www.w3.org/2000/svg" viewBox="0 0 18 15.75003"><path d="M9,1.5c4.1355,0,7.5,2.60748,7.5,5.81251S13.1355,13.125,9,13.125a9.43753,9.43753,0,0,1-1.798-.1771l-.57308-.11155-.49769.30522a7.02485,7.02485,0,0,1-2.21431.83668q.18311-.38963.33836-.79066l.40726-1.05217-.89794-.68309A5.23105,5.23105,0,0,1,1.5,7.31252C1.5,4.10749,4.86449,1.5,9,1.5M9,0C4.02975,0,0,3.27378,0,7.31252a6.74334,6.74334,0,0,0,2.85638,5.33364A11.14507,11.14507,0,0,1,1.01926,15.75a11.57084,11.57084,0,0,0,5.89611-1.32976A10.88816,10.88816,0,0,0,9,14.625c4.97025,0,9-3.27374,9-7.31249S13.97025,0,9,0Z" transform="translate(0 -0.00001)" fill="#0b7a76"/></svg>