<svg xmlns="http://www.w3.org/2000/svg" viewBox="0 0 18 18"><path d="M2.97342,1.69192a1.2815,1.2815,0,1,1-1.2815,1.2815,1.283,1.283,0,0,1,1.2815-1.2815m0-1.5a2.7815,2.7815,0,1,0,2.7815,2.7815A2.7843,2.7843,0,0,0,2.97342.19192Z" fill="#323232"/><path d="M15.02658,13.74508a1.2815,1.2815,0,1,1-1.2815,1.2815,1.283,1.283,0,0,1,1.2815-1.2815m0-1.5a2.7815,2.7815,0,1,0,2.7815,2.7815,2.7843,2.7843,0,0,0-2.7815-2.7815Z" fill="#323232"/><path d="M0,16.93934,16.93934,0,18,1.06066,1.06066,18Z" fill="#323232"/></svg>