<svg xmlns="http://www.w3.org/2000/svg" viewBox="0 0 19 18"><path d="M9.5,1.25c4.54907,0,8.25,3.232,8.25007,7.19148a6.73065,6.73065,0,0,1-2.26313,4.95959l-.66661.59035.34013.82291a12.93072,12.93072,0,0,0,.76937,1.55737,7.42776,7.42776,0,0,1-2.0881-1.09465l-.54056-.40352-.634.23034A9.23047,9.23047,0,0,1,9.5,15.65932c-4.54907,0-8.25-3.232-8.25-7.20466S4.95093,1.25,9.5,1.25M9.5,0C4.25328,0,0,3.78527,0,8.45466s4.25328,8.45466,9.5,8.45466h.01181a10.49067,10.49067,0,0,0,3.58217-.63058,8.68659,8.68659,0,0,0,4.89187,1.72068L18.05157,18a3.68083,3.68083,0,0,0,.61951-.05251,11.64779,11.64779,0,0,1-2.35541-3.61063A7.96951,7.96951,0,0,0,19,8.45466C19,3.78531,14.74668,0,9.5,0Z" transform="translate(0 0)" fill="#646464"/></svg>