<svg xmlns="http://www.w3.org/2000/svg" xmlns:xlink="http://www.w3.org/1999/xlink" viewBox="0 0 57 57"><defs><linearGradient id="a" x1="28.5" x2="28.5" y2="57" gradientUnits="userSpaceOnUse"><stop offset="0" stop-color="#97cb3a"/><stop offset="1" stop-color="#62991e"/></linearGradient></defs><title>d-thumbsup_simple</title><path d="M28.5,0A28.5,28.5,0,1,0,57,28.5,28.5,28.5,0,0,0,28.5,0ZM20.375,44.5a4.72886,4.72886,0,0,1-4.25-5.3125,3.692,3.692,0,0,1-1.4375-5.375s-3.1875-2.125-.3125-4.875c-2.875-1.625-2.6875-6.875,3.0625-5.6875,0,0,6.9375.6875,7.25-2.1875C25,17.3125,21,17.8125,21,12s2.6875-4.9375,3.5625-2.875-.125,1,4.3125,6.1875,6.5625,3.5,10.625,11.25c.375,6.0625-1.975,11.58533-4.1875,16.0625C32.75,43.75,22.5,44.75,20.375,44.5Zm21.66669.95831A15.11033,15.11033,0,0,1,36.70831,43.5c2.70838-4.875,4.75-11.41669,4.75-16.70831,0,0,4.04169-.5,6.33338.75A26.614,26.614,0,0,1,42.04169,45.45831Z" fill="url(#a)"/></svg>