<svg xmlns="http://www.w3.org/2000/svg" xmlns:xlink="http://www.w3.org/1999/xlink" viewBox="0 0 57 57"><defs><linearGradient id="a" x1="28.5" x2="28.5" y2="57" gradientUnits="userSpaceOnUse"><stop offset="0" stop-color="#cc3e3f"/><stop offset="1" stop-color="#8e2426"/></linearGradient></defs><title>d-thumbsdown_simple</title><path d="M28.5,0A28.5,28.5,0,1,0,57,28.5,28.5,28.5,0,0,0,28.5,0Zm11,31.24615c-4.0625,7.75-6.1875,6.0625-10.625,11.25s-3.4375,4.125-4.3125,6.1875S21,51.62115,21,45.80865s4-5.3125,3.6875-9.0625c-.3125-2.875-7.25-2.1875-7.25-2.1875-5.75,1.1875-5.9375-4.0625-3.0625-5.6875-2.875-2.75.3125-4.875.3125-4.875a3.692,3.692,0,0,1,1.4375-5.375,4.72886,4.72886,0,0,1,4.25-5.3125c2.125-.25,12.375.75,14.9375,1.875C37.525,19.66083,39.875,25.18365,39.5,31.24615Zm8.29169-.97912c-2.29169,1.25-6.33338.75-6.33338.75,0-5.29169-2.04162-11.83338-4.75-16.70838a15.112,15.112,0,0,1,5.33338-1.95831A26.61414,26.61414,0,0,1,47.79169,30.267Z" fill="url(#a)"/></svg>