<svg xmlns="http://www.w3.org/2000/svg" viewBox="0 0 19 18"><path d="M9.5,2c4.13551,0,7.5,2.89555,7.50011,6.43357a5.97936,5.97936,0,0,1-2.01041,4.406l-1.06658.94455.36925.89338-.002-.00149-.8649-.64563-1.01443.36854a8.48259,8.48259,0,0,1-2.911.51037c-4.13551,0-7.5-2.89555-7.5-6.45466S5.36449,2,9.5,2m0-2C4.25328,0,0,3.78527,0,8.45466s4.25328,8.45466,9.5,8.45466h.01181a10.49067,10.49067,0,0,0,3.58217-.63058,8.68659,8.68659,0,0,0,4.89187,1.72068L18.05157,18a3.68083,3.68083,0,0,0,.61951-.05251,11.64779,11.64779,0,0,1-2.35541-3.61063A7.96951,7.96951,0,0,0,19,8.45466C19,3.78531,14.74668,0,9.5,0Z" transform="translate(0 0)" fill="#323232"/><circle cx="9.5" cy="8.4545" r="1.25" fill="#323232"/><circle cx="14" cy="8.4545" r="1.25" fill="#323232"/><circle cx="5" cy="8.4545" r="1.25" fill="#323232"/></svg>