<svg xmlns="http://www.w3.org/2000/svg" viewBox="0 0 19 18"><path d="M9.5,2c4.13551,0,7.5,2.89555,7.50011,6.43357a5.97934,5.97934,0,0,1-2.01041,4.406l-1.06658.94455.36925.89338-.002-.00149-.8649-.64563-1.01443.36854a8.4825,8.4825,0,0,1-2.911.51037c-4.13551,0-7.5-2.89555-7.5-6.45466S5.36449,2,9.5,2m0-2C4.25328,0,0,3.78527,0,8.45466s4.25328,8.45466,9.5,8.45466h.01181a10.49046,10.49046,0,0,0,3.58217-.63058,8.68664,8.68664,0,0,0,4.89187,1.72068L18.05157,18a3.68107,3.68107,0,0,0,.61951-.05251,11.6479,11.6479,0,0,1-2.35541-3.61063A7.9695,7.9695,0,0,0,19,8.45466C19,3.78531,14.74668,0,9.5,0Z" fill="#323232"/><path d="M9.5,3A3.86026,3.86026,0,0,0,5.63986,6.86017a3.795,3.795,0,0,0,.03308.47992c.32978,3.01526,3.57642,6.49048,3.57642,6.49048a.6017.6017,0,0,0,.16736.1336l.00274.00141L9.52756,14l.10809-.03442.00275-.00141a.64265.64265,0,0,0,.16736-.1336s3.2005-3.48139,3.522-6.49738A3.83559,3.83559,0,0,0,9.5,3Zm0,5.65454a1.79444,1.79444,0,1,1,1.79443-1.79443A1.7964,1.7964,0,0,1,9.5,8.65454Z" fill="#323232"/></svg>