<svg xmlns="http://www.w3.org/2000/svg" xmlns:xlink="http://www.w3.org/1999/xlink" viewBox="0 0 199.99997 200"><defs><linearGradient id="a" x1="100.10784" y1="200" x2="100.10784" gradientUnits="userSpaceOnUse"><stop offset="0" stop-color="#646464"/><stop offset="1" stop-color="#323232"/></linearGradient></defs><path d="M200,100A100.0159,100.0159,0,0,1,4.30884,129.12907l6.41485-18.30494L.21571,93.3784A100.00193,100.00193,0,0,1,200,100Z" fill="url(#a)"/><path d="M132.89209,37.03919A37.97454,37.97454,0,0,0,94.84381,74.93988c0,.16822,0,.33637.00855.49427L70.38647,110.9715a27.79547,27.79547,0,0,0-16.39129,4.53979L.22327,93.38349C.08032,95.57123,0,97.77613,0,100a99.98066,99.98066,0,0,0,4.31512,29.12964l37.87494,15.62842a27.715,27.715,0,0,0,54.76569-6.771l35.00525-25.016c.2832.00855.575.01715.85821.01715a37.97455,37.97455,0,0,0,.07288-75.949ZM88.97382,146.955A21.33182,21.33182,0,0,1,49.99,147.99341l12.36212,5.12335v.00006h-.00171a15.76846,15.76846,0,0,0,12.11237-29.11816l-12.77918-5.295A21.36871,21.36871,0,0,1,88.97382,146.955Zm43.84539-46.66791A25.30349,25.30349,0,1,1,158.1261,74.93817l.00006.049A25.30341,25.30341,0,0,1,132.81921,100.28711Z" fill="#f5f5f5"/><path d="M113.8611,74.89953a19.00275,19.00275,0,1,1,0,.02834Z" fill="#f5f5f5"/></svg>