<svg xmlns="http://www.w3.org/2000/svg" xmlns:xlink="http://www.w3.org/1999/xlink" viewBox="0 0 48.36735 58.00032"><defs><linearGradient id="a" x1="24.18314" y1="-0.00032" x2="24.18314" y2="58" gradientTransform="matrix(1, 0, 0, -1, 0, 58)" gradientUnits="userSpaceOnUse"><stop offset="0" stop-color="#141414"/><stop offset="1" stop-color="#1e1e1e"/></linearGradient><linearGradient id="b" x1="41.80025" y1="17.03635" x2="13.8362" y2="30.0762" gradientTransform="matrix(1, 0, 0, -1, 0, 58)" gradientUnits="userSpaceOnUse"><stop offset="0" stop-color="#255c4a"/><stop offset="1" stop-color="#085957"/></linearGradient></defs><title>logo</title><path d="M30.29021,0a2.002,2.002,0,0,0-1.98364,1.73814,2,2,0,0,0-2.47242,2.53309c1.42842,4.41324,2.87255,5.6013,4.75676,6.7979a10.58161,10.58161,0,0,1,1.16067.81494q-.3777.11888-.77435.27231a2,2,0,0,0-.87732,3.05944A5.18028,5.18028,0,0,0,31.41949,16.398a15.75616,15.75616,0,0,0-.45548,1.9989c-.36656,2.01923-.68312,3.76309-3.38981,5.57971a2.00014,2.00014,0,0,0-.69862.81659c-.46367.99605-4.22217,3.35551-8.41637,3.35551a8.94632,8.94632,0,0,1-4.18111-.9624,2,2,0,0,0-2.88532,1.37724,4.88248,4.88248,0,0,0,.74073,3.54455c-1.30493,1.75663-1.45023,3.95262-1.57381,5.8197-.19488,2.94416-.41359,4.5229-2.92618,5.433a2,2,0,0,0-1.30841,1.67638c-.33778,3.29334-1.13566,4.07644-1.83961,4.76734a5.05681,5.05681,0,0,0-1.5006,2.25334A5.059,5.059,0,0,0,.10572,55.35871a2,2,0,0,0,1.89411,2.64161q.04125,0,.08268-.00171c4.73465-.19546,5.84523-2.53842,7.021-5.01895,1.09031-2.30018,2.583-5.4491,8.02862-9.36123,1.3088-.87487,2.38177-1.74865,3.32929-2.52027,2.40207-1.95614,3.85195-3.13685,7.16461-3.13685a18.12191,18.12191,0,0,1,2.45031.18517,2.00032,2.00032,0,0,0,.51185.00456,15.22174,15.22174,0,0,0,6.90418-2.73349,6.16314,6.16314,0,0,0,3.17383-1.31942c-.04442.09955-.08594.20291-.12339.31028A5.58365,5.58365,0,0,0,37.87919,36.823,2,2,0,0,0,39.416,39.74719a10.85084,10.85084,0,0,0,1.24.07516c5.25286,0,5.85129-4.34794,6.10684-6.2046.04968-.361.09661-.70191.15275-.93672a15.90788,15.90788,0,0,1,1.21914-3.26894,2.00611,2.00611,0,0,0,.02171-1.831,4.81409,4.81409,0,0,0-1.88535-1.94944,1.9999,1.9999,0,0,0-2.0559.082h0a7.32445,7.32445,0,0,1-1.89434.71366,11.93331,11.93331,0,0,0-.87973-3.51356c-.19447-.52561-.37808-1.02189-.51375-1.52543.14679-.0116.301-.02412.46615-.02412a3.00516,3.00516,0,0,1,1.99263.89351,1.99979,1.99979,0,0,0,2.00125.27755,3.37374,3.37374,0,0,0,1.8526-3.6256,2,2,0,0,0-.88492-1.45824A8.056,8.056,0,0,1,43.68846,14.086a2,2,0,0,0-1.08185-1.12856,4.71242,4.71242,0,0,1-.45866-.23611C41.06059,8.65675,38.55771,7.04,36.33454,5.60373c-1.75706-1.13511-3.2745-2.11541-4.194-4.36123A2.00068,2.00068,0,0,0,30.29021,0Z" transform="translate(0.00053)" fill="url(#a)"/><path d="M45.31146,27.38639a10.6889,10.6889,0,0,1-5.29155,1.34213c1.28713-3.83388-1.79869-5.74808-1.25413-9.923,1.55116,1.58416,2.59077-.69307,5.8581,1.8812,0,0,.75908-.31354.62706-1.56767a10.00375,10.00375,0,0,1-3.43235-4.32344,5.77187,5.77187,0,0,1-1.44759-.90342C38.89481,6.8098,32.79733,8.125,30.28963,2.00032c.90611,6.72066,6.0388,5.30432,7.44154,10.76906C32.186,5.84718,30.22388,9.074,27.737,3.65535c2.344,7.24215,4.32738,4.01325,7.73975,9.6819A9.49,9.49,0,0,0,31.7031,14.02a3.30149,3.30149,0,0,0,2.72827,1.18812c-2.57426,2.31024-.088,6.634-5.74259,10.42907-1.18812,2.55227-9.21893,6.51267-15.33556,3.32234a2.80514,2.80514,0,0,0,1.84819,3.10231c-5.10452,2.79428.22,10.60509-6.8867,13.17936-.70408,6.8647-3.54237,5.25852-3.54237,8.38285A3.10694,3.10694,0,0,0,2,56.00032c7.19474-.297,2.44225-5.74259,13.99343-14.02644,5.14853-3.43235,6.46866-6.8977,14.35647-5.80859,0,0,4.12542-.495,6.53467-2.8713,1.43564.80859,4.19143-2.50825,7.65678-3.9604-.31353,4.8845-2.65677,4.8845-2.11222,6.73269a3.24331,3.24331,0,0,0-2.78329,1.69416c5.32455.61607,4.84051-3.52035,5.32455-5.54455a17.77721,17.77721,0,0,1,1.39715-3.74039A2.8266,2.8266,0,0,0,45.31146,27.38639Z" transform="translate(0.00053)" fill="url(#b)"/></svg>