<svg xmlns="http://www.w3.org/2000/svg" viewBox="0 0 32 32"><path d="M14.13257,0C10.7522,0,7.14014.85577,7.14014,3.25757v9.92474q-.0738-.00054-.14771-.00055C3.61206,13.18176,0,14.03754,0,16.43939v12.303C.00043,31.14429,3.6123,32,6.99237,32s6.99207-.85571,6.99249-3.25726V27.60547q.0738.00054.14765.00055c.4552,0,.90844-.017,1.35467-.05066,1.64014,1.32275,4.92047,1.44256,6.04035,1.44256,3.38006,0,6.99206-.85565,6.99249-3.2572V13.43732c-.00012-2.40186-3.61218-3.25757-6.99243-3.25757q-.20151,0-.40259.00445V3.25757C21.12488.85571,17.51282,0,14.13257,0Z" fill="#a86500"/><path d="M19.625,22.59088v1.75763h0c-.00017.97065-2.45909,1.75753-5.49235,1.75753h-.00006l-1.09849-1.75758,1.09849-1.75758Z" fill="#ffce2a"/><path d="M8.64014,22.59088v1.75763h0c.00017.97065,2.45909,1.75753,5.49235,1.75753h.00007V22.59088Z" fill="#fdeb95"/><path d="M19.625,20.83331v1.75762h0c-.00017.97065-2.45909,1.75753-5.49235,1.75753h-.00006l-1.09849-1.75758,1.09849-1.75757Z" fill="#e68900"/><path d="M8.64014,20.83331v1.75762h0c.00017.97065,2.45909,1.75753,5.49235,1.75753h.00007V20.83331Z" fill="#ffad00"/><path d="M19.625,19.07573v1.75763h0c-.00017.97065-2.45909,1.75752-5.49235,1.75752h-.00006l-1.09849-1.75757,1.09849-1.75758Z" fill="#ffce2a"/><path d="M8.64014,19.07573v1.75763h0c.00017.97065,2.45909,1.75752,5.49235,1.75752h.00007V19.07573Z" fill="#fdeb95"/><path d="M19.625,17.31816v1.75762h0c-.00017.97065-2.45909,1.75753-5.49235,1.75753h-.00006l-1.09849-1.75758,1.09849-1.75757Z" fill="#e68900"/><path d="M8.64014,17.31816v1.75762h0c.00017.97065,2.45909,1.75753,5.49235,1.75753h.00007V17.31816Z" fill="#ffad00"/><path d="M19.625,15.56058v1.75763h0c-.00017.97065-2.45909,1.75752-5.49235,1.75752h-.00006l-1.09849-1.75757,1.09849-1.75758Z" fill="#ffce2a"/><path d="M8.64014,15.56058v1.75763h0c.00017.97065,2.45909,1.75752,5.49235,1.75752h.00007V15.56058Z" fill="#fdeb95"/><path d="M19.625,13.803v1.75763h0c-.00017.97065-2.45909,1.75753-5.49235,1.75753h-.00006l-1.09849-1.75758L14.13257,13.803Z" fill="#e68900"/><path d="M8.64014,13.803v1.75763h0c.00017.97065,2.45909,1.75753,5.49235,1.75753h.00007V13.803Z" fill="#ffad00"/><path d="M19.625,12.04543v1.75763h0c-.00017.97064-2.45909,1.75752-5.49235,1.75752h-.00006L13.03408,13.803l1.09849-1.75757Z" fill="#ffce2a"/><path d="M8.64014,12.04543v1.75763h0c.00017.97064,2.45909,1.75752,5.49235,1.75752h.00007V12.04543Z" fill="#fdeb95"/><path d="M19.625,10.28785v1.75763h0c-.00017.97065-2.45909,1.75752-5.49235,1.75752h-.00006l-1.09849-1.75757,1.09849-1.75758Z" fill="#e68900"/><path d="M8.64014,10.28785v1.75763h0c.00017.97065,2.45909,1.75752,5.49235,1.75752h.00007V10.28785Z" fill="#ffad00"/><path d="M19.625,8.53028V10.2879h0c-.00017.97065-2.45909,1.75753-5.49235,1.75753h-.00006l-1.09849-1.75758,1.09849-1.75757Z" fill="#ffce2a"/><path d="M8.64014,8.53028V10.2879h0c.00017.97065,2.45909,1.75753,5.49235,1.75753h.00007V8.53028Z" fill="#fdeb95"/><path d="M19.625,6.7727V8.53033h0c-.00017.97065-2.45909,1.75752-5.49235,1.75752h-.00006L13.03408,8.53028,14.13257,6.7727Z" fill="#e68900"/><path d="M8.64014,6.7727V8.53033h0c.00017.97065,2.45909,1.75752,5.49235,1.75752h.00007V6.7727Z" fill="#ffad00"/><path d="M19.625,5.01513V6.77275h0c-.00017.97065-2.45909,1.75753-5.49235,1.75753h-.00006L13.03408,6.7727l1.09849-1.75757Z" fill="#ffce2a"/><path d="M8.64014,5.01513V6.77275h0c.00017.97065,2.45909,1.75753,5.49235,1.75753h.00007V5.01513Z" fill="#fdeb95"/><path d="M19.625,3.25755V5.01518h0c-.00017.97065-2.45909,1.75752-5.49235,1.75752h-.00006L13.03408,5.01513l1.09849-1.75758Z" fill="#e68900"/><path d="M8.64014,3.25755V5.01518h0c.00017.97065,2.45909,1.75752,5.49235,1.75752h.00007V3.25755Z" fill="#ffad00"/><path d="M14.13257,1.5h0L13.03408,3.25755l1.09849,1.75758h0c3.03334,0,5.49242-.78689,5.49242-1.75758S17.166,1.5,14.13257,1.5Z" fill="#ffad00"/><path d="M8.64014,3.25755c0,.97067,2.459,1.75758,5.49243,1.75758V1.5C11.09916,1.5,8.64014,2.28686,8.64014,3.25755Z" fill="#ffce2a"/><path d="M14.13257,2.214h0L13.03405,3.25755l1.09846,1.04356h0c1.81716,0,3.29545-.46814,3.29545-1.04356S15.94973,2.214,14.13257,2.214Z" fill="#ffce2a"/><path d="M10.8371,3.25755c0,.5754,1.4783,1.04354,3.29546,1.04356V2.214C12.3154,2.214,10.8371,2.68215,10.8371,3.25755Z" fill="#fdeb95"/><path d="M12.48483,26.98482v1.75763h0C12.48465,29.7131,10.02573,30.5,6.99247,30.5H6.99241L5.89392,28.7424l1.09849-1.75758Z" fill="#e68900"/><path d="M1.5,26.98482v1.75763h0C1.50016,29.7131,3.95908,30.5,6.99234,30.5h.00007V26.98482Z" fill="#ffad00"/><path d="M12.48483,25.22725v1.75762h0c-.00017.97065-2.45909,1.75753-5.49235,1.75753H6.99241L5.89392,26.98482l1.09849-1.75757Z" fill="#ffce2a"/><path d="M1.5,25.22725v1.75762h0c.00017.97065,2.45909,1.75753,5.49235,1.75753h.00007V25.22725Z" fill="#fdeb95"/><path d="M12.48483,23.46967V25.2273h0c-.00017.97065-2.45909,1.75752-5.49235,1.75752H6.99241L5.89392,25.22725l1.09849-1.75758Z" fill="#e68900"/><path d="M1.5,23.46967V25.2273h0c.00017.97065,2.45909,1.75752,5.49235,1.75752h.00007V23.46967Z" fill="#ffad00"/><path d="M12.48483,21.7121v1.75762h0c-.00017.97065-2.45909,1.75753-5.49235,1.75753H6.99241L5.89392,23.46967,6.99241,21.7121Z" fill="#ffce2a"/><path d="M1.5,21.7121v1.75762h0c.00017.97065,2.45909,1.75753,5.49235,1.75753h.00007V21.7121Z" fill="#fdeb95"/><path d="M12.48483,19.95452v1.75763h0c-.00017.97064-2.45909,1.75752-5.49235,1.75752H6.99241L5.89392,21.7121l1.09849-1.75758Z" fill="#e68900"/><path d="M1.5,19.95452v1.75763h0c.00017.97064,2.45909,1.75752,5.49235,1.75752h.00007V19.95452Z" fill="#ffad00"/><path d="M12.48483,18.19694v1.75763h0c-.00017.97065-2.45909,1.75753-5.49235,1.75753H6.99241L5.89392,19.95452l1.09849-1.75758Z" fill="#ffce2a"/><path d="M1.5,18.19694v1.75763h0c.00017.97065,2.45909,1.75753,5.49235,1.75753h.00007V18.19694Z" fill="#fdeb95"/><path d="M12.48483,16.43937V18.197h0c-.00017.97065-2.45909,1.75753-5.49235,1.75753H6.99241L5.89392,18.19694l1.09849-1.75757Z" fill="#e68900"/><path d="M1.5,16.43937V18.197h0c.00017.97065,2.45909,1.75753,5.49235,1.75753h.00007V16.43937Z" fill="#ffad00"/><path d="M6.99241,14.68179h0L5.89392,16.43937l1.09849,1.75757h0c3.03334,0,5.49242-.78688,5.49242-1.75757S10.02581,14.68179,6.99241,14.68179Z" fill="#ffad00"/><path d="M1.5,16.43937c0,.97067,2.459,1.75757,5.49243,1.75757V14.68179C3.959,14.68179,1.5,15.46868,1.5,16.43937Z" fill="#ffce2a"/><path d="M6.99241,15.39581h0L5.89389,16.43937l1.09846,1.04356h0c1.81716,0,3.29545-.46815,3.29545-1.04356S8.80956,15.39581,6.99241,15.39581Z" fill="#ffce2a"/><path d="M3.69694,16.43937c0,.57539,1.4783,1.04354,3.29545,1.04356V15.39581C5.17524,15.39581,3.69694,15.864,3.69694,16.43937Z" fill="#fdeb95"/><path d="M27.02,23.98279v1.75763h0c-.00018.97064-2.45909,1.75752-5.49235,1.75752h-.00007l-1.09848-1.75757,1.09848-1.75758Z" fill="#e68900"/><path d="M16.03514,23.98279v1.75763h0c.00018.97064,2.45909,1.75752,5.49235,1.75752h.00007V23.98279Z" fill="#ffad00"/><path d="M27.02,22.22521v1.75763h0c-.00018.97065-2.45909,1.75753-5.49235,1.75753h-.00007l-1.09848-1.75758,1.09848-1.75758Z" fill="#ffce2a"/><path d="M16.03514,22.22521v1.75763h0c.00018.97065,2.45909,1.75753,5.49235,1.75753h.00007V22.22521Z" fill="#fdeb95"/><path d="M27.02,20.46764v1.75762h0c-.00018.97065-2.45909,1.75753-5.49235,1.75753h-.00007l-1.09848-1.75758,1.09848-1.75757Z" fill="#e68900"/><path d="M16.03514,20.46764v1.75762h0c.00018.97065,2.45909,1.75753,5.49235,1.75753h.00007V20.46764Z" fill="#ffad00"/><path d="M27.02,18.71006v1.75763h0c-.00018.97065-2.45909,1.75752-5.49235,1.75752h-.00007l-1.09848-1.75757,1.09848-1.75758Z" fill="#ffce2a"/><path d="M16.03514,18.71006v1.75763h0c.00018.97065,2.45909,1.75752,5.49235,1.75752h.00007V18.71006Z" fill="#fdeb95"/><path d="M27.02,16.95249v1.75762h0c-.00018.97065-2.45909,1.75753-5.49235,1.75753h-.00007l-1.09848-1.75758,1.09848-1.75757Z" fill="#e68900"/><path d="M16.03514,16.95249v1.75762h0c.00018.97065,2.45909,1.75753,5.49235,1.75753h.00007V16.95249Z" fill="#ffad00"/><path d="M27.02,15.19491v1.75763h0c-.00018.97065-2.45909,1.75752-5.49235,1.75752h-.00007l-1.09848-1.75757,1.09848-1.75758Z" fill="#ffce2a"/><path d="M16.03514,15.19491v1.75763h0c.00018.97065,2.45909,1.75752,5.49235,1.75752h.00007V15.19491Z" fill="#fdeb95"/><path d="M27.02,13.43733V15.195h0c-.00018.97065-2.45909,1.75753-5.49235,1.75753h-.00007l-1.09848-1.75758,1.09848-1.75758Z" fill="#e68900"/><path d="M16.03514,13.43733V15.195h0c.00018.97065,2.45909,1.75753,5.49235,1.75753h.00007V13.43733Z" fill="#ffad00"/><path d="M21.52756,11.67976h0l-1.09848,1.75757,1.09848,1.75758h0c3.03335,0,5.49243-.78689,5.49243-1.75758S24.561,11.67976,21.52756,11.67976Z" fill="#ffad00"/><path d="M16.03514,13.43733c0,.97068,2.459,1.75758,5.49242,1.75758V11.67976C18.49416,11.67976,16.03514,12.46665,16.03514,13.43733Z" fill="#ffce2a"/><path d="M21.52756,12.39377h0l-1.09851,1.04356L21.5275,14.4809h0c1.81716,0,3.29546-.46815,3.29546-1.04357S23.34472,12.39377,21.52756,12.39377Z" fill="#ffce2a"/><path d="M18.2321,13.43733c0,.5754,1.47829,1.04355,3.29545,1.04357V12.39377C19.71039,12.39377,18.2321,12.86194,18.2321,13.43733Z" fill="#fdeb95"/><circle cx="24" cy="23.9996" r="8" fill="#e30000"/><circle cx="24" cy="23.9996" r="6.5" fill="#fa0000"/><rect x="19.5" y="22.9996" width="9" height="2" fill="#2d2d2da"/></svg>