<svg xmlns="http://www.w3.org/2000/svg" viewBox="0 0 135.71401 129.00001"><rect x="7.8545" y="14.4995" width="120" height="100" fill="#0a0a0a"/><path d="M128.414,0H7.294A7.293,7.293,0,0,0,0,7.292V121.7A7.293,7.293,0,0,0,7.286,129H128.414a7.293,7.293,0,0,0,7.3-7.286V7.294A7.293,7.293,0,0,0,128.422,0ZM39.829,83.247H23.693a2.281,2.281,0,0,0-2.284,2.278q0,.00651,0,.013l.005.016h-.005V97.07h.005l-.005.006a2.292,2.292,0,0,0,2.284,2.3H39.829v7.683H19.69v-.02a5.952,5.952,0,0,1-5.957-5.947V81.51a5.95,5.95,0,0,1,5.957-5.936H39.829Zm-.217-15.339h-25.9V60.119H35.55a2.32,2.32,0,0,0,2.316-2.324V32.06a2.317,2.317,0,0,0-2.309-2.325H23.814A2.318,2.318,0,0,0,21.5,32.057V43.769A2.319,2.319,0,0,0,23.807,46.1l.007,0H33.19v7.786H19.751a6.032,6.032,0,0,1-6.037-6.027V27.987a6.038,6.038,0,0,1,6.035-6.041H39.612a6.045,6.045,0,0,1,6.042,6.041V61.865h0a6.038,6.038,0,0,1-6.033,6.043Zm37.833,33.183a5.949,5.949,0,0,1-5.949,5.948H51.927a5.946,5.946,0,0,1-5.954-5.938V81.511a5.945,5.945,0,0,1,5.953-5.937H71.5a5.948,5.948,0,0,1,5.949,5.937Zm.342-47.206H57.918a6.033,6.033,0,0,1-6.034-6.032V27.988a6.038,6.038,0,0,1,6.034-6.041H77.787a6.043,6.043,0,0,1,6.035,6.041V47.847A6.038,6.038,0,0,1,77.787,53.885Zm44.185,53.155H114.3V83.249h-5.4a2.278,2.278,0,0,0-2.283,2.273q0,.009,0,.018v21.5H98.946V83.249h-5.4a2.281,2.281,0,0,0-2.285,2.277q0,.007,0,.014v21.521h-7.67V81.512a5.945,5.945,0,0,1,5.952-5.937h32.429Zm-6.015-39.132h-25.9V60.119h21.838a2.323,2.323,0,0,0,2.324-2.322V32.06a2.322,2.322,0,0,0-2.319-2.325H100.155a2.321,2.321,0,0,0-2.308,2.325V43.769a2.322,2.322,0,0,0,2.308,2.329h9.37v7.786H96.094a6.036,6.036,0,0,1-6.042-6.03V27.987a6.042,6.042,0,0,1,6.042-6.041h19.862a6.046,6.046,0,0,1,6.037,6.041V61.865h0a6.038,6.038,0,0,1-6.033,6.043Z" transform="translate(0 0)" fill="#fff"/><path d="M67.494,83.248a2.279,2.279,0,0,1,2.277,2.281l0,.01V97.07a2.291,2.291,0,0,1-2.277,2.3l-.027-.014v.014H55.956v-.014l-.025.014a2.292,2.292,0,0,1-2.282-2.3V85.539a2.281,2.281,0,0,1,2.271-2.291l.011,0H67.494" transform="translate(0 0)" fill="#fff"/><path d="M73.724,29.736a2.3,2.3,0,0,1,2.30012,2.29988L76.024,32.059v11.71a2.3,2.3,0,0,1-2.27082,2.32881L73.724,46.098H61.993a2.32,2.32,0,0,1-2.318-2.322l0-.007V32.059a2.317,2.317,0,0,1,2.311-2.323H73.724" transform="translate(0 0)" fill="#fff"/></svg>